<?xml version="1.0" encoding="UTF-8" standalone="no"?>
<!DOCTYPE svg PUBLIC "-//W3C//DTD SVG 1.1//EN"
 "http://www.w3.org/Graphics/SVG/1.1/DTD/svg11.dtd">
<!-- Generated by graphviz version 2.38.0 (20140413.2041)
 -->
<!-- Title: YAIPTestFixtureBase Pages: 1 -->
<svg width="767pt" height="386pt"
 viewBox="0.00 0.00 767.00 386.00" xmlns="http://www.w3.org/2000/svg" xmlns:xlink="http://www.w3.org/1999/xlink">
<g id="graph0" class="graph" transform="scale(1 1) rotate(0) translate(4 382)">
<title>YAIPTestFixtureBase</title>
<polygon fill="white" stroke="none" points="-4,4 -4,-382 763,-382 763,4 -4,4"/>
<!-- Node1 -->
<g id="node1" class="node"><title>Node1</title>
<polygon fill="#bfbfbf" stroke="black" points="319.5,-254.5 319.5,-377.5 429.5,-377.5 429.5,-254.5 319.5,-254.5"/>
<text text-anchor="middle" x="374.5" y="-365.5" font-family="Helvetica,sans-Serif" font-size="10.00">YAIPTestFixtureBase</text>
<polyline fill="none" stroke="black" points="319.5,-358.5 429.5,-358.5 "/>
<text text-anchor="start" x="327.5" y="-346.5" font-family="Helvetica,sans-Serif" font-size="10.00">+ IniParser</text>
<text text-anchor="start" x="327.5" y="-335.5" font-family="Helvetica,sans-Serif" font-size="10.00">+ INIFilename</text>
<text text-anchor="start" x="327.5" y="-324.5" font-family="Helvetica,sans-Serif" font-size="10.00">+ KeyBool</text>
<text text-anchor="start" x="327.5" y="-313.5" font-family="Helvetica,sans-Serif" font-size="10.00">+ KeyDouble</text>
<text text-anchor="start" x="327.5" y="-302.5" font-family="Helvetica,sans-Serif" font-size="10.00">+ KeyInteger</text>
<text text-anchor="start" x="327.5" y="-291.5" font-family="Helvetica,sans-Serif" font-size="10.00">+ KeyString</text>
<text text-anchor="start" x="327.5" y="-280.5" font-family="Helvetica,sans-Serif" font-size="10.00">+ Section</text>
<polyline fill="none" stroke="black" points="319.5,-273.5 429.5,-273.5 "/>
<text text-anchor="middle" x="374.5" y="-261.5" font-family="Helvetica,sans-Serif" font-size="10.00"> </text>
</g>
<!-- Node2 -->
<g id="node2" class="node"><title>Node2</title>
<g id="a_node2"><a xlink:href="../../d4/dee/a00008.html" target="_top" xlink:title="{YAIPTestFixtureSave\n|+ ValueBool\l+ ValueDouble\l+ ValueInt\l+ ValueString\l|}">
<polygon fill="white" stroke="black" points="0,-127.5 0,-217.5 109,-217.5 109,-127.5 0,-127.5"/>
<text text-anchor="middle" x="54.5" y="-205.5" font-family="Helvetica,sans-Serif" font-size="10.00">YAIPTestFixtureSave</text>
<polyline fill="none" stroke="black" points="0,-198.5 109,-198.5 "/>
<text text-anchor="start" x="8" y="-186.5" font-family="Helvetica,sans-Serif" font-size="10.00">+ ValueBool</text>
<text text-anchor="start" x="8" y="-175.5" font-family="Helvetica,sans-Serif" font-size="10.00">+ ValueDouble</text>
<text text-anchor="start" x="8" y="-164.5" font-family="Helvetica,sans-Serif" font-size="10.00">+ ValueInt</text>
<text text-anchor="start" x="8" y="-153.5" font-family="Helvetica,sans-Serif" font-size="10.00">+ ValueString</text>
<polyline fill="none" stroke="black" points="0,-146.5 109,-146.5 "/>
<text text-anchor="middle" x="54.5" y="-134.5" font-family="Helvetica,sans-Serif" font-size="10.00"> </text>
</a>
</g>
</g>
<!-- Node1&#45;&gt;Node2 -->
<g id="edge1" class="edge"><title>Node1&#45;&gt;Node2</title>
<path fill="none" stroke="midnightblue" d="M309.775,-295.375C256.85,-278.184 180.847,-250.847 118.5,-218 115.387,-216.36 112.246,-214.594 109.115,-212.745"/>
<polygon fill="none" stroke="midnightblue" points="308.789,-298.734 319.381,-298.466 310.933,-292.071 308.789,-298.734"/>
</g>
<!-- Node4 -->
<g id="node4" class="node"><title>Node4</title>
<g id="a_node4"><a xlink:href="../../da/da0/a00009.html" target="_top" xlink:title="{YAIPTestFixtureSectionKeyKill\n||}">
<polygon fill="white" stroke="black" points="127.5,-144 127.5,-201 279.5,-201 279.5,-144 127.5,-144"/>
<text text-anchor="middle" x="203.5" y="-189" font-family="Helvetica,sans-Serif" font-size="10.00">YAIPTestFixtureSectionKeyKill</text>
<polyline fill="none" stroke="black" points="127.5,-182 279.5,-182 "/>
<text text-anchor="middle" x="203.5" y="-170" font-family="Helvetica,sans-Serif" font-size="10.00"> </text>
<polyline fill="none" stroke="black" points="127.5,-163 279.5,-163 "/>
<text text-anchor="middle" x="203.5" y="-151" font-family="Helvetica,sans-Serif" font-size="10.00"> </text>
</a>
</g>
</g>
<!-- Node1&#45;&gt;Node4 -->
<g id="edge3" class="edge"><title>Node1&#45;&gt;Node4</title>
<path fill="none" stroke="midnightblue" d="M311.678,-263.016C286.291,-242.008 258.029,-218.622 236.761,-201.023"/>
<polygon fill="none" stroke="midnightblue" points="309.518,-265.771 319.453,-269.45 313.98,-260.378 309.518,-265.771"/>
</g>
<!-- Node5 -->
<g id="node5" class="node"><title>Node5</title>
<g id="a_node5"><a xlink:href="../../d7/dec/a00010.html" target="_top" xlink:title="{YAIPTestFixtureSectionKeyList\n||}">
<polygon fill="white" stroke="black" points="297.5,-144 297.5,-201 451.5,-201 451.5,-144 297.5,-144"/>
<text text-anchor="middle" x="374.5" y="-189" font-family="Helvetica,sans-Serif" font-size="10.00">YAIPTestFixtureSectionKeyList</text>
<polyline fill="none" stroke="black" points="297.5,-182 451.5,-182 "/>
<text text-anchor="middle" x="374.5" y="-170" font-family="Helvetica,sans-Serif" font-size="10.00"> </text>
<polyline fill="none" stroke="black" points="297.5,-163 451.5,-163 "/>
<text text-anchor="middle" x="374.5" y="-151" font-family="Helvetica,sans-Serif" font-size="10.00"> </text>
</a>
</g>
</g>
<!-- Node1&#45;&gt;Node5 -->
<g id="edge4" class="edge"><title>Node1&#45;&gt;Node5</title>
<path fill="none" stroke="midnightblue" d="M374.5,-243.742C374.5,-228.638 374.5,-213.565 374.5,-201.276"/>
<polygon fill="none" stroke="midnightblue" points="371,-244.17 374.5,-254.17 378,-244.17 371,-244.17"/>
</g>
<!-- Node6 -->
<g id="node6" class="node"><title>Node6</title>
<g id="a_node6"><a xlink:href="../../da/d45/a00011.html" target="_top" xlink:title="{YAIPTestFixtureSectionKill\n||}">
<polygon fill="white" stroke="black" points="469.5,-144 469.5,-201 603.5,-201 603.5,-144 469.5,-144"/>
<text text-anchor="middle" x="536.5" y="-189" font-family="Helvetica,sans-Serif" font-size="10.00">YAIPTestFixtureSectionKill</text>
<polyline fill="none" stroke="black" points="469.5,-182 603.5,-182 "/>
<text text-anchor="middle" x="536.5" y="-170" font-family="Helvetica,sans-Serif" font-size="10.00"> </text>
<polyline fill="none" stroke="black" points="469.5,-163 603.5,-163 "/>
<text text-anchor="middle" x="536.5" y="-151" font-family="Helvetica,sans-Serif" font-size="10.00"> </text>
</a>
</g>
</g>
<!-- Node1&#45;&gt;Node6 -->
<g id="edge5" class="edge"><title>Node1&#45;&gt;Node6</title>
<path fill="none" stroke="midnightblue" d="M437.495,-259.976C460.455,-239.922 485.448,-218.092 504.579,-201.382"/>
<polygon fill="none" stroke="midnightblue" points="435.027,-257.485 429.798,-266.699 439.632,-262.757 435.027,-257.485"/>
</g>
<!-- Node7 -->
<g id="node7" class="node"><title>Node7</title>
<g id="a_node7"><a xlink:href="../../df/d86/a00012.html" target="_top" xlink:title="{YAIPTestFixtureSectionList\n||}">
<polygon fill="white" stroke="black" points="622,-144 622,-201 759,-201 759,-144 622,-144"/>
<text text-anchor="middle" x="690.5" y="-189" font-family="Helvetica,sans-Serif" font-size="10.00">YAIPTestFixtureSectionList</text>
<polyline fill="none" stroke="black" points="622,-182 759,-182 "/>
<text text-anchor="middle" x="690.5" y="-170" font-family="Helvetica,sans-Serif" font-size="10.00"> </text>
<polyline fill="none" stroke="black" points="622,-163 759,-163 "/>
<text text-anchor="middle" x="690.5" y="-151" font-family="Helvetica,sans-Serif" font-size="10.00"> </text>
</a>
</g>
</g>
<!-- Node1&#45;&gt;Node7 -->
<g id="edge6" class="edge"><title>Node1&#45;&gt;Node7</title>
<path fill="none" stroke="midnightblue" d="M439.171,-291.288C487.613,-272.894 555.135,-245.904 612.5,-218 623.015,-212.885 634.063,-206.948 644.431,-201.109"/>
<polygon fill="none" stroke="midnightblue" points="437.863,-288.041 429.746,-294.85 440.337,-294.589 437.863,-288.041"/>
</g>
<!-- Node3 -->
<g id="node3" class="node"><title>Node3</title>
<g id="a_node3"><a xlink:href="../../de/d5e/a00007.html" target="_top" xlink:title="{YAIPTestFixtureLoad\n|+ DefaultBool\l+ DefaultDouble\l+ DefaultInt\l+ DefaultString\l|}">
<polygon fill="white" stroke="black" points="0,-0.5 0,-90.5 109,-90.5 109,-0.5 0,-0.5"/>
<text text-anchor="middle" x="54.5" y="-78.5" font-family="Helvetica,sans-Serif" font-size="10.00">YAIPTestFixtureLoad</text>
<polyline fill="none" stroke="black" points="0,-71.5 109,-71.5 "/>
<text text-anchor="start" x="8" y="-59.5" font-family="Helvetica,sans-Serif" font-size="10.00">+ DefaultBool</text>
<text text-anchor="start" x="8" y="-48.5" font-family="Helvetica,sans-Serif" font-size="10.00">+ DefaultDouble</text>
<text text-anchor="start" x="8" y="-37.5" font-family="Helvetica,sans-Serif" font-size="10.00">+ DefaultInt</text>
<text text-anchor="start" x="8" y="-26.5" font-family="Helvetica,sans-Serif" font-size="10.00">+ DefaultString</text>
<polyline fill="none" stroke="black" points="0,-19.5 109,-19.5 "/>
<text text-anchor="middle" x="54.5" y="-7.5" font-family="Helvetica,sans-Serif" font-size="10.00"> </text>
</a>
</g>
</g>
<!-- Node2&#45;&gt;Node3 -->
<g id="edge2" class="edge"><title>Node2&#45;&gt;Node3</title>
<path fill="none" stroke="midnightblue" d="M54.5,-117.157C54.5,-108.282 54.5,-99.1831 54.5,-90.5937"/>
<polygon fill="none" stroke="midnightblue" points="51.0001,-117.43 54.5,-127.43 58.0001,-117.43 51.0001,-117.43"/>
</g>
</g>
</svg>
