<?xml version="1.0" encoding="UTF-8" standalone="no"?>
<!DOCTYPE svg PUBLIC "-//W3C//DTD SVG 1.1//EN"
 "http://www.w3.org/Graphics/SVG/1.1/DTD/svg11.dtd">
<!-- Generated by graphviz version 2.36.0 (20140111.2315)
 -->
<!-- Title: YAIP::StringCompareCaseLess::CompareCaseless Pages: 1 -->
<svg width="162pt" height="194pt"
 viewBox="0.00 0.00 162.00 194.00" xmlns="http://www.w3.org/2000/svg" xmlns:xlink="http://www.w3.org/1999/xlink">
<g id="graph0" class="graph" transform="scale(1 1) rotate(0) translate(4 190)">
<title>YAIP::StringCompareCaseLess::CompareCaseless</title>
<polygon fill="white" stroke="none" points="-4,4 -4,-190 158,-190 158,4 -4,4"/>
<!-- Node1 -->
<g id="node1" class="node"><title>Node1</title>
<polygon fill="#bfbfbf" stroke="black" points="-0.5,-1 -0.5,-69 154.5,-69 154.5,-1 -0.5,-1"/>
<text text-anchor="start" x="7.5" y="-57" font-family="Helvetica,sans-Serif" font-size="10.00">YAIP::StringCompareCaseLess</text>
<text text-anchor="middle" x="77" y="-46" font-family="Helvetica,sans-Serif" font-size="10.00">::CompareCaseless</text>
<polyline fill="none" stroke="black" points="-0.5,-39 154.5,-39 "/>
<text text-anchor="middle" x="77" y="-27" font-family="Helvetica,sans-Serif" font-size="10.00"> </text>
<polyline fill="none" stroke="black" points="-0.5,-20 154.5,-20 "/>
<text text-anchor="start" x="7.5" y="-8" font-family="Helvetica,sans-Serif" font-size="10.00">+ operator()()</text>
</g>
<!-- Node2 -->
<g id="node2" class="node"><title>Node2</title>
<polygon fill="white" stroke="#bfbfbf" points="11.5,-106.5 11.5,-185.5 142.5,-185.5 142.5,-106.5 11.5,-106.5"/>
<text text-anchor="start" x="19.5" y="-173.5" font-family="Helvetica,sans-Serif" font-size="10.00">std::binary_function</text>
<text text-anchor="start" x="19.5" y="-162.5" font-family="Helvetica,sans-Serif" font-size="10.00">&lt; unsigned char, unsigned</text>
<text text-anchor="middle" x="77" y="-151.5" font-family="Helvetica,sans-Serif" font-size="10.00"> char, bool &gt;</text>
<polyline fill="none" stroke="#bfbfbf" points="11.5,-144.5 142.5,-144.5 "/>
<text text-anchor="middle" x="77" y="-132.5" font-family="Helvetica,sans-Serif" font-size="10.00"> </text>
<polyline fill="none" stroke="#bfbfbf" points="11.5,-125.5 142.5,-125.5 "/>
<text text-anchor="middle" x="77" y="-113.5" font-family="Helvetica,sans-Serif" font-size="10.00"> </text>
</g>
<!-- Node2&#45;&gt;Node1 -->
<g id="edge1" class="edge"><title>Node2&#45;&gt;Node1</title>
<path fill="none" stroke="midnightblue" d="M77,-96.125C77,-87.0164 77,-77.6961 77,-69.1962"/>
<polygon fill="none" stroke="midnightblue" points="73.5001,-96.2637 77,-106.264 80.5001,-96.2638 73.5001,-96.2637"/>
</g>
</g>
</svg>
