<?xml version="1.0" encoding="UTF-8" standalone="no"?>
<!DOCTYPE svg PUBLIC "-//W3C//DTD SVG 1.1//EN"
 "http://www.w3.org/Graphics/SVG/1.1/DTD/svg11.dtd">
<!-- Generated by graphviz version 2.38.0 (20140413.2041)
 -->
<!-- Title: YAIP::Convert::ConvertTo Pages: 1 -->
<svg width="334pt" height="66pt"
 viewBox="0.00 0.00 334.00 66.00" xmlns="http://www.w3.org/2000/svg" xmlns:xlink="http://www.w3.org/1999/xlink">
<g id="graph0" class="graph" transform="scale(1 1) rotate(0) translate(4 62)">
<title>YAIP::Convert::ConvertTo</title>
<polygon fill="white" stroke="none" points="-4,4 -4,-62 330,-62 330,4 -4,4"/>
<!-- Node1 -->
<g id="node1" class="node"><title>Node1</title>
<polygon fill="#bfbfbf" stroke="black" points="0,-19.5 0,-38.5 126,-38.5 126,-19.5 0,-19.5"/>
<text text-anchor="middle" x="63" y="-26.5" font-family="Helvetica,sans-Serif" font-size="10.00">YAIP::Convert::ConvertTo</text>
</g>
<!-- Node2 -->
<g id="node2" class="node"><title>Node2</title>
<g id="a_node2"><a xlink:href="../../dd/dad/a00005.html#a73da1225dc9361306f5c5c023918b119" target="_top" xlink:title="YAIP::YAIP::SectionKeyValueGet">
<polygon fill="white" stroke="black" points="162,-38.5 162,-57.5 326,-57.5 326,-38.5 162,-38.5"/>
<text text-anchor="middle" x="244" y="-45.5" font-family="Helvetica,sans-Serif" font-size="10.00">YAIP::YAIP::SectionKeyValueGet</text>
</a>
</g>
</g>
<!-- Node1&#45;&gt;Node2 -->
<g id="edge1" class="edge"><title>Node1&#45;&gt;Node2</title>
<path fill="none" stroke="midnightblue" d="M136.232,-36.6671C144.639,-37.5595 153.258,-38.4743 161.776,-39.3784"/>
<polygon fill="midnightblue" stroke="midnightblue" points="136.417,-33.1671 126.103,-35.592 135.678,-40.128 136.417,-33.1671"/>
</g>
<!-- Node3 -->
<g id="node3" class="node"><title>Node3</title>
<g id="a_node3"><a xlink:href="../../dd/dad/a00005.html#afde94dd7c14b08ca9005e725895df7ad" target="_top" xlink:title="YAIP::YAIP::SectionKeyValueSet">
<polygon fill="white" stroke="black" points="162,-0.5 162,-19.5 326,-19.5 326,-0.5 162,-0.5"/>
<text text-anchor="middle" x="244" y="-7.5" font-family="Helvetica,sans-Serif" font-size="10.00">YAIP::YAIP::SectionKeyValueSet</text>
</a>
</g>
</g>
<!-- Node1&#45;&gt;Node3 -->
<g id="edge2" class="edge"><title>Node1&#45;&gt;Node3</title>
<path fill="none" stroke="midnightblue" d="M136.232,-21.3329C144.639,-20.4405 153.258,-19.5257 161.776,-18.6216"/>
<polygon fill="midnightblue" stroke="midnightblue" points="135.678,-17.872 126.103,-22.408 136.417,-24.8329 135.678,-17.872"/>
</g>
</g>
</svg>
