<?xml version="1.0" encoding="UTF-8" standalone="no"?>
<!DOCTYPE svg PUBLIC "-//W3C//DTD SVG 1.1//EN"
 "http://www.w3.org/Graphics/SVG/1.1/DTD/svg11.dtd">
<!-- Generated by graphviz version 2.38.0 (20140413.2041)
 -->
<!-- Title: YAIPTestFixtureSectionKeyList Pages: 1 -->
<svg width="162pt" height="226pt"
 viewBox="0.00 0.00 162.00 226.00" xmlns="http://www.w3.org/2000/svg" xmlns:xlink="http://www.w3.org/1999/xlink">
<g id="graph0" class="graph" transform="scale(1 1) rotate(0) translate(4 222)">
<title>YAIPTestFixtureSectionKeyList</title>
<polygon fill="white" stroke="none" points="-4,4 -4,-222 158,-222 158,4 -4,4"/>
<!-- Node0 -->
<g id="node1" class="node"><title>Node0</title>
<polygon fill="#bfbfbf" stroke="black" points="0,-0.5 0,-57.5 154,-57.5 154,-0.5 0,-0.5"/>
<text text-anchor="middle" x="77" y="-45.5" font-family="Helvetica,sans-Serif" font-size="10.00">YAIPTestFixtureSectionKeyList</text>
<polyline fill="none" stroke="black" points="0,-38.5 154,-38.5 "/>
<text text-anchor="middle" x="77" y="-26.5" font-family="Helvetica,sans-Serif" font-size="10.00"> </text>
<polyline fill="none" stroke="black" points="0,-19.5 154,-19.5 "/>
<text text-anchor="middle" x="77" y="-7.5" font-family="Helvetica,sans-Serif" font-size="10.00"> </text>
</g>
<!-- Node1 -->
<g id="node2" class="node"><title>Node1</title>
<g id="a_node2"><a xlink:href="../../dd/da2/a00019.html" target="_top" xlink:title="{YAIPTestFixtureBase\n|+ IniParser\l+ INIFilename\l+ KeyBool\l+ KeyDouble\l+ KeyInteger\l+ KeyString\l+ Section\l|}">
<polygon fill="white" stroke="black" points="22,-94.5 22,-217.5 132,-217.5 132,-94.5 22,-94.5"/>
<text text-anchor="middle" x="77" y="-205.5" font-family="Helvetica,sans-Serif" font-size="10.00">YAIPTestFixtureBase</text>
<polyline fill="none" stroke="black" points="22,-198.5 132,-198.5 "/>
<text text-anchor="start" x="30" y="-186.5" font-family="Helvetica,sans-Serif" font-size="10.00">+ IniParser</text>
<text text-anchor="start" x="30" y="-175.5" font-family="Helvetica,sans-Serif" font-size="10.00">+ INIFilename</text>
<text text-anchor="start" x="30" y="-164.5" font-family="Helvetica,sans-Serif" font-size="10.00">+ KeyBool</text>
<text text-anchor="start" x="30" y="-153.5" font-family="Helvetica,sans-Serif" font-size="10.00">+ KeyDouble</text>
<text text-anchor="start" x="30" y="-142.5" font-family="Helvetica,sans-Serif" font-size="10.00">+ KeyInteger</text>
<text text-anchor="start" x="30" y="-131.5" font-family="Helvetica,sans-Serif" font-size="10.00">+ KeyString</text>
<text text-anchor="start" x="30" y="-120.5" font-family="Helvetica,sans-Serif" font-size="10.00">+ Section</text>
<polyline fill="none" stroke="black" points="22,-113.5 132,-113.5 "/>
<text text-anchor="middle" x="77" y="-101.5" font-family="Helvetica,sans-Serif" font-size="10.00"> </text>
</a>
</g>
</g>
<!-- Node1&#45;&gt;Node0 -->
<g id="edge1" class="edge"><title>Node1&#45;&gt;Node0</title>
<path fill="none" stroke="midnightblue" d="M77,-84.1384C77,-74.7999 77,-65.715 77,-57.7379"/>
<polygon fill="none" stroke="midnightblue" points="73.5001,-84.3308 77,-94.3308 80.5001,-84.3309 73.5001,-84.3308"/>
</g>
</g>
</svg>
