<?xml version="1.0" encoding="UTF-8" standalone="no"?>
<!DOCTYPE svg PUBLIC "-//W3C//DTD SVG 1.1//EN"
 "http://www.w3.org/Graphics/SVG/1.1/DTD/svg11.dtd">
<!-- Generated by graphviz version 2.38.0 (20140413.2041)
 -->
<!-- Title: C:/Users/jochen.paul/Downloads/YAIP/src/YAIP++.h Pages: 1 -->
<svg width="344pt" height="106pt"
 viewBox="0.00 0.00 343.50 106.00" xmlns="http://www.w3.org/2000/svg" xmlns:xlink="http://www.w3.org/1999/xlink">
<g id="graph0" class="graph" transform="scale(1 1) rotate(0) translate(4 102)">
<title>C:/Users/jochen.paul/Downloads/YAIP/src/YAIP++.h</title>
<polygon fill="white" stroke="none" points="-4,4 -4,-102 339.5,-102 339.5,4 -4,4"/>
<!-- Node1 -->
<g id="node1" class="node"><title>Node1</title>
<polygon fill="#bfbfbf" stroke="black" points="86.5,-67.5 86.5,-97.5 241.5,-97.5 241.5,-67.5 86.5,-67.5"/>
<text text-anchor="start" x="94.5" y="-85.5" font-family="Helvetica,sans-Serif" font-size="10.00">C:/Users/jochen.paul</text>
<text text-anchor="middle" x="164" y="-74.5" font-family="Helvetica,sans-Serif" font-size="10.00">/Downloads/YAIP/src/YAIP++.h</text>
</g>
<!-- Node2 -->
<g id="node2" class="node"><title>Node2</title>
<g id="a_node2"><a xlink:href="../../dd/dad/a00005_source.html" target="_top" xlink:title="C:/Users/jochen.paul\l/Downloads/YAIP/src/main.cpp">
<polygon fill="white" stroke="black" points="0,-0.5 0,-30.5 152,-30.5 152,-0.5 0,-0.5"/>
<text text-anchor="start" x="8" y="-18.5" font-family="Helvetica,sans-Serif" font-size="10.00">C:/Users/jochen.paul</text>
<text text-anchor="middle" x="76" y="-7.5" font-family="Helvetica,sans-Serif" font-size="10.00">/Downloads/YAIP/src/main.cpp</text>
</a>
</g>
</g>
<!-- Node1&#45;&gt;Node2 -->
<g id="edge1" class="edge"><title>Node1&#45;&gt;Node2</title>
<path fill="none" stroke="midnightblue" d="M136.857,-61.4511C123.319,-51.4517 107.273,-39.5995 95.0574,-30.5765"/>
<polygon fill="midnightblue" stroke="midnightblue" points="134.782,-64.2699 144.905,-67.396 138.941,-58.6393 134.782,-64.2699"/>
</g>
<!-- Node3 -->
<g id="node3" class="node"><title>Node3</title>
<g id="a_node3"><a xlink:href="../../de/d21/a00006.html" target="_top" xlink:title="Implementation of Yet Another INI Parser. ">
<polygon fill="white" stroke="black" points="170.5,-0.5 170.5,-30.5 335.5,-30.5 335.5,-0.5 170.5,-0.5"/>
<text text-anchor="start" x="178.5" y="-18.5" font-family="Helvetica,sans-Serif" font-size="10.00">C:/Users/jochen.paul</text>
<text text-anchor="middle" x="253" y="-7.5" font-family="Helvetica,sans-Serif" font-size="10.00">/Downloads/YAIP/src/YAIP++.cpp</text>
</a>
</g>
</g>
<!-- Node1&#45;&gt;Node3 -->
<g id="edge2" class="edge"><title>Node1&#45;&gt;Node3</title>
<path fill="none" stroke="midnightblue" d="M191.452,-61.4511C205.143,-51.4517 221.371,-39.5995 233.726,-30.5765"/>
<polygon fill="midnightblue" stroke="midnightblue" points="189.323,-58.6716 183.312,-67.396 193.452,-64.3245 189.323,-58.6716"/>
</g>
</g>
</svg>
