<?xml version="1.0" encoding="UTF-8" standalone="no"?>
<!DOCTYPE svg PUBLIC "-//W3C//DTD SVG 1.1//EN"
 "http://www.w3.org/Graphics/SVG/1.1/DTD/svg11.dtd">
<!-- Generated by graphviz version 2.36.0 (20140111.2315)
 -->
<!-- Title: /home/jochen/Work/YAIP/src/YAIP++.cpp Pages: 1 -->
<svg width="370pt" height="208pt"
 viewBox="0.00 0.00 370.00 208.00" xmlns="http://www.w3.org/2000/svg" xmlns:xlink="http://www.w3.org/1999/xlink">
<g id="graph0" class="graph" transform="scale(1 1) rotate(0) translate(4 204)">
<title>/home/jochen/Work/YAIP/src/YAIP++.cpp</title>
<polygon fill="white" stroke="none" points="-4,4 -4,-204 366,-204 366,4 -4,4"/>
<!-- Node1 -->
<g id="node1" class="node"><title>Node1</title>
<polygon fill="#bfbfbf" stroke="black" points="203,-169 203,-199 331,-199 331,-169 203,-169"/>
<text text-anchor="start" x="211" y="-187" font-family="Helvetica,sans-Serif" font-size="10.00">/home/jochen/Work/YAIP</text>
<text text-anchor="middle" x="267" y="-176" font-family="Helvetica,sans-Serif" font-size="10.00">/src/YAIP++.cpp</text>
</g>
<!-- Node2 -->
<g id="node2" class="node"><title>Node2</title>
<g id="a_node2"><a xlink:href="../../de/d5e/a00007.html" target="_top" xlink:title="Header of Yet Another INI Parser. ">
<polygon fill="white" stroke="black" points="164,-112.5 164,-131.5 224,-131.5 224,-112.5 164,-112.5"/>
<text text-anchor="middle" x="194" y="-119.5" font-family="Helvetica,sans-Serif" font-size="10.00">YAIP++.h</text>
</a>
</g>
</g>
<!-- Node1&#45;&gt;Node2 -->
<g id="edge1" class="edge"><title>Node1&#45;&gt;Node2</title>
<path fill="none" stroke="midnightblue" d="M249.7,-168.781C238.545,-159.613 224.046,-147.696 212.638,-138.319"/>
<polygon fill="midnightblue" stroke="midnightblue" points="214.57,-135.376 204.622,-131.731 210.125,-140.784 214.57,-135.376"/>
</g>
<!-- Node10 -->
<g id="node10" class="node"><title>Node10</title>
<polygon fill="white" stroke="#bfbfbf" points="242,-112.5 242,-131.5 292,-131.5 292,-112.5 242,-112.5"/>
<text text-anchor="middle" x="267" y="-119.5" font-family="Helvetica,sans-Serif" font-size="10.00">fstream</text>
</g>
<!-- Node1&#45;&gt;Node10 -->
<g id="edge9" class="edge"><title>Node1&#45;&gt;Node10</title>
<path fill="none" stroke="midnightblue" d="M267,-168.781C267,-160.781 267,-150.689 267,-142.017"/>
<polygon fill="midnightblue" stroke="midnightblue" points="270.5,-141.73 267,-131.731 263.5,-141.731 270.5,-141.73"/>
</g>
<!-- Node11 -->
<g id="node11" class="node"><title>Node11</title>
<polygon fill="white" stroke="#bfbfbf" points="310,-112.5 310,-131.5 362,-131.5 362,-112.5 310,-112.5"/>
<text text-anchor="middle" x="336" y="-119.5" font-family="Helvetica,sans-Serif" font-size="10.00">sstream</text>
</g>
<!-- Node1&#45;&gt;Node11 -->
<g id="edge10" class="edge"><title>Node1&#45;&gt;Node11</title>
<path fill="none" stroke="midnightblue" d="M283.352,-168.781C293.895,-159.613 307.6,-147.696 318.384,-138.319"/>
<polygon fill="midnightblue" stroke="midnightblue" points="320.71,-140.933 325.96,-131.731 316.117,-135.651 320.71,-140.933"/>
</g>
<!-- Node3 -->
<g id="node3" class="node"><title>Node3</title>
<g id="a_node3"><a xlink:href="../../d4/dee/a00008.html" target="_top" xlink:title="Basic definitions for YAIP++. ">
<polygon fill="white" stroke="black" points="114.5,-56.5 114.5,-75.5 195.5,-75.5 195.5,-56.5 114.5,-56.5"/>
<text text-anchor="middle" x="155" y="-63.5" font-family="Helvetica,sans-Serif" font-size="10.00">YAIP++Data.h</text>
</a>
</g>
</g>
<!-- Node2&#45;&gt;Node3 -->
<g id="edge2" class="edge"><title>Node2&#45;&gt;Node3</title>
<path fill="none" stroke="midnightblue" d="M187.56,-112.083C182.051,-104.455 173.969,-93.2645 167.235,-83.9408"/>
<polygon fill="midnightblue" stroke="midnightblue" points="170.013,-81.8087 161.32,-75.7511 164.338,-85.9071 170.013,-81.8087"/>
</g>
<!-- Node9 -->
<g id="node9" class="node"><title>Node9</title>
<polygon fill="white" stroke="#bfbfbf" points="213.5,-56.5 213.5,-75.5 254.5,-75.5 254.5,-56.5 213.5,-56.5"/>
<text text-anchor="middle" x="234" y="-63.5" font-family="Helvetica,sans-Serif" font-size="10.00">regex</text>
</g>
<!-- Node2&#45;&gt;Node9 -->
<g id="edge8" class="edge"><title>Node2&#45;&gt;Node9</title>
<path fill="none" stroke="midnightblue" d="M200.605,-112.083C206.255,-104.455 214.545,-93.2645 221.451,-83.9408"/>
<polygon fill="midnightblue" stroke="midnightblue" points="224.378,-85.87 227.518,-75.7511 218.753,-81.7034 224.378,-85.87"/>
</g>
<!-- Node4 -->
<g id="node4" class="node"><title>Node4</title>
<polygon fill="white" stroke="#bfbfbf" points="-0.5,-0.5 -0.5,-19.5 58.5,-19.5 58.5,-0.5 -0.5,-0.5"/>
<text text-anchor="middle" x="29" y="-7.5" font-family="Helvetica,sans-Serif" font-size="10.00">functional</text>
</g>
<!-- Node3&#45;&gt;Node4 -->
<g id="edge3" class="edge"><title>Node3&#45;&gt;Node4</title>
<path fill="none" stroke="midnightblue" d="M135.035,-56.4435C114.391,-47.5961 81.9375,-33.6875 58.3684,-23.5865"/>
<polygon fill="midnightblue" stroke="midnightblue" points="59.4419,-20.2387 48.8717,-19.5164 56.6844,-26.6727 59.4419,-20.2387"/>
</g>
<!-- Node5 -->
<g id="node5" class="node"><title>Node5</title>
<polygon fill="white" stroke="#bfbfbf" points="77,-0.5 77,-19.5 119,-19.5 119,-0.5 77,-0.5"/>
<text text-anchor="middle" x="98" y="-7.5" font-family="Helvetica,sans-Serif" font-size="10.00">locale</text>
</g>
<!-- Node3&#45;&gt;Node5 -->
<g id="edge4" class="edge"><title>Node3&#45;&gt;Node5</title>
<path fill="none" stroke="midnightblue" d="M145.842,-56.324C137.499,-48.4196 124.968,-36.5482 114.823,-26.9377"/>
<polygon fill="midnightblue" stroke="midnightblue" points="116.991,-24.1705 107.325,-19.8339 112.177,-29.2522 116.991,-24.1705"/>
</g>
<!-- Node6 -->
<g id="node6" class="node"><title>Node6</title>
<polygon fill="white" stroke="#bfbfbf" points="137.5,-0.5 137.5,-19.5 172.5,-19.5 172.5,-0.5 137.5,-0.5"/>
<text text-anchor="middle" x="155" y="-7.5" font-family="Helvetica,sans-Serif" font-size="10.00">map</text>
</g>
<!-- Node3&#45;&gt;Node6 -->
<g id="edge5" class="edge"><title>Node3&#45;&gt;Node6</title>
<path fill="none" stroke="midnightblue" d="M155,-56.083C155,-49.0059 155,-38.8611 155,-29.9865"/>
<polygon fill="midnightblue" stroke="midnightblue" points="158.5,-29.751 155,-19.7511 151.5,-29.7511 158.5,-29.751"/>
</g>
<!-- Node7 -->
<g id="node7" class="node"><title>Node7</title>
<polygon fill="white" stroke="#bfbfbf" points="191,-0.5 191,-19.5 235,-19.5 235,-0.5 191,-0.5"/>
<text text-anchor="middle" x="213" y="-7.5" font-family="Helvetica,sans-Serif" font-size="10.00">vector</text>
</g>
<!-- Node3&#45;&gt;Node7 -->
<g id="edge6" class="edge"><title>Node3&#45;&gt;Node7</title>
<path fill="none" stroke="midnightblue" d="M164.319,-56.324C172.893,-48.3414 185.812,-36.3128 196.188,-26.6529"/>
<polygon fill="midnightblue" stroke="midnightblue" points="198.578,-29.2098 203.512,-19.8339 193.808,-24.0865 198.578,-29.2098"/>
</g>
<!-- Node8 -->
<g id="node8" class="node"><title>Node8</title>
<polygon fill="white" stroke="#bfbfbf" points="253.5,-0.5 253.5,-19.5 294.5,-19.5 294.5,-0.5 253.5,-0.5"/>
<text text-anchor="middle" x="274" y="-7.5" font-family="Helvetica,sans-Serif" font-size="10.00">string</text>
</g>
<!-- Node3&#45;&gt;Node8 -->
<g id="edge7" class="edge"><title>Node3&#45;&gt;Node8</title>
<path fill="none" stroke="midnightblue" d="M173.856,-56.4435C193.266,-47.6356 223.73,-33.8116 245.965,-23.722"/>
<polygon fill="midnightblue" stroke="midnightblue" points="247.572,-26.836 255.232,-19.5164 244.68,-20.4615 247.572,-26.836"/>
</g>
</g>
</svg>
