<?xml version="1.0" encoding="UTF-8" standalone="no"?>
<!DOCTYPE svg PUBLIC "-//W3C//DTD SVG 1.1//EN"
 "http://www.w3.org/Graphics/SVG/1.1/DTD/svg11.dtd">
<!-- Generated by graphviz version 2.38.0 (20140413.2041)
 -->
<!-- Title: D:/Workspaces/GitHub/YAIP/src/YAIP++Data.h Pages: 1 -->
<svg width="293pt" height="95pt"
 viewBox="0.00 0.00 292.50 95.00" xmlns="http://www.w3.org/2000/svg" xmlns:xlink="http://www.w3.org/1999/xlink">
<g id="graph0" class="graph" transform="scale(1 1) rotate(0) translate(4 91)">
<title>D:/Workspaces/GitHub/YAIP/src/YAIP++Data.h</title>
<polygon fill="white" stroke="none" points="-4,4 -4,-91 288.5,-91 288.5,4 -4,4"/>
<!-- Node0 -->
<g id="node1" class="node"><title>Node0</title>
<polygon fill="#bfbfbf" stroke="black" points="82,-56.5 82,-86.5 207,-86.5 207,-56.5 82,-56.5"/>
<text text-anchor="start" x="90" y="-74.5" font-family="Helvetica,sans-Serif" font-size="10.00">D:/Workspaces/GitHub</text>
<text text-anchor="middle" x="144.5" y="-63.5" font-family="Helvetica,sans-Serif" font-size="10.00">/YAIP/src/YAIP++Data.h</text>
</g>
<!-- Node1 -->
<g id="node2" class="node"><title>Node1</title>
<polygon fill="white" stroke="#bfbfbf" points="0,-0.5 0,-19.5 35,-19.5 35,-0.5 0,-0.5"/>
<text text-anchor="middle" x="17.5" y="-7.5" font-family="Helvetica,sans-Serif" font-size="10.00">map</text>
</g>
<!-- Node0&#45;&gt;Node1 -->
<g id="edge1" class="edge"><title>Node0&#45;&gt;Node1</title>
<path fill="none" stroke="midnightblue" d="M114.403,-56.3993C93.1265,-46.4313 64.856,-33.1865 44.345,-23.577"/>
<polygon fill="midnightblue" stroke="midnightblue" points="45.7827,-20.3855 35.2423,-19.3124 42.8129,-26.7243 45.7827,-20.3855"/>
</g>
<!-- Node2 -->
<g id="node3" class="node"><title>Node2</title>
<polygon fill="white" stroke="#bfbfbf" points="53.5,-0.5 53.5,-19.5 105.5,-19.5 105.5,-0.5 53.5,-0.5"/>
<text text-anchor="middle" x="79.5" y="-7.5" font-family="Helvetica,sans-Serif" font-size="10.00">memory</text>
</g>
<!-- Node0&#45;&gt;Node2 -->
<g id="edge2" class="edge"><title>Node0&#45;&gt;Node2</title>
<path fill="none" stroke="midnightblue" d="M129.096,-56.3993C119.261,-47.3967 106.507,-35.7214 96.3947,-26.4652"/>
<polygon fill="midnightblue" stroke="midnightblue" points="98.6976,-23.8282 88.9581,-19.6578 93.9711,-28.9916 98.6976,-23.8282"/>
</g>
<!-- Node3 -->
<g id="node4" class="node"><title>Node3</title>
<polygon fill="white" stroke="#bfbfbf" points="124,-0.5 124,-19.5 165,-19.5 165,-0.5 124,-0.5"/>
<text text-anchor="middle" x="144.5" y="-7.5" font-family="Helvetica,sans-Serif" font-size="10.00">regex</text>
</g>
<!-- Node0&#45;&gt;Node3 -->
<g id="edge3" class="edge"><title>Node0&#45;&gt;Node3</title>
<path fill="none" stroke="midnightblue" d="M144.5,-56.3993C144.5,-48.4664 144.5,-38.458 144.5,-29.8583"/>
<polygon fill="midnightblue" stroke="midnightblue" points="148,-29.6577 144.5,-19.6578 141,-29.6578 148,-29.6577"/>
</g>
<!-- Node4 -->
<g id="node5" class="node"><title>Node4</title>
<polygon fill="white" stroke="#bfbfbf" points="183,-0.5 183,-19.5 224,-19.5 224,-0.5 183,-0.5"/>
<text text-anchor="middle" x="203.5" y="-7.5" font-family="Helvetica,sans-Serif" font-size="10.00">string</text>
</g>
<!-- Node0&#45;&gt;Node4 -->
<g id="edge4" class="edge"><title>Node0&#45;&gt;Node4</title>
<path fill="none" stroke="midnightblue" d="M158.482,-56.3993C167.232,-47.575 178.529,-36.1827 187.617,-27.0178"/>
<polygon fill="midnightblue" stroke="midnightblue" points="190.359,-29.2231 194.915,-19.6578 185.388,-24.2942 190.359,-29.2231"/>
</g>
<!-- Node5 -->
<g id="node6" class="node"><title>Node5</title>
<polygon fill="white" stroke="#bfbfbf" points="242.5,-0.5 242.5,-19.5 284.5,-19.5 284.5,-0.5 242.5,-0.5"/>
<text text-anchor="middle" x="263.5" y="-7.5" font-family="Helvetica,sans-Serif" font-size="10.00">vector</text>
</g>
<!-- Node0&#45;&gt;Node5 -->
<g id="edge5" class="edge"><title>Node0&#45;&gt;Node5</title>
<path fill="none" stroke="midnightblue" d="M172.701,-56.3993C192.222,-46.6391 218.025,-33.7373 237.135,-24.1826"/>
<polygon fill="midnightblue" stroke="midnightblue" points="238.805,-27.2605 246.184,-19.6578 235.675,-20.9995 238.805,-27.2605"/>
</g>
</g>
</svg>
