<?xml version="1.0" encoding="UTF-8" standalone="no"?>
<!DOCTYPE svg PUBLIC "-//W3C//DTD SVG 1.1//EN"
 "http://www.w3.org/Graphics/SVG/1.1/DTD/svg11.dtd">
<!-- Generated by graphviz version 2.38.0 (20140413.2041)
 -->
<!-- Title: C:/Dokumente_JPA/OneDrive/YAIP/src/YAIP++.h Pages: 1 -->
<svg width="314pt" height="106pt"
 viewBox="0.00 0.00 314.00 106.00" xmlns="http://www.w3.org/2000/svg" xmlns:xlink="http://www.w3.org/1999/xlink">
<g id="graph0" class="graph" transform="scale(1 1) rotate(0) translate(4 102)">
<title>C:/Dokumente_JPA/OneDrive/YAIP/src/YAIP++.h</title>
<polygon fill="white" stroke="none" points="-4,4 -4,-102 310,-102 310,4 -4,4"/>
<!-- Node1 -->
<g id="node1" class="node"><title>Node1</title>
<polygon fill="#bfbfbf" stroke="black" points="81,-67.5 81,-97.5 225,-97.5 225,-67.5 81,-67.5"/>
<text text-anchor="start" x="89" y="-85.5" font-family="Helvetica,sans-Serif" font-size="10.00">C:/Dokumente_JPA/OneDrive</text>
<text text-anchor="middle" x="153" y="-74.5" font-family="Helvetica,sans-Serif" font-size="10.00">/YAIP/src/YAIP++.h</text>
</g>
<!-- Node2 -->
<g id="node2" class="node"><title>Node2</title>
<g id="a_node2"><a xlink:href="../../dd/dad/a00005_source.html" target="_top" xlink:title="C:/Dokumente_JPA/OneDrive\l/YAIP/src/main.cpp">
<polygon fill="white" stroke="black" points="0,-0.5 0,-30.5 144,-30.5 144,-0.5 0,-0.5"/>
<text text-anchor="start" x="8" y="-18.5" font-family="Helvetica,sans-Serif" font-size="10.00">C:/Dokumente_JPA/OneDrive</text>
<text text-anchor="middle" x="72" y="-7.5" font-family="Helvetica,sans-Serif" font-size="10.00">/YAIP/src/main.cpp</text>
</a>
</g>
</g>
<!-- Node1&#45;&gt;Node2 -->
<g id="edge1" class="edge"><title>Node1&#45;&gt;Node2</title>
<path fill="none" stroke="midnightblue" d="M127.308,-60.8832C114.999,-51.0054 100.573,-39.4293 89.5415,-30.5765"/>
<polygon fill="midnightblue" stroke="midnightblue" points="125.434,-63.867 135.424,-67.396 129.815,-58.4075 125.434,-63.867"/>
</g>
<!-- Node3 -->
<g id="node3" class="node"><title>Node3</title>
<g id="a_node3"><a xlink:href="../../de/d21/a00006.html" target="_top" xlink:title="Implementation of Yet Another INI Parser. ">
<polygon fill="white" stroke="black" points="162,-0.5 162,-30.5 306,-30.5 306,-0.5 162,-0.5"/>
<text text-anchor="start" x="170" y="-18.5" font-family="Helvetica,sans-Serif" font-size="10.00">C:/Dokumente_JPA/OneDrive</text>
<text text-anchor="middle" x="234" y="-7.5" font-family="Helvetica,sans-Serif" font-size="10.00">/YAIP/src/YAIP++.cpp</text>
</a>
</g>
</g>
<!-- Node1&#45;&gt;Node3 -->
<g id="edge2" class="edge"><title>Node1&#45;&gt;Node3</title>
<path fill="none" stroke="midnightblue" d="M178.692,-60.8832C191.001,-51.0054 205.427,-39.4293 216.459,-30.5765"/>
<polygon fill="midnightblue" stroke="midnightblue" points="176.185,-58.4075 170.576,-67.396 180.566,-63.867 176.185,-58.4075"/>
</g>
</g>
</svg>
