<?xml version="1.0" encoding="UTF-8" standalone="no"?>
<!DOCTYPE svg PUBLIC "-//W3C//DTD SVG 1.1//EN"
 "http://www.w3.org/Graphics/SVG/1.1/DTD/svg11.dtd">
<!-- Generated by graphviz version 2.38.0 (20140413.2041)
 -->
<!-- Title: YAIP::StringCompareCaseLess Pages: 1 -->
<svg width="161pt" height="182pt"
 viewBox="0.00 0.00 161.00 182.00" xmlns="http://www.w3.org/2000/svg" xmlns:xlink="http://www.w3.org/1999/xlink">
<g id="graph0" class="graph" transform="scale(1 1) rotate(0) translate(4 178)">
<title>YAIP::StringCompareCaseLess</title>
<polygon fill="white" stroke="none" points="-4,4 -4,-178 157,-178 157,4 -4,4"/>
<!-- Node0 -->
<g id="node1" class="node"><title>Node0</title>
<polygon fill="#bfbfbf" stroke="black" points="0,-0.5 0,-57.5 153,-57.5 153,-0.5 0,-0.5"/>
<text text-anchor="middle" x="76.5" y="-45.5" font-family="Helvetica,sans-Serif" font-size="10.00">YAIP::StringCompareCaseLess</text>
<polyline fill="none" stroke="black" points="0,-38.5 153,-38.5 "/>
<text text-anchor="middle" x="76.5" y="-26.5" font-family="Helvetica,sans-Serif" font-size="10.00"> </text>
<polyline fill="none" stroke="black" points="0,-19.5 153,-19.5 "/>
<text text-anchor="start" x="8" y="-7.5" font-family="Helvetica,sans-Serif" font-size="10.00">+ operator()()</text>
</g>
<!-- Node1 -->
<g id="node2" class="node"><title>Node1</title>
<polygon fill="white" stroke="#bfbfbf" points="15.5,-94.5 15.5,-173.5 137.5,-173.5 137.5,-94.5 15.5,-94.5"/>
<text text-anchor="start" x="23.5" y="-161.5" font-family="Helvetica,sans-Serif" font-size="10.00">std::binary_function</text>
<text text-anchor="start" x="23.5" y="-150.5" font-family="Helvetica,sans-Serif" font-size="10.00">&lt; std::string, std::string,</text>
<text text-anchor="middle" x="76.5" y="-139.5" font-family="Helvetica,sans-Serif" font-size="10.00"> bool &gt;</text>
<polyline fill="none" stroke="#bfbfbf" points="15.5,-132.5 137.5,-132.5 "/>
<text text-anchor="middle" x="76.5" y="-120.5" font-family="Helvetica,sans-Serif" font-size="10.00"> </text>
<polyline fill="none" stroke="#bfbfbf" points="15.5,-113.5 137.5,-113.5 "/>
<text text-anchor="middle" x="76.5" y="-101.5" font-family="Helvetica,sans-Serif" font-size="10.00"> </text>
</g>
<!-- Node1&#45;&gt;Node0 -->
<g id="edge1" class="edge"><title>Node1&#45;&gt;Node0</title>
<path fill="none" stroke="midnightblue" d="M76.5,-84.1628C76.5,-75.0404 76.5,-65.8063 76.5,-57.6095"/>
<polygon fill="none" stroke="midnightblue" points="73.0001,-84.3535 76.5,-94.3536 80.0001,-84.3536 73.0001,-84.3535"/>
</g>
</g>
</svg>
