<?xml version="1.0" encoding="UTF-8" standalone="no"?>
<!DOCTYPE svg PUBLIC "-//W3C//DTD SVG 1.1//EN"
 "http://www.w3.org/Graphics/SVG/1.1/DTD/svg11.dtd">
<!-- Generated by graphviz version 2.36.0 (20140111.2315)
 -->
<!-- Title: /home/jochen/Work/YAIP/src/YAIP++Data.h Pages: 1 -->
<svg width="282pt" height="176pt"
 viewBox="0.00 0.00 282.00 176.00" xmlns="http://www.w3.org/2000/svg" xmlns:xlink="http://www.w3.org/1999/xlink">
<g id="graph0" class="graph" transform="scale(1 1) rotate(0) translate(4 172)">
<title>/home/jochen/Work/YAIP/src/YAIP++Data.h</title>
<polygon fill="white" stroke="none" points="-4,4 -4,-172 278,-172 278,4 -4,4"/>
<!-- Node1 -->
<g id="node1" class="node"><title>Node1</title>
<polygon fill="#bfbfbf" stroke="black" points="73,-137 73,-167 201,-167 201,-137 73,-137"/>
<text text-anchor="start" x="81" y="-155" font-family="Helvetica,sans-Serif" font-size="10.00">/home/jochen/Work/YAIP</text>
<text text-anchor="middle" x="137" y="-144" font-family="Helvetica,sans-Serif" font-size="10.00">/src/YAIP++Data.h</text>
</g>
<!-- Node2 -->
<g id="node2" class="node"><title>Node2</title>
<g id="a_node2"><a xlink:href="../../de/d5e/a00007.html" target="_top" xlink:title="Header of Yet Another INI Parser. ">
<polygon fill="white" stroke="black" points="73,-69 73,-99 201,-99 201,-69 73,-69"/>
<text text-anchor="start" x="81" y="-87" font-family="Helvetica,sans-Serif" font-size="10.00">/home/jochen/Work/YAIP</text>
<text text-anchor="middle" x="137" y="-76" font-family="Helvetica,sans-Serif" font-size="10.00">/src/YAIP++.h</text>
</a>
</g>
</g>
<!-- Node1&#45;&gt;Node2 -->
<g id="edge1" class="edge"><title>Node1&#45;&gt;Node2</title>
<path fill="none" stroke="midnightblue" d="M137,-126.532C137,-117.361 137,-107.245 137,-99.2931"/>
<polygon fill="midnightblue" stroke="midnightblue" points="133.5,-126.679 137,-136.679 140.5,-126.679 133.5,-126.679"/>
</g>
<!-- Node3 -->
<g id="node3" class="node"><title>Node3</title>
<g id="a_node3"><a xlink:href="../../dd/dad/a00005_source.html" target="_top" xlink:title="/home/jochen/Work/YAIP\l/src/main.cpp">
<polygon fill="white" stroke="black" points="0,-1 0,-31 128,-31 128,-1 0,-1"/>
<text text-anchor="start" x="8" y="-19" font-family="Helvetica,sans-Serif" font-size="10.00">/home/jochen/Work/YAIP</text>
<text text-anchor="middle" x="64" y="-8" font-family="Helvetica,sans-Serif" font-size="10.00">/src/main.cpp</text>
</a>
</g>
</g>
<!-- Node2&#45;&gt;Node3 -->
<g id="edge2" class="edge"><title>Node2&#45;&gt;Node3</title>
<path fill="none" stroke="midnightblue" d="M113.47,-61.7265C102.366,-51.687 89.4206,-39.9831 79.5582,-31.0663"/>
<polygon fill="midnightblue" stroke="midnightblue" points="111.395,-64.5687 121.16,-68.679 116.09,-59.3763 111.395,-64.5687"/>
</g>
<!-- Node4 -->
<g id="node4" class="node"><title>Node4</title>
<g id="a_node4"><a xlink:href="../../de/d21/a00006.html" target="_top" xlink:title="Implementation of Yet Another INI Parser. ">
<polygon fill="white" stroke="black" points="146,-1 146,-31 274,-31 274,-1 146,-1"/>
<text text-anchor="start" x="154" y="-19" font-family="Helvetica,sans-Serif" font-size="10.00">/home/jochen/Work/YAIP</text>
<text text-anchor="middle" x="210" y="-8" font-family="Helvetica,sans-Serif" font-size="10.00">/src/YAIP++.cpp</text>
</a>
</g>
</g>
<!-- Node2&#45;&gt;Node4 -->
<g id="edge3" class="edge"><title>Node2&#45;&gt;Node4</title>
<path fill="none" stroke="midnightblue" d="M160.53,-61.7265C171.634,-51.687 184.579,-39.9831 194.442,-31.0663"/>
<polygon fill="midnightblue" stroke="midnightblue" points="157.91,-59.3763 152.84,-68.679 162.605,-64.5687 157.91,-59.3763"/>
</g>
</g>
</svg>
