<?xml version="1.0" encoding="UTF-8" standalone="no"?>
<!DOCTYPE svg PUBLIC "-//W3C//DTD SVG 1.1//EN"
 "http://www.w3.org/Graphics/SVG/1.1/DTD/svg11.dtd">
<!-- Generated by graphviz version 2.38.0 (20140413.2041)
 -->
<!-- Title: C:/Dokumente_JPA/Workspaces/GitHub/YAIP/src/YAIP++.cpp Pages: 1 -->
<svg width="339pt" height="207pt"
 viewBox="0.00 0.00 339.00 207.00" xmlns="http://www.w3.org/2000/svg" xmlns:xlink="http://www.w3.org/1999/xlink">
<g id="graph0" class="graph" transform="scale(1 1) rotate(0) translate(4 203)">
<title>C:/Dokumente_JPA/Workspaces/GitHub/YAIP/src/YAIP++.cpp</title>
<polygon fill="white" stroke="none" points="-4,4 -4,-203 335,-203 335,4 -4,4"/>
<!-- Node1 -->
<g id="node1" class="node"><title>Node1</title>
<polygon fill="#bfbfbf" stroke="black" points="156,-168.5 156,-198.5 316,-198.5 316,-168.5 156,-168.5"/>
<text text-anchor="start" x="164" y="-186.5" font-family="Helvetica,sans-Serif" font-size="10.00">C:/Dokumente_JPA/Workspaces</text>
<text text-anchor="middle" x="236" y="-175.5" font-family="Helvetica,sans-Serif" font-size="10.00">/GitHub/YAIP/src/YAIP++.cpp</text>
</g>
<!-- Node2 -->
<g id="node2" class="node"><title>Node2</title>
<g id="a_node2"><a xlink:href="../../d4/dee/a00008.html" target="_top" xlink:title="Header of Yet Another INI Parser. ">
<polygon fill="white" stroke="black" points="134.5,-112.5 134.5,-131.5 193.5,-131.5 193.5,-112.5 134.5,-112.5"/>
<text text-anchor="middle" x="164" y="-119.5" font-family="Helvetica,sans-Serif" font-size="10.00">YAIP++.h</text>
</a>
</g>
</g>
<!-- Node1&#45;&gt;Node2 -->
<g id="edge1" class="edge"><title>Node1&#45;&gt;Node2</title>
<path fill="none" stroke="midnightblue" d="M218.937,-168.399C207.935,-159.308 193.635,-147.49 182.382,-138.191"/>
<polygon fill="midnightblue" stroke="midnightblue" points="184.415,-135.33 174.477,-131.658 179.956,-140.726 184.415,-135.33"/>
</g>
<!-- Node9 -->
<g id="node9" class="node"><title>Node9</title>
<polygon fill="white" stroke="#bfbfbf" points="211.5,-112.5 211.5,-131.5 260.5,-131.5 260.5,-112.5 211.5,-112.5"/>
<text text-anchor="middle" x="236" y="-119.5" font-family="Helvetica,sans-Serif" font-size="10.00">fstream</text>
</g>
<!-- Node1&#45;&gt;Node9 -->
<g id="edge8" class="edge"><title>Node1&#45;&gt;Node9</title>
<path fill="none" stroke="midnightblue" d="M236,-168.399C236,-160.466 236,-150.458 236,-141.858"/>
<polygon fill="midnightblue" stroke="midnightblue" points="239.5,-141.658 236,-131.658 232.5,-141.658 239.5,-141.658"/>
</g>
<!-- Node10 -->
<g id="node10" class="node"><title>Node10</title>
<polygon fill="white" stroke="#bfbfbf" points="279,-112.5 279,-131.5 331,-131.5 331,-112.5 279,-112.5"/>
<text text-anchor="middle" x="305" y="-119.5" font-family="Helvetica,sans-Serif" font-size="10.00">sstream</text>
</g>
<!-- Node1&#45;&gt;Node10 -->
<g id="edge9" class="edge"><title>Node1&#45;&gt;Node10</title>
<path fill="none" stroke="midnightblue" d="M252.352,-168.399C262.895,-159.308 276.6,-147.49 287.384,-138.191"/>
<polygon fill="midnightblue" stroke="midnightblue" points="289.672,-140.839 294.96,-131.658 285.101,-135.538 289.672,-140.839"/>
</g>
<!-- Node3 -->
<g id="node3" class="node"><title>Node3</title>
<g id="a_node3"><a xlink:href="../../da/da0/a00009.html" target="_top" xlink:title="Basic definitions for YAIP++. ">
<polygon fill="white" stroke="black" points="85,-56.5 85,-75.5 165,-75.5 165,-56.5 85,-56.5"/>
<text text-anchor="middle" x="125" y="-63.5" font-family="Helvetica,sans-Serif" font-size="10.00">YAIP++Data.h</text>
</a>
</g>
</g>
<!-- Node2&#45;&gt;Node3 -->
<g id="edge2" class="edge"><title>Node2&#45;&gt;Node3</title>
<path fill="none" stroke="midnightblue" d="M157.56,-112.083C152.051,-104.455 143.969,-93.2645 137.235,-83.9408"/>
<polygon fill="midnightblue" stroke="midnightblue" points="140.013,-81.8087 131.32,-75.7511 134.338,-85.9071 140.013,-81.8087"/>
</g>
<!-- Node8 -->
<g id="node8" class="node"><title>Node8</title>
<polygon fill="white" stroke="#bfbfbf" points="183.5,-56.5 183.5,-75.5 224.5,-75.5 224.5,-56.5 183.5,-56.5"/>
<text text-anchor="middle" x="204" y="-63.5" font-family="Helvetica,sans-Serif" font-size="10.00">regex</text>
</g>
<!-- Node2&#45;&gt;Node8 -->
<g id="edge7" class="edge"><title>Node2&#45;&gt;Node8</title>
<path fill="none" stroke="midnightblue" d="M170.605,-112.083C176.255,-104.455 184.545,-93.2645 191.451,-83.9408"/>
<polygon fill="midnightblue" stroke="midnightblue" points="194.378,-85.87 197.518,-75.7511 188.753,-81.7034 194.378,-85.87"/>
</g>
<!-- Node4 -->
<g id="node4" class="node"><title>Node4</title>
<polygon fill="white" stroke="#bfbfbf" points="0,-0.5 0,-19.5 58,-19.5 58,-0.5 0,-0.5"/>
<text text-anchor="middle" x="29" y="-7.5" font-family="Helvetica,sans-Serif" font-size="10.00">functional</text>
</g>
<!-- Node3&#45;&gt;Node4 -->
<g id="edge3" class="edge"><title>Node3&#45;&gt;Node4</title>
<path fill="none" stroke="midnightblue" d="M109.576,-56.324C94.4605,-47.8215 71.1846,-34.7288 53.5288,-24.7975"/>
<polygon fill="midnightblue" stroke="midnightblue" points="54.8175,-21.5066 44.3858,-19.6545 51.3856,-27.6077 54.8175,-21.5066"/>
</g>
<!-- Node5 -->
<g id="node5" class="node"><title>Node5</title>
<polygon fill="white" stroke="#bfbfbf" points="76,-0.5 76,-19.5 118,-19.5 118,-0.5 76,-0.5"/>
<text text-anchor="middle" x="97" y="-7.5" font-family="Helvetica,sans-Serif" font-size="10.00">locale</text>
</g>
<!-- Node3&#45;&gt;Node5 -->
<g id="edge4" class="edge"><title>Node3&#45;&gt;Node5</title>
<path fill="none" stroke="midnightblue" d="M120.376,-56.083C116.544,-48.6913 110.976,-37.9533 106.235,-28.8111"/>
<polygon fill="midnightblue" stroke="midnightblue" points="109.248,-27.0175 101.538,-19.7511 103.034,-30.2398 109.248,-27.0175"/>
</g>
<!-- Node6 -->
<g id="node6" class="node"><title>Node6</title>
<polygon fill="white" stroke="#bfbfbf" points="136.5,-0.5 136.5,-19.5 171.5,-19.5 171.5,-0.5 136.5,-0.5"/>
<text text-anchor="middle" x="154" y="-7.5" font-family="Helvetica,sans-Serif" font-size="10.00">map</text>
</g>
<!-- Node3&#45;&gt;Node6 -->
<g id="edge5" class="edge"><title>Node3&#45;&gt;Node6</title>
<path fill="none" stroke="midnightblue" d="M129.789,-56.083C133.758,-48.6913 139.525,-37.9533 144.435,-28.8111"/>
<polygon fill="midnightblue" stroke="midnightblue" points="147.653,-30.217 149.3,-19.7511 141.486,-26.9051 147.653,-30.217"/>
</g>
<!-- Node7 -->
<g id="node7" class="node"><title>Node7</title>
<polygon fill="white" stroke="#bfbfbf" points="190,-0.5 190,-19.5 232,-19.5 232,-0.5 190,-0.5"/>
<text text-anchor="middle" x="211" y="-7.5" font-family="Helvetica,sans-Serif" font-size="10.00">vector</text>
</g>
<!-- Node3&#45;&gt;Node7 -->
<g id="edge6" class="edge"><title>Node3&#45;&gt;Node7</title>
<path fill="none" stroke="midnightblue" d="M138.817,-56.324C152.233,-47.9002 172.824,-34.9709 188.586,-25.0741"/>
<polygon fill="midnightblue" stroke="midnightblue" points="190.609,-27.9364 197.217,-19.6545 186.887,-22.0081 190.609,-27.9364"/>
</g>
</g>
</svg>
