<?xml version="1.0" encoding="UTF-8" standalone="no"?>
<!DOCTYPE svg PUBLIC "-//W3C//DTD SVG 1.1//EN"
 "http://www.w3.org/Graphics/SVG/1.1/DTD/svg11.dtd">
<!-- Generated by graphviz version 2.36.0 (20140111.2315)
 -->
<!-- Title: /home/jochen/Work/YAIP/src/YAIP++.h Pages: 1 -->
<svg width="302pt" height="152pt"
 viewBox="0.00 0.00 302.00 152.00" xmlns="http://www.w3.org/2000/svg" xmlns:xlink="http://www.w3.org/1999/xlink">
<g id="graph0" class="graph" transform="scale(1 1) rotate(0) translate(4 148)">
<title>/home/jochen/Work/YAIP/src/YAIP++.h</title>
<polygon fill="white" stroke="none" points="-4,4 -4,-148 298,-148 298,4 -4,4"/>
<!-- Node1 -->
<g id="node1" class="node"><title>Node1</title>
<polygon fill="#bfbfbf" stroke="black" points="130,-113 130,-143 258,-143 258,-113 130,-113"/>
<text text-anchor="start" x="138" y="-131" font-family="Helvetica,sans-Serif" font-size="10.00">/home/jochen/Work/YAIP</text>
<text text-anchor="middle" x="194" y="-120" font-family="Helvetica,sans-Serif" font-size="10.00">/src/YAIP++.h</text>
</g>
<!-- Node2 -->
<g id="node2" class="node"><title>Node2</title>
<g id="a_node2"><a xlink:href="../../d4/dee/a00008.html" target="_top" xlink:title="Basic definitions for YAIP++. ">
<polygon fill="white" stroke="black" points="114.5,-56.5 114.5,-75.5 195.5,-75.5 195.5,-56.5 114.5,-56.5"/>
<text text-anchor="middle" x="155" y="-63.5" font-family="Helvetica,sans-Serif" font-size="10.00">YAIP++Data.h</text>
</a>
</g>
</g>
<!-- Node1&#45;&gt;Node2 -->
<g id="edge1" class="edge"><title>Node1&#45;&gt;Node2</title>
<path fill="none" stroke="midnightblue" d="M184.758,-112.781C179.207,-104.242 172.107,-93.3184 166.234,-84.2834"/>
<polygon fill="midnightblue" stroke="midnightblue" points="169.059,-82.2075 160.675,-75.7305 163.19,-86.0225 169.059,-82.2075"/>
</g>
<!-- Node8 -->
<g id="node8" class="node"><title>Node8</title>
<polygon fill="white" stroke="#bfbfbf" points="213.5,-56.5 213.5,-75.5 254.5,-75.5 254.5,-56.5 213.5,-56.5"/>
<text text-anchor="middle" x="234" y="-63.5" font-family="Helvetica,sans-Serif" font-size="10.00">regex</text>
</g>
<!-- Node1&#45;&gt;Node8 -->
<g id="edge7" class="edge"><title>Node1&#45;&gt;Node8</title>
<path fill="none" stroke="midnightblue" d="M203.479,-112.781C209.172,-104.242 216.454,-93.3184 222.478,-84.2834"/>
<polygon fill="midnightblue" stroke="midnightblue" points="225.545,-85.9925 228.18,-75.7305 219.72,-82.1096 225.545,-85.9925"/>
</g>
<!-- Node3 -->
<g id="node3" class="node"><title>Node3</title>
<polygon fill="white" stroke="#bfbfbf" points="-0.5,-0.5 -0.5,-19.5 58.5,-19.5 58.5,-0.5 -0.5,-0.5"/>
<text text-anchor="middle" x="29" y="-7.5" font-family="Helvetica,sans-Serif" font-size="10.00">functional</text>
</g>
<!-- Node2&#45;&gt;Node3 -->
<g id="edge2" class="edge"><title>Node2&#45;&gt;Node3</title>
<path fill="none" stroke="midnightblue" d="M135.035,-56.4435C114.391,-47.5961 81.9375,-33.6875 58.3684,-23.5865"/>
<polygon fill="midnightblue" stroke="midnightblue" points="59.4419,-20.2387 48.8717,-19.5164 56.6844,-26.6727 59.4419,-20.2387"/>
</g>
<!-- Node4 -->
<g id="node4" class="node"><title>Node4</title>
<polygon fill="white" stroke="#bfbfbf" points="77,-0.5 77,-19.5 119,-19.5 119,-0.5 77,-0.5"/>
<text text-anchor="middle" x="98" y="-7.5" font-family="Helvetica,sans-Serif" font-size="10.00">locale</text>
</g>
<!-- Node2&#45;&gt;Node4 -->
<g id="edge3" class="edge"><title>Node2&#45;&gt;Node4</title>
<path fill="none" stroke="midnightblue" d="M145.842,-56.324C137.499,-48.4196 124.968,-36.5482 114.823,-26.9377"/>
<polygon fill="midnightblue" stroke="midnightblue" points="116.991,-24.1705 107.325,-19.8339 112.177,-29.2522 116.991,-24.1705"/>
</g>
<!-- Node5 -->
<g id="node5" class="node"><title>Node5</title>
<polygon fill="white" stroke="#bfbfbf" points="137.5,-0.5 137.5,-19.5 172.5,-19.5 172.5,-0.5 137.5,-0.5"/>
<text text-anchor="middle" x="155" y="-7.5" font-family="Helvetica,sans-Serif" font-size="10.00">map</text>
</g>
<!-- Node2&#45;&gt;Node5 -->
<g id="edge4" class="edge"><title>Node2&#45;&gt;Node5</title>
<path fill="none" stroke="midnightblue" d="M155,-56.083C155,-49.0059 155,-38.8611 155,-29.9865"/>
<polygon fill="midnightblue" stroke="midnightblue" points="158.5,-29.751 155,-19.7511 151.5,-29.7511 158.5,-29.751"/>
</g>
<!-- Node6 -->
<g id="node6" class="node"><title>Node6</title>
<polygon fill="white" stroke="#bfbfbf" points="191,-0.5 191,-19.5 235,-19.5 235,-0.5 191,-0.5"/>
<text text-anchor="middle" x="213" y="-7.5" font-family="Helvetica,sans-Serif" font-size="10.00">vector</text>
</g>
<!-- Node2&#45;&gt;Node6 -->
<g id="edge5" class="edge"><title>Node2&#45;&gt;Node6</title>
<path fill="none" stroke="midnightblue" d="M164.319,-56.324C172.893,-48.3414 185.812,-36.3128 196.188,-26.6529"/>
<polygon fill="midnightblue" stroke="midnightblue" points="198.578,-29.2098 203.512,-19.8339 193.808,-24.0865 198.578,-29.2098"/>
</g>
<!-- Node7 -->
<g id="node7" class="node"><title>Node7</title>
<polygon fill="white" stroke="#bfbfbf" points="253.5,-0.5 253.5,-19.5 294.5,-19.5 294.5,-0.5 253.5,-0.5"/>
<text text-anchor="middle" x="274" y="-7.5" font-family="Helvetica,sans-Serif" font-size="10.00">string</text>
</g>
<!-- Node2&#45;&gt;Node7 -->
<g id="edge6" class="edge"><title>Node2&#45;&gt;Node7</title>
<path fill="none" stroke="midnightblue" d="M173.856,-56.4435C193.266,-47.6356 223.73,-33.8116 245.965,-23.722"/>
<polygon fill="midnightblue" stroke="midnightblue" points="247.572,-26.836 255.232,-19.5164 244.68,-20.4615 247.572,-26.836"/>
</g>
</g>
</svg>
