<?xml version="1.0" encoding="UTF-8" standalone="no"?>
<!DOCTYPE svg PUBLIC "-//W3C//DTD SVG 1.1//EN"
 "http://www.w3.org/Graphics/SVG/1.1/DTD/svg11.dtd">
<!-- Generated by graphviz version 2.38.0 (20140413.2041)
 -->
<!-- Title: D:/Workspaces/GitHub/YAIP/src/YAIP++Data.h Pages: 1 -->
<svg width="260pt" height="173pt"
 viewBox="0.00 0.00 260.00 173.00" xmlns="http://www.w3.org/2000/svg" xmlns:xlink="http://www.w3.org/1999/xlink">
<g id="graph0" class="graph" transform="scale(1 1) rotate(0) translate(4 169)">
<title>D:/Workspaces/GitHub/YAIP/src/YAIP++Data.h</title>
<polygon fill="white" stroke="none" points="-4,4 -4,-169 256,-169 256,4 -4,4"/>
<!-- Node6 -->
<g id="node1" class="node"><title>Node6</title>
<polygon fill="#bfbfbf" stroke="black" points="63,-134.5 63,-164.5 188,-164.5 188,-134.5 63,-134.5"/>
<text text-anchor="start" x="71" y="-152.5" font-family="Helvetica,sans-Serif" font-size="10.00">D:/Workspaces/GitHub</text>
<text text-anchor="middle" x="125.5" y="-141.5" font-family="Helvetica,sans-Serif" font-size="10.00">/YAIP/src/YAIP++Data.h</text>
</g>
<!-- Node7 -->
<g id="node2" class="node"><title>Node7</title>
<g id="a_node2"><a xlink:href="../../d4/dee/a00008.html" target="_top" xlink:title="Header of Yet Another INI Parser. ">
<polygon fill="white" stroke="black" points="67,-67.5 67,-97.5 184,-97.5 184,-67.5 67,-67.5"/>
<text text-anchor="start" x="75" y="-85.5" font-family="Helvetica,sans-Serif" font-size="10.00">D:/Workspaces/GitHub</text>
<text text-anchor="middle" x="125.5" y="-74.5" font-family="Helvetica,sans-Serif" font-size="10.00">/YAIP/src/YAIP++.h</text>
</a>
</g>
</g>
<!-- Node6&#45;&gt;Node7 -->
<g id="edge1" class="edge"><title>Node6&#45;&gt;Node7</title>
<path fill="none" stroke="midnightblue" d="M125.5,-124.108C125.5,-115.154 125.5,-105.323 125.5,-97.5765"/>
<polygon fill="midnightblue" stroke="midnightblue" points="122,-124.396 125.5,-134.396 129,-124.396 122,-124.396"/>
</g>
<!-- Node8 -->
<g id="node3" class="node"><title>Node8</title>
<g id="a_node3"><a xlink:href="../../d7/d46/a00002_source.html" target="_top" xlink:title="D:/Workspaces/GitHub\l/YAIP/src/main.cpp">
<polygon fill="white" stroke="black" points="0,-0.5 0,-30.5 117,-30.5 117,-0.5 0,-0.5"/>
<text text-anchor="start" x="8" y="-18.5" font-family="Helvetica,sans-Serif" font-size="10.00">D:/Workspaces/GitHub</text>
<text text-anchor="middle" x="58.5" y="-7.5" font-family="Helvetica,sans-Serif" font-size="10.00">/YAIP/src/main.cpp</text>
</a>
</g>
</g>
<!-- Node7&#45;&gt;Node8 -->
<g id="edge2" class="edge"><title>Node7&#45;&gt;Node8</title>
<path fill="none" stroke="midnightblue" d="M103.66,-60.3115C93.6092,-50.5612 81.9593,-39.259 73.0096,-30.5765"/>
<polygon fill="midnightblue" stroke="midnightblue" points="101.347,-62.9449 110.962,-67.396 106.222,-57.9207 101.347,-62.9449"/>
</g>
<!-- Node9 -->
<g id="node4" class="node"><title>Node9</title>
<g id="a_node4"><a xlink:href="../../dd/dad/a00005.html" target="_top" xlink:title="Implementation of Yet Another INI Parser. ">
<polygon fill="white" stroke="black" points="135,-0.5 135,-30.5 252,-30.5 252,-0.5 135,-0.5"/>
<text text-anchor="start" x="143" y="-18.5" font-family="Helvetica,sans-Serif" font-size="10.00">D:/Workspaces/GitHub</text>
<text text-anchor="middle" x="193.5" y="-7.5" font-family="Helvetica,sans-Serif" font-size="10.00">/YAIP/src/YAIP++.cpp</text>
</a>
</g>
</g>
<!-- Node7&#45;&gt;Node9 -->
<g id="edge3" class="edge"><title>Node7&#45;&gt;Node9</title>
<path fill="none" stroke="midnightblue" d="M147.666,-60.3115C157.867,-50.5612 169.691,-39.259 178.774,-30.5765"/>
<polygon fill="midnightblue" stroke="midnightblue" points="145.065,-57.9561 140.255,-67.396 149.902,-63.0162 145.065,-57.9561"/>
</g>
</g>
</svg>
