<?xml version="1.0" encoding="UTF-8" standalone="no"?>
<!DOCTYPE svg PUBLIC "-//W3C//DTD SVG 1.1//EN"
 "http://www.w3.org/Graphics/SVG/1.1/DTD/svg11.dtd">
<!-- Generated by graphviz version 2.38.0 (20140413.2041)
 -->
<!-- Title: C:/Users/jochen.paul/Documents/GitHub/YAIP/src/YAIP++Data.h Pages: 1 -->
<svg width="293pt" height="106pt"
 viewBox="0.00 0.00 292.50 106.00" xmlns="http://www.w3.org/2000/svg" xmlns:xlink="http://www.w3.org/1999/xlink">
<g id="graph0" class="graph" transform="scale(1 1) rotate(0) translate(4 102)">
<title>C:/Users/jochen.paul/Documents/GitHub/YAIP/src/YAIP++Data.h</title>
<polygon fill="white" stroke="none" points="-4,4 -4,-102 288.5,-102 288.5,4 -4,4"/>
<!-- Node1 -->
<g id="node1" class="node"><title>Node1</title>
<polygon fill="#bfbfbf" stroke="black" points="80.5,-56.5 80.5,-97.5 208.5,-97.5 208.5,-56.5 80.5,-56.5"/>
<text text-anchor="start" x="88.5" y="-85.5" font-family="Helvetica,sans-Serif" font-size="10.00">C:/Users/jochen.paul</text>
<text text-anchor="start" x="88.5" y="-74.5" font-family="Helvetica,sans-Serif" font-size="10.00">/Documents/GitHub/YAIP</text>
<text text-anchor="middle" x="144.5" y="-63.5" font-family="Helvetica,sans-Serif" font-size="10.00">/src/YAIP++Data.h</text>
</g>
<!-- Node2 -->
<g id="node2" class="node"><title>Node2</title>
<polygon fill="white" stroke="#bfbfbf" points="0,-0.5 0,-19.5 35,-19.5 35,-0.5 0,-0.5"/>
<text text-anchor="middle" x="17.5" y="-7.5" font-family="Helvetica,sans-Serif" font-size="10.00">map</text>
</g>
<!-- Node1&#45;&gt;Node2 -->
<g id="edge1" class="edge"><title>Node1&#45;&gt;Node2</title>
<path fill="none" stroke="midnightblue" d="M106.396,-56.4979C86.1754,-46.1488 61.8417,-33.6946 43.7492,-24.4346"/>
<polygon fill="midnightblue" stroke="midnightblue" points="44.9021,-21.093 34.4056,-19.6525 41.7128,-27.3242 44.9021,-21.093"/>
</g>
<!-- Node3 -->
<g id="node3" class="node"><title>Node3</title>
<polygon fill="white" stroke="#bfbfbf" points="53.5,-0.5 53.5,-19.5 105.5,-19.5 105.5,-0.5 53.5,-0.5"/>
<text text-anchor="middle" x="79.5" y="-7.5" font-family="Helvetica,sans-Serif" font-size="10.00">memory</text>
</g>
<!-- Node1&#45;&gt;Node3 -->
<g id="edge2" class="edge"><title>Node1&#45;&gt;Node3</title>
<path fill="none" stroke="midnightblue" d="M124.998,-56.4979C115.511,-47.0113 104.256,-35.7557 95.3131,-26.8131"/>
<polygon fill="midnightblue" stroke="midnightblue" points="97.6985,-24.2487 88.1525,-19.6525 92.7487,-29.1985 97.6985,-24.2487"/>
</g>
<!-- Node4 -->
<g id="node4" class="node"><title>Node4</title>
<polygon fill="white" stroke="#bfbfbf" points="124,-0.5 124,-19.5 165,-19.5 165,-0.5 124,-0.5"/>
<text text-anchor="middle" x="144.5" y="-7.5" font-family="Helvetica,sans-Serif" font-size="10.00">regex</text>
</g>
<!-- Node1&#45;&gt;Node4 -->
<g id="edge3" class="edge"><title>Node1&#45;&gt;Node4</title>
<path fill="none" stroke="midnightblue" d="M144.5,-56.4979C144.5,-48.0653 144.5,-38.2351 144.5,-29.874"/>
<polygon fill="midnightblue" stroke="midnightblue" points="148,-29.6525 144.5,-19.6525 141,-29.6525 148,-29.6525"/>
</g>
<!-- Node5 -->
<g id="node5" class="node"><title>Node5</title>
<polygon fill="white" stroke="#bfbfbf" points="183,-0.5 183,-19.5 224,-19.5 224,-0.5 183,-0.5"/>
<text text-anchor="middle" x="203.5" y="-7.5" font-family="Helvetica,sans-Serif" font-size="10.00">string</text>
</g>
<!-- Node1&#45;&gt;Node5 -->
<g id="edge4" class="edge"><title>Node1&#45;&gt;Node5</title>
<path fill="none" stroke="midnightblue" d="M162.202,-56.4979C170.726,-47.1071 180.823,-35.9829 188.9,-27.0848"/>
<polygon fill="midnightblue" stroke="midnightblue" points="191.517,-29.4095 195.646,-19.6525 186.334,-24.7047 191.517,-29.4095"/>
</g>
<!-- Node6 -->
<g id="node6" class="node"><title>Node6</title>
<polygon fill="white" stroke="#bfbfbf" points="242.5,-0.5 242.5,-19.5 284.5,-19.5 284.5,-0.5 242.5,-0.5"/>
<text text-anchor="middle" x="263.5" y="-7.5" font-family="Helvetica,sans-Serif" font-size="10.00">vector</text>
</g>
<!-- Node1&#45;&gt;Node6 -->
<g id="edge5" class="edge"><title>Node1&#45;&gt;Node6</title>
<path fill="none" stroke="midnightblue" d="M180.204,-56.4979C198.975,-46.2447 221.53,-33.925 238.432,-24.6927"/>
<polygon fill="midnightblue" stroke="midnightblue" points="240.561,-27.5179 247.659,-19.6525 237.205,-21.3746 240.561,-27.5179"/>
</g>
</g>
</svg>
