<?xml version="1.0" encoding="UTF-8" standalone="no"?>
<!DOCTYPE svg PUBLIC "-//W3C//DTD SVG 1.1//EN"
 "http://www.w3.org/Graphics/SVG/1.1/DTD/svg11.dtd">
<!-- Generated by graphviz version 2.38.0 (20140413.2041)
 -->
<!-- Title: YAIPTestFixtureSectionKeyList Pages: 1 -->
<svg width="162pt" height="508pt"
 viewBox="0.00 0.00 162.00 508.00" xmlns="http://www.w3.org/2000/svg" xmlns:xlink="http://www.w3.org/1999/xlink">
<g id="graph0" class="graph" transform="scale(1 1) rotate(0) translate(4 504)">
<title>YAIPTestFixtureSectionKeyList</title>
<polygon fill="white" stroke="none" points="-4,4 -4,-504 158,-504 158,4 -4,4"/>
<!-- Node2 -->
<g id="node1" class="node"><title>Node2</title>
<polygon fill="#bfbfbf" stroke="black" points="0,-0.5 0,-57.5 154,-57.5 154,-0.5 0,-0.5"/>
<text text-anchor="middle" x="77" y="-45.5" font-family="Helvetica,sans-Serif" font-size="10.00">YAIPTestFixtureSectionKeyList</text>
<polyline fill="none" stroke="black" points="0,-38.5 154,-38.5 "/>
<text text-anchor="middle" x="77" y="-26.5" font-family="Helvetica,sans-Serif" font-size="10.00"> </text>
<polyline fill="none" stroke="black" points="0,-19.5 154,-19.5 "/>
<text text-anchor="middle" x="77" y="-7.5" font-family="Helvetica,sans-Serif" font-size="10.00"> </text>
</g>
<!-- Node3 -->
<g id="node2" class="node"><title>Node3</title>
<g id="a_node2"><a xlink:href="../../dd/da2/a00019.html" target="_top" xlink:title="{YAIPTestFixtureBase\n|+ INIFilename\l+ KeyBool\l+ KeyDouble\l+ KeyInteger\l+ KeyString\l+ Section\l|}">
<polygon fill="white" stroke="black" points="22,-95.5 22,-207.5 132,-207.5 132,-95.5 22,-95.5"/>
<text text-anchor="middle" x="77" y="-195.5" font-family="Helvetica,sans-Serif" font-size="10.00">YAIPTestFixtureBase</text>
<polyline fill="none" stroke="black" points="22,-188.5 132,-188.5 "/>
<text text-anchor="start" x="30" y="-176.5" font-family="Helvetica,sans-Serif" font-size="10.00">+ INIFilename</text>
<text text-anchor="start" x="30" y="-165.5" font-family="Helvetica,sans-Serif" font-size="10.00">+ KeyBool</text>
<text text-anchor="start" x="30" y="-154.5" font-family="Helvetica,sans-Serif" font-size="10.00">+ KeyDouble</text>
<text text-anchor="start" x="30" y="-143.5" font-family="Helvetica,sans-Serif" font-size="10.00">+ KeyInteger</text>
<text text-anchor="start" x="30" y="-132.5" font-family="Helvetica,sans-Serif" font-size="10.00">+ KeyString</text>
<text text-anchor="start" x="30" y="-121.5" font-family="Helvetica,sans-Serif" font-size="10.00">+ Section</text>
<polyline fill="none" stroke="black" points="22,-114.5 132,-114.5 "/>
<text text-anchor="middle" x="77" y="-102.5" font-family="Helvetica,sans-Serif" font-size="10.00"> </text>
</a>
</g>
</g>
<!-- Node3&#45;&gt;Node2 -->
<g id="edge1" class="edge"><title>Node3&#45;&gt;Node2</title>
<path fill="none" stroke="midnightblue" d="M77,-85.1187C77,-75.478 77,-66.0138 77,-57.7231"/>
<polygon fill="none" stroke="midnightblue" points="73.5001,-85.1874 77,-95.1875 80.5001,-85.1875 73.5001,-85.1874"/>
</g>
<!-- Node4 -->
<g id="node3" class="node"><title>Node4</title>
<g id="a_node3"><a xlink:href="../../d2/d79/a00051.html" target="_top" xlink:title="{YAIP::YAIP\n|# m_IniData\l# RegExKeyValue\l# RegExSection\l|+ YAIP()\l+ ~YAIP()\l+ INIFileLoad()\l+ INIFileSave()\l+ SectionKeyKill()\l+ SectionKeyListGet()\l+ SectionKeyValueGet()\l+ SectionKeyValueGet()\l+ SectionKeyValueSet()\l+ SectionKeyValueSet()\l+ SectionKill()\l+ SectionListGet()\l# INIFileSaveSection()\l# ParseFileContent()\l# NewKeyValue()\l# NewSection()\l}">
<polygon fill="white" stroke="black" points="16,-255.5 16,-499.5 138,-499.5 138,-255.5 16,-255.5"/>
<text text-anchor="middle" x="77" y="-487.5" font-family="Helvetica,sans-Serif" font-size="10.00">YAIP::YAIP</text>
<polyline fill="none" stroke="black" points="16,-480.5 138,-480.5 "/>
<text text-anchor="start" x="24" y="-468.5" font-family="Helvetica,sans-Serif" font-size="10.00"># m_IniData</text>
<text text-anchor="start" x="24" y="-457.5" font-family="Helvetica,sans-Serif" font-size="10.00"># RegExKeyValue</text>
<text text-anchor="start" x="24" y="-446.5" font-family="Helvetica,sans-Serif" font-size="10.00"># RegExSection</text>
<polyline fill="none" stroke="black" points="16,-439.5 138,-439.5 "/>
<text text-anchor="start" x="24" y="-427.5" font-family="Helvetica,sans-Serif" font-size="10.00">+ YAIP()</text>
<text text-anchor="start" x="24" y="-416.5" font-family="Helvetica,sans-Serif" font-size="10.00">+ ~YAIP()</text>
<text text-anchor="start" x="24" y="-405.5" font-family="Helvetica,sans-Serif" font-size="10.00">+ INIFileLoad()</text>
<text text-anchor="start" x="24" y="-394.5" font-family="Helvetica,sans-Serif" font-size="10.00">+ INIFileSave()</text>
<text text-anchor="start" x="24" y="-383.5" font-family="Helvetica,sans-Serif" font-size="10.00">+ SectionKeyKill()</text>
<text text-anchor="start" x="24" y="-372.5" font-family="Helvetica,sans-Serif" font-size="10.00">+ SectionKeyListGet()</text>
<text text-anchor="start" x="24" y="-361.5" font-family="Helvetica,sans-Serif" font-size="10.00">+ SectionKeyValueGet()</text>
<text text-anchor="start" x="24" y="-350.5" font-family="Helvetica,sans-Serif" font-size="10.00">+ SectionKeyValueGet()</text>
<text text-anchor="start" x="24" y="-339.5" font-family="Helvetica,sans-Serif" font-size="10.00">+ SectionKeyValueSet()</text>
<text text-anchor="start" x="24" y="-328.5" font-family="Helvetica,sans-Serif" font-size="10.00">+ SectionKeyValueSet()</text>
<text text-anchor="start" x="24" y="-317.5" font-family="Helvetica,sans-Serif" font-size="10.00">+ SectionKill()</text>
<text text-anchor="start" x="24" y="-306.5" font-family="Helvetica,sans-Serif" font-size="10.00">+ SectionListGet()</text>
<text text-anchor="start" x="24" y="-295.5" font-family="Helvetica,sans-Serif" font-size="10.00"># INIFileSaveSection()</text>
<text text-anchor="start" x="24" y="-284.5" font-family="Helvetica,sans-Serif" font-size="10.00"># ParseFileContent()</text>
<text text-anchor="start" x="24" y="-273.5" font-family="Helvetica,sans-Serif" font-size="10.00"># NewKeyValue()</text>
<text text-anchor="start" x="24" y="-262.5" font-family="Helvetica,sans-Serif" font-size="10.00"># NewSection()</text>
</a>
</g>
</g>
<!-- Node4&#45;&gt;Node3 -->
<g id="edge2" class="edge"><title>Node4&#45;&gt;Node3</title>
<path fill="none" stroke="#404040" d="M77,-255.322C77,-243.058 77,-230.942 77,-219.567"/>
<polygon fill="none" stroke="#404040" points="77.0001,-219.543 73,-213.543 77,-207.543 81,-213.543 77.0001,-219.543"/>
<text text-anchor="middle" x="101" y="-229" font-family="Helvetica,sans-Serif" font-size="10.00"> +IniParser</text>
</g>
</g>
</svg>
