<?xml version="1.0" encoding="UTF-8" standalone="no"?>
<!DOCTYPE svg PUBLIC "-//W3C//DTD SVG 1.1//EN"
 "http://www.w3.org/Graphics/SVG/1.1/DTD/svg11.dtd">
<!-- Generated by graphviz version 2.38.0 (20140413.2041)
 -->
<!-- Title: D:/Workspaces/GitHub/YAIP/src/YAIP++.cpp Pages: 1 -->
<svg width="393pt" height="207pt"
 viewBox="0.00 0.00 392.50 207.00" xmlns="http://www.w3.org/2000/svg" xmlns:xlink="http://www.w3.org/1999/xlink">
<g id="graph0" class="graph" transform="scale(1 1) rotate(0) translate(4 203)">
<title>D:/Workspaces/GitHub/YAIP/src/YAIP++.cpp</title>
<polygon fill="white" stroke="none" points="-4,4 -4,-203 388.5,-203 388.5,4 -4,4"/>
<!-- Node0 -->
<g id="node1" class="node"><title>Node0</title>
<polygon fill="#bfbfbf" stroke="black" points="196,-168.5 196,-198.5 313,-198.5 313,-168.5 196,-168.5"/>
<text text-anchor="start" x="204" y="-186.5" font-family="Helvetica,sans-Serif" font-size="10.00">D:/Workspaces/GitHub</text>
<text text-anchor="middle" x="254.5" y="-175.5" font-family="Helvetica,sans-Serif" font-size="10.00">/YAIP/src/YAIP++.cpp</text>
</g>
<!-- Node1 -->
<g id="node2" class="node"><title>Node1</title>
<g id="a_node2"><a xlink:href="../../d4/dee/a00008.html" target="_top" xlink:title="Header of Yet Another INI Parser. ">
<polygon fill="white" stroke="black" points="115,-112.5 115,-131.5 174,-131.5 174,-112.5 115,-112.5"/>
<text text-anchor="middle" x="144.5" y="-119.5" font-family="Helvetica,sans-Serif" font-size="10.00">YAIP++.h</text>
</a>
</g>
</g>
<!-- Node0&#45;&gt;Node1 -->
<g id="edge1" class="edge"><title>Node0&#45;&gt;Node1</title>
<path fill="none" stroke="midnightblue" d="M228.432,-168.399C210.635,-158.773 187.188,-146.09 169.601,-136.577"/>
<polygon fill="midnightblue" stroke="midnightblue" points="170.967,-133.337 160.506,-131.658 167.636,-139.494 170.967,-133.337"/>
</g>
<!-- Node8 -->
<g id="node9" class="node"><title>Node8</title>
<polygon fill="white" stroke="#bfbfbf" points="192.5,-112.5 192.5,-131.5 246.5,-131.5 246.5,-112.5 192.5,-112.5"/>
<text text-anchor="middle" x="219.5" y="-119.5" font-family="Helvetica,sans-Serif" font-size="10.00">iostream</text>
</g>
<!-- Node0&#45;&gt;Node8 -->
<g id="edge8" class="edge"><title>Node0&#45;&gt;Node8</title>
<path fill="none" stroke="midnightblue" d="M246.205,-168.399C241.277,-160.021 234.986,-149.327 229.749,-140.423"/>
<polygon fill="midnightblue" stroke="midnightblue" points="232.68,-138.503 224.593,-131.658 226.646,-142.052 232.68,-138.503"/>
</g>
<!-- Node9 -->
<g id="node10" class="node"><title>Node9</title>
<polygon fill="white" stroke="#bfbfbf" points="265,-112.5 265,-131.5 314,-131.5 314,-112.5 265,-112.5"/>
<text text-anchor="middle" x="289.5" y="-119.5" font-family="Helvetica,sans-Serif" font-size="10.00">fstream</text>
</g>
<!-- Node0&#45;&gt;Node9 -->
<g id="edge9" class="edge"><title>Node0&#45;&gt;Node9</title>
<path fill="none" stroke="midnightblue" d="M262.795,-168.399C267.723,-160.021 274.014,-149.327 279.251,-140.423"/>
<polygon fill="midnightblue" stroke="midnightblue" points="282.354,-142.052 284.407,-131.658 276.32,-138.503 282.354,-142.052"/>
</g>
<!-- Node10 -->
<g id="node11" class="node"><title>Node10</title>
<polygon fill="white" stroke="#bfbfbf" points="332.5,-112.5 332.5,-131.5 384.5,-131.5 384.5,-112.5 332.5,-112.5"/>
<text text-anchor="middle" x="358.5" y="-119.5" font-family="Helvetica,sans-Serif" font-size="10.00">sstream</text>
</g>
<!-- Node0&#45;&gt;Node10 -->
<g id="edge10" class="edge"><title>Node0&#45;&gt;Node10</title>
<path fill="none" stroke="midnightblue" d="M279.147,-168.399C295.817,-158.862 317.731,-146.325 334.305,-136.842"/>
<polygon fill="midnightblue" stroke="midnightblue" points="336.425,-139.662 343.367,-131.658 332.949,-133.586 336.425,-139.662"/>
</g>
<!-- Node2 -->
<g id="node3" class="node"><title>Node2</title>
<g id="a_node3"><a xlink:href="../../da/d45/a00011.html" target="_top" xlink:title="Basic definitions for YAIP++. ">
<polygon fill="white" stroke="black" points="104.5,-56.5 104.5,-75.5 184.5,-75.5 184.5,-56.5 104.5,-56.5"/>
<text text-anchor="middle" x="144.5" y="-63.5" font-family="Helvetica,sans-Serif" font-size="10.00">YAIP++Data.h</text>
</a>
</g>
</g>
<!-- Node1&#45;&gt;Node2 -->
<g id="edge2" class="edge"><title>Node1&#45;&gt;Node2</title>
<path fill="none" stroke="midnightblue" d="M144.5,-112.083C144.5,-105.006 144.5,-94.8611 144.5,-85.9865"/>
<polygon fill="midnightblue" stroke="midnightblue" points="148,-85.751 144.5,-75.7511 141,-85.7511 148,-85.751"/>
</g>
<!-- Node3 -->
<g id="node4" class="node"><title>Node3</title>
<polygon fill="white" stroke="#bfbfbf" points="0,-0.5 0,-19.5 35,-19.5 35,-0.5 0,-0.5"/>
<text text-anchor="middle" x="17.5" y="-7.5" font-family="Helvetica,sans-Serif" font-size="10.00">map</text>
</g>
<!-- Node2&#45;&gt;Node3 -->
<g id="edge3" class="edge"><title>Node2&#45;&gt;Node3</title>
<path fill="none" stroke="midnightblue" d="M124.376,-56.4435C102.738,-47.2429 68.2273,-32.5691 44.3009,-22.3957"/>
<polygon fill="midnightblue" stroke="midnightblue" points="45.6476,-19.1651 35.0754,-18.473 42.9085,-25.6069 45.6476,-19.1651"/>
</g>
<!-- Node4 -->
<g id="node5" class="node"><title>Node4</title>
<polygon fill="white" stroke="#bfbfbf" points="53.5,-0.5 53.5,-19.5 105.5,-19.5 105.5,-0.5 53.5,-0.5"/>
<text text-anchor="middle" x="79.5" y="-7.5" font-family="Helvetica,sans-Serif" font-size="10.00">memory</text>
</g>
<!-- Node2&#45;&gt;Node4 -->
<g id="edge4" class="edge"><title>Node2&#45;&gt;Node4</title>
<path fill="none" stroke="midnightblue" d="M134.057,-56.324C124.354,-48.2631 109.685,-36.0765 98.0003,-26.3695"/>
<polygon fill="midnightblue" stroke="midnightblue" points="100.062,-23.532 90.1334,-19.8339 95.5887,-28.9163 100.062,-23.532"/>
</g>
<!-- Node5 -->
<g id="node6" class="node"><title>Node5</title>
<polygon fill="white" stroke="#bfbfbf" points="124,-0.5 124,-19.5 165,-19.5 165,-0.5 124,-0.5"/>
<text text-anchor="middle" x="144.5" y="-7.5" font-family="Helvetica,sans-Serif" font-size="10.00">regex</text>
</g>
<!-- Node2&#45;&gt;Node5 -->
<g id="edge5" class="edge"><title>Node2&#45;&gt;Node5</title>
<path fill="none" stroke="midnightblue" d="M144.5,-56.083C144.5,-49.0059 144.5,-38.8611 144.5,-29.9865"/>
<polygon fill="midnightblue" stroke="midnightblue" points="148,-29.751 144.5,-19.7511 141,-29.7511 148,-29.751"/>
</g>
<!-- Node6 -->
<g id="node7" class="node"><title>Node6</title>
<polygon fill="white" stroke="#bfbfbf" points="183,-0.5 183,-19.5 224,-19.5 224,-0.5 183,-0.5"/>
<text text-anchor="middle" x="203.5" y="-7.5" font-family="Helvetica,sans-Serif" font-size="10.00">string</text>
</g>
<!-- Node2&#45;&gt;Node6 -->
<g id="edge6" class="edge"><title>Node2&#45;&gt;Node6</title>
<path fill="none" stroke="midnightblue" d="M153.979,-56.324C162.701,-48.3414 175.843,-36.3128 186.398,-26.6529"/>
<polygon fill="midnightblue" stroke="midnightblue" points="188.834,-29.1674 193.848,-19.8339 184.108,-24.0036 188.834,-29.1674"/>
</g>
<!-- Node7 -->
<g id="node8" class="node"><title>Node7</title>
<polygon fill="white" stroke="#bfbfbf" points="242.5,-0.5 242.5,-19.5 284.5,-19.5 284.5,-0.5 242.5,-0.5"/>
<text text-anchor="middle" x="263.5" y="-7.5" font-family="Helvetica,sans-Serif" font-size="10.00">vector</text>
</g>
<!-- Node2&#45;&gt;Node7 -->
<g id="edge7" class="edge"><title>Node2&#45;&gt;Node7</title>
<path fill="none" stroke="midnightblue" d="M163.356,-56.4435C182.766,-47.6356 213.23,-33.8116 235.465,-23.722"/>
<polygon fill="midnightblue" stroke="midnightblue" points="237.072,-26.836 244.732,-19.5164 234.18,-20.4615 237.072,-26.836"/>
</g>
</g>
</svg>
