<?xml version="1.0" encoding="UTF-8" standalone="no"?>
<!DOCTYPE svg PUBLIC "-//W3C//DTD SVG 1.1//EN"
 "http://www.w3.org/Graphics/SVG/1.1/DTD/svg11.dtd">
<!-- Generated by graphviz version 2.36.0 (20140111.2315)
 -->
<!-- Title: YAIP::Convert::ConvertTo Pages: 1 -->
<svg width="342pt" height="66pt"
 viewBox="0.00 0.00 342.00 66.00" xmlns="http://www.w3.org/2000/svg" xmlns:xlink="http://www.w3.org/1999/xlink">
<g id="graph0" class="graph" transform="scale(1 1) rotate(0) translate(4 62)">
<title>YAIP::Convert::ConvertTo</title>
<polygon fill="white" stroke="none" points="-4,4 -4,-62 338,-62 338,4 -4,4"/>
<!-- Node1 -->
<g id="node1" class="node"><title>Node1</title>
<polygon fill="#bfbfbf" stroke="black" points="0,-19.5 0,-38.5 132,-38.5 132,-19.5 0,-19.5"/>
<text text-anchor="middle" x="66" y="-26.5" font-family="Helvetica,sans-Serif" font-size="10.00">YAIP::Convert::ConvertTo</text>
</g>
<!-- Node2 -->
<g id="node2" class="node"><title>Node2</title>
<g id="a_node2"><a xlink:href="../../d0/d0b/a00004.html#a73da1225dc9361306f5c5c023918b119" target="_top" xlink:title="YAIP::YAIP::SectionKeyValueGet">
<polygon fill="white" stroke="black" points="168,-38.5 168,-57.5 334,-57.5 334,-38.5 168,-38.5"/>
<text text-anchor="middle" x="251" y="-45.5" font-family="Helvetica,sans-Serif" font-size="10.00">YAIP::YAIP::SectionKeyValueGet</text>
</a>
</g>
</g>
<!-- Node1&#45;&gt;Node2 -->
<g id="edge1" class="edge"><title>Node1&#45;&gt;Node2</title>
<path fill="none" stroke="midnightblue" d="M142.237,-36.8115C150.696,-37.6897 159.346,-38.5879 167.886,-39.4746"/>
<polygon fill="midnightblue" stroke="midnightblue" points="142.342,-33.3037 132.034,-35.7522 141.619,-40.2663 142.342,-33.3037"/>
</g>
<!-- Node3 -->
<g id="node3" class="node"><title>Node3</title>
<g id="a_node3"><a xlink:href="../../d0/d0b/a00004.html#afde94dd7c14b08ca9005e725895df7ad" target="_top" xlink:title="YAIP::YAIP::SectionKeyValueSet">
<polygon fill="white" stroke="black" points="168.5,-0.5 168.5,-19.5 333.5,-19.5 333.5,-0.5 168.5,-0.5"/>
<text text-anchor="middle" x="251" y="-7.5" font-family="Helvetica,sans-Serif" font-size="10.00">YAIP::YAIP::SectionKeyValueSet</text>
</a>
</g>
</g>
<!-- Node1&#45;&gt;Node3 -->
<g id="edge2" class="edge"><title>Node1&#45;&gt;Node3</title>
<path fill="none" stroke="midnightblue" d="M142.047,-21.2082C150.671,-20.3128 159.498,-19.3964 168.205,-18.4923"/>
<polygon fill="midnightblue" stroke="midnightblue" points="141.619,-17.7337 132.034,-22.2478 142.342,-24.6963 141.619,-17.7337"/>
</g>
</g>
</svg>
