<?xml version="1.0" encoding="UTF-8" standalone="no"?>
<!DOCTYPE svg PUBLIC "-//W3C//DTD SVG 1.1//EN"
 "http://www.w3.org/Graphics/SVG/1.1/DTD/svg11.dtd">
<!-- Generated by graphviz version 2.38.0 (20140413.2041)
 -->
<!-- Title: YAIPTestFixtureSave Pages: 1 -->
<svg width="130pt" height="541pt"
 viewBox="0.00 0.00 130.00 541.00" xmlns="http://www.w3.org/2000/svg" xmlns:xlink="http://www.w3.org/1999/xlink">
<g id="graph0" class="graph" transform="scale(1 1) rotate(0) translate(4 537)">
<title>YAIPTestFixtureSave</title>
<polygon fill="white" stroke="none" points="-4,4 -4,-537 126,-537 126,4 -4,4"/>
<!-- Node3 -->
<g id="node1" class="node"><title>Node3</title>
<polygon fill="#bfbfbf" stroke="black" points="6.5,-0.5 6.5,-90.5 115.5,-90.5 115.5,-0.5 6.5,-0.5"/>
<text text-anchor="middle" x="61" y="-78.5" font-family="Helvetica,sans-Serif" font-size="10.00">YAIPTestFixtureSave</text>
<polyline fill="none" stroke="black" points="6.5,-71.5 115.5,-71.5 "/>
<text text-anchor="start" x="14.5" y="-59.5" font-family="Helvetica,sans-Serif" font-size="10.00">+ ValueBool</text>
<text text-anchor="start" x="14.5" y="-48.5" font-family="Helvetica,sans-Serif" font-size="10.00">+ ValueDouble</text>
<text text-anchor="start" x="14.5" y="-37.5" font-family="Helvetica,sans-Serif" font-size="10.00">+ ValueInt</text>
<text text-anchor="start" x="14.5" y="-26.5" font-family="Helvetica,sans-Serif" font-size="10.00">+ ValueString</text>
<polyline fill="none" stroke="black" points="6.5,-19.5 115.5,-19.5 "/>
<text text-anchor="middle" x="61" y="-7.5" font-family="Helvetica,sans-Serif" font-size="10.00"> </text>
</g>
<!-- Node4 -->
<g id="node2" class="node"><title>Node4</title>
<g id="a_node2"><a xlink:href="../../dd/da2/a00019.html" target="_top" xlink:title="{YAIPTestFixtureBase\n|+ INIFilename\l+ KeyBool\l+ KeyDouble\l+ KeyInteger\l+ KeyString\l+ Section\l|}">
<polygon fill="white" stroke="black" points="6,-128.5 6,-240.5 116,-240.5 116,-128.5 6,-128.5"/>
<text text-anchor="middle" x="61" y="-228.5" font-family="Helvetica,sans-Serif" font-size="10.00">YAIPTestFixtureBase</text>
<polyline fill="none" stroke="black" points="6,-221.5 116,-221.5 "/>
<text text-anchor="start" x="14" y="-209.5" font-family="Helvetica,sans-Serif" font-size="10.00">+ INIFilename</text>
<text text-anchor="start" x="14" y="-198.5" font-family="Helvetica,sans-Serif" font-size="10.00">+ KeyBool</text>
<text text-anchor="start" x="14" y="-187.5" font-family="Helvetica,sans-Serif" font-size="10.00">+ KeyDouble</text>
<text text-anchor="start" x="14" y="-176.5" font-family="Helvetica,sans-Serif" font-size="10.00">+ KeyInteger</text>
<text text-anchor="start" x="14" y="-165.5" font-family="Helvetica,sans-Serif" font-size="10.00">+ KeyString</text>
<text text-anchor="start" x="14" y="-154.5" font-family="Helvetica,sans-Serif" font-size="10.00">+ Section</text>
<polyline fill="none" stroke="black" points="6,-147.5 116,-147.5 "/>
<text text-anchor="middle" x="61" y="-135.5" font-family="Helvetica,sans-Serif" font-size="10.00"> </text>
</a>
</g>
</g>
<!-- Node4&#45;&gt;Node3 -->
<g id="edge1" class="edge"><title>Node4&#45;&gt;Node3</title>
<path fill="none" stroke="midnightblue" d="M61,-118.134C61,-108.826 61,-99.4403 61,-90.6667"/>
<polygon fill="none" stroke="midnightblue" points="57.5001,-118.172 61,-128.172 64.5001,-118.172 57.5001,-118.172"/>
</g>
<!-- Node5 -->
<g id="node3" class="node"><title>Node5</title>
<g id="a_node3"><a xlink:href="../../d2/d79/a00051.html" target="_top" xlink:title="{YAIP::YAIP\n|# m_IniData\l# RegExKeyValue\l# RegExSection\l|+ YAIP()\l+ ~YAIP()\l+ INIFileLoad()\l+ INIFileSave()\l+ SectionKeyKill()\l+ SectionKeyListGet()\l+ SectionKeyValueGet()\l+ SectionKeyValueGet()\l+ SectionKeyValueSet()\l+ SectionKeyValueSet()\l+ SectionKill()\l+ SectionListGet()\l# INIFileSaveSection()\l# ParseFileContent()\l# NewKeyValue()\l# NewSection()\l}">
<polygon fill="white" stroke="black" points="0,-288.5 0,-532.5 122,-532.5 122,-288.5 0,-288.5"/>
<text text-anchor="middle" x="61" y="-520.5" font-family="Helvetica,sans-Serif" font-size="10.00">YAIP::YAIP</text>
<polyline fill="none" stroke="black" points="0,-513.5 122,-513.5 "/>
<text text-anchor="start" x="8" y="-501.5" font-family="Helvetica,sans-Serif" font-size="10.00"># m_IniData</text>
<text text-anchor="start" x="8" y="-490.5" font-family="Helvetica,sans-Serif" font-size="10.00"># RegExKeyValue</text>
<text text-anchor="start" x="8" y="-479.5" font-family="Helvetica,sans-Serif" font-size="10.00"># RegExSection</text>
<polyline fill="none" stroke="black" points="0,-472.5 122,-472.5 "/>
<text text-anchor="start" x="8" y="-460.5" font-family="Helvetica,sans-Serif" font-size="10.00">+ YAIP()</text>
<text text-anchor="start" x="8" y="-449.5" font-family="Helvetica,sans-Serif" font-size="10.00">+ ~YAIP()</text>
<text text-anchor="start" x="8" y="-438.5" font-family="Helvetica,sans-Serif" font-size="10.00">+ INIFileLoad()</text>
<text text-anchor="start" x="8" y="-427.5" font-family="Helvetica,sans-Serif" font-size="10.00">+ INIFileSave()</text>
<text text-anchor="start" x="8" y="-416.5" font-family="Helvetica,sans-Serif" font-size="10.00">+ SectionKeyKill()</text>
<text text-anchor="start" x="8" y="-405.5" font-family="Helvetica,sans-Serif" font-size="10.00">+ SectionKeyListGet()</text>
<text text-anchor="start" x="8" y="-394.5" font-family="Helvetica,sans-Serif" font-size="10.00">+ SectionKeyValueGet()</text>
<text text-anchor="start" x="8" y="-383.5" font-family="Helvetica,sans-Serif" font-size="10.00">+ SectionKeyValueGet()</text>
<text text-anchor="start" x="8" y="-372.5" font-family="Helvetica,sans-Serif" font-size="10.00">+ SectionKeyValueSet()</text>
<text text-anchor="start" x="8" y="-361.5" font-family="Helvetica,sans-Serif" font-size="10.00">+ SectionKeyValueSet()</text>
<text text-anchor="start" x="8" y="-350.5" font-family="Helvetica,sans-Serif" font-size="10.00">+ SectionKill()</text>
<text text-anchor="start" x="8" y="-339.5" font-family="Helvetica,sans-Serif" font-size="10.00">+ SectionListGet()</text>
<text text-anchor="start" x="8" y="-328.5" font-family="Helvetica,sans-Serif" font-size="10.00"># INIFileSaveSection()</text>
<text text-anchor="start" x="8" y="-317.5" font-family="Helvetica,sans-Serif" font-size="10.00"># ParseFileContent()</text>
<text text-anchor="start" x="8" y="-306.5" font-family="Helvetica,sans-Serif" font-size="10.00"># NewKeyValue()</text>
<text text-anchor="start" x="8" y="-295.5" font-family="Helvetica,sans-Serif" font-size="10.00"># NewSection()</text>
</a>
</g>
</g>
<!-- Node5&#45;&gt;Node4 -->
<g id="edge2" class="edge"><title>Node5&#45;&gt;Node4</title>
<path fill="none" stroke="#404040" d="M61,-288.322C61,-276.058 61,-263.942 61,-252.567"/>
<polygon fill="none" stroke="#404040" points="61.0001,-252.543 57,-246.543 61,-240.543 65,-246.543 61.0001,-252.543"/>
<text text-anchor="middle" x="85" y="-262" font-family="Helvetica,sans-Serif" font-size="10.00"> +IniParser</text>
</g>
</g>
</svg>
