<?xml version="1.0" encoding="UTF-8" standalone="no"?>
<!DOCTYPE svg PUBLIC "-//W3C//DTD SVG 1.1//EN"
 "http://www.w3.org/Graphics/SVG/1.1/DTD/svg11.dtd">
<!-- Generated by graphviz version 2.38.0 (20140413.2041)
 -->
<!-- Title: C:/Dokumente_JPA/Workspaces/GitHub/YAIP/src/YAIP++Data.h Pages: 1 -->
<svg width="367pt" height="95pt"
 viewBox="0.00 0.00 366.50 95.00" xmlns="http://www.w3.org/2000/svg" xmlns:xlink="http://www.w3.org/1999/xlink">
<g id="graph0" class="graph" transform="scale(1 1) rotate(0) translate(4 91)">
<title>C:/Dokumente_JPA/Workspaces/GitHub/YAIP/src/YAIP++Data.h</title>
<polygon fill="white" stroke="none" points="-4,4 -4,-91 362.5,-91 362.5,4 -4,4"/>
<!-- Node1 -->
<g id="node1" class="node"><title>Node1</title>
<polygon fill="#bfbfbf" stroke="black" points="102,-56.5 102,-86.5 262,-86.5 262,-56.5 102,-56.5"/>
<text text-anchor="start" x="110" y="-74.5" font-family="Helvetica,sans-Serif" font-size="10.00">C:/Dokumente_JPA/Workspaces</text>
<text text-anchor="middle" x="182" y="-63.5" font-family="Helvetica,sans-Serif" font-size="10.00">/GitHub/YAIP/src/YAIP++Data.h</text>
</g>
<!-- Node2 -->
<g id="node2" class="node"><title>Node2</title>
<polygon fill="white" stroke="#bfbfbf" points="0,-0.5 0,-19.5 58,-19.5 58,-0.5 0,-0.5"/>
<text text-anchor="middle" x="29" y="-7.5" font-family="Helvetica,sans-Serif" font-size="10.00">functional</text>
</g>
<!-- Node1&#45;&gt;Node2 -->
<g id="edge1" class="edge"><title>Node1&#45;&gt;Node2</title>
<path fill="none" stroke="midnightblue" d="M145.741,-56.3993C119.956,-46.3717 85.6434,-33.028 60.8985,-23.405"/>
<polygon fill="midnightblue" stroke="midnightblue" points="61.8515,-20.0203 51.2629,-19.6578 59.3143,-26.5443 61.8515,-20.0203"/>
</g>
<!-- Node3 -->
<g id="node3" class="node"><title>Node3</title>
<polygon fill="white" stroke="#bfbfbf" points="76,-0.5 76,-19.5 118,-19.5 118,-0.5 76,-0.5"/>
<text text-anchor="middle" x="97" y="-7.5" font-family="Helvetica,sans-Serif" font-size="10.00">locale</text>
</g>
<!-- Node1&#45;&gt;Node3 -->
<g id="edge2" class="edge"><title>Node1&#45;&gt;Node3</title>
<path fill="none" stroke="midnightblue" d="M161.856,-56.3993C148.613,-47.1293 131.322,-35.0254 117.924,-25.6469"/>
<polygon fill="midnightblue" stroke="midnightblue" points="119.568,-22.5251 109.368,-19.6578 115.553,-28.2598 119.568,-22.5251"/>
</g>
<!-- Node4 -->
<g id="node4" class="node"><title>Node4</title>
<polygon fill="white" stroke="#bfbfbf" points="136.5,-0.5 136.5,-19.5 171.5,-19.5 171.5,-0.5 136.5,-0.5"/>
<text text-anchor="middle" x="154" y="-7.5" font-family="Helvetica,sans-Serif" font-size="10.00">map</text>
</g>
<!-- Node1&#45;&gt;Node4 -->
<g id="edge3" class="edge"><title>Node1&#45;&gt;Node4</title>
<path fill="none" stroke="midnightblue" d="M175.364,-56.3993C171.463,-48.1098 166.496,-37.5542 162.333,-28.7077"/>
<polygon fill="midnightblue" stroke="midnightblue" points="165.499,-27.2157 158.074,-19.6578 159.165,-30.1963 165.499,-27.2157"/>
</g>
<!-- Node5 -->
<g id="node5" class="node"><title>Node5</title>
<polygon fill="white" stroke="#bfbfbf" points="190,-0.5 190,-19.5 232,-19.5 232,-0.5 190,-0.5"/>
<text text-anchor="middle" x="211" y="-7.5" font-family="Helvetica,sans-Serif" font-size="10.00">vector</text>
</g>
<!-- Node1&#45;&gt;Node5 -->
<g id="edge4" class="edge"><title>Node1&#45;&gt;Node5</title>
<path fill="none" stroke="midnightblue" d="M188.873,-56.3993C192.913,-48.1098 198.058,-37.5542 202.369,-28.7077"/>
<polygon fill="midnightblue" stroke="midnightblue" points="205.545,-30.1804 206.78,-19.6578 199.253,-27.1135 205.545,-30.1804"/>
</g>
<!-- Node6 -->
<g id="node6" class="node"><title>Node6</title>
<polygon fill="white" stroke="#bfbfbf" points="250.5,-0.5 250.5,-19.5 291.5,-19.5 291.5,-0.5 250.5,-0.5"/>
<text text-anchor="middle" x="271" y="-7.5" font-family="Helvetica,sans-Serif" font-size="10.00">string</text>
</g>
<!-- Node1&#45;&gt;Node6 -->
<g id="edge5" class="edge"><title>Node1&#45;&gt;Node6</title>
<path fill="none" stroke="midnightblue" d="M203.092,-56.3993C217.091,-47.0402 235.411,-34.7924 249.495,-25.3771"/>
<polygon fill="midnightblue" stroke="midnightblue" points="251.682,-28.1253 258.05,-19.6578 247.791,-22.3059 251.682,-28.1253"/>
</g>
<!-- Node7 -->
<g id="node7" class="node"><title>Node7</title>
<polygon fill="white" stroke="#bfbfbf" points="309.5,-0.5 309.5,-19.5 358.5,-19.5 358.5,-0.5 309.5,-0.5"/>
<text text-anchor="middle" x="334" y="-7.5" font-family="Helvetica,sans-Serif" font-size="10.00">ctype.h</text>
</g>
<!-- Node1&#45;&gt;Node7 -->
<g id="edge6" class="edge"><title>Node1&#45;&gt;Node7</title>
<path fill="none" stroke="midnightblue" d="M218.022,-56.3993C243.639,-46.3717 277.727,-33.028 302.31,-23.405"/>
<polygon fill="midnightblue" stroke="midnightblue" points="303.846,-26.5622 311.883,-19.6578 301.295,-20.0438 303.846,-26.5622"/>
</g>
</g>
</svg>
