<?xml version="1.0" encoding="UTF-8" standalone="no"?>
<!DOCTYPE svg PUBLIC "-//W3C//DTD SVG 1.1//EN"
 "http://www.w3.org/Graphics/SVG/1.1/DTD/svg11.dtd">
<!-- Generated by graphviz version 2.38.0 (20140413.2041)
 -->
<!-- Title: C:/Dokumente_JPA/Workspaces/GitHub/YAIP/src/YAIP++.h Pages: 1 -->
<svg width="367pt" height="151pt"
 viewBox="0.00 0.00 366.50 151.00" xmlns="http://www.w3.org/2000/svg" xmlns:xlink="http://www.w3.org/1999/xlink">
<g id="graph0" class="graph" transform="scale(1 1) rotate(0) translate(4 147)">
<title>C:/Dokumente_JPA/Workspaces/GitHub/YAIP/src/YAIP++.h</title>
<polygon fill="white" stroke="none" points="-4,4 -4,-147 362.5,-147 362.5,4 -4,4"/>
<!-- Node1 -->
<g id="node1" class="node"><title>Node1</title>
<polygon fill="#bfbfbf" stroke="black" points="141,-112.5 141,-142.5 301,-142.5 301,-112.5 141,-112.5"/>
<text text-anchor="start" x="149" y="-130.5" font-family="Helvetica,sans-Serif" font-size="10.00">C:/Dokumente_JPA/Workspaces</text>
<text text-anchor="middle" x="221" y="-119.5" font-family="Helvetica,sans-Serif" font-size="10.00">/GitHub/YAIP/src/YAIP++.h</text>
</g>
<!-- Node2 -->
<g id="node2" class="node"><title>Node2</title>
<g id="a_node2"><a xlink:href="../../d7/d7a/a00016.html" target="_top" xlink:title="Basic definitions for YAIP++. ">
<polygon fill="white" stroke="black" points="142,-56.5 142,-75.5 222,-75.5 222,-56.5 142,-56.5"/>
<text text-anchor="middle" x="182" y="-63.5" font-family="Helvetica,sans-Serif" font-size="10.00">YAIP++Data.h</text>
</a>
</g>
</g>
<!-- Node1&#45;&gt;Node2 -->
<g id="edge1" class="edge"><title>Node1&#45;&gt;Node2</title>
<path fill="none" stroke="midnightblue" d="M211.758,-112.399C206.207,-103.932 199.107,-93.0991 193.234,-84.1393"/>
<polygon fill="midnightblue" stroke="midnightblue" points="196.084,-82.1026 187.675,-75.6578 190.23,-85.94 196.084,-82.1026"/>
</g>
<!-- Node9 -->
<g id="node9" class="node"><title>Node9</title>
<polygon fill="white" stroke="#bfbfbf" points="240.5,-56.5 240.5,-75.5 281.5,-75.5 281.5,-56.5 240.5,-56.5"/>
<text text-anchor="middle" x="261" y="-63.5" font-family="Helvetica,sans-Serif" font-size="10.00">regex</text>
</g>
<!-- Node1&#45;&gt;Node9 -->
<g id="edge8" class="edge"><title>Node1&#45;&gt;Node9</title>
<path fill="none" stroke="midnightblue" d="M230.479,-112.399C236.172,-103.932 243.454,-93.0991 249.478,-84.1393"/>
<polygon fill="midnightblue" stroke="midnightblue" points="252.505,-85.9095 255.18,-75.6578 246.696,-82.0041 252.505,-85.9095"/>
</g>
<!-- Node3 -->
<g id="node3" class="node"><title>Node3</title>
<polygon fill="white" stroke="#bfbfbf" points="0,-0.5 0,-19.5 58,-19.5 58,-0.5 0,-0.5"/>
<text text-anchor="middle" x="29" y="-7.5" font-family="Helvetica,sans-Serif" font-size="10.00">functional</text>
</g>
<!-- Node2&#45;&gt;Node3 -->
<g id="edge2" class="edge"><title>Node2&#45;&gt;Node3</title>
<path fill="none" stroke="midnightblue" d="M157.757,-56.4435C132.129,-47.3986 91.5148,-33.064 62.7616,-22.9158"/>
<polygon fill="midnightblue" stroke="midnightblue" points="63.7247,-19.5442 53.1299,-19.5164 61.3949,-26.1452 63.7247,-19.5442"/>
</g>
<!-- Node4 -->
<g id="node4" class="node"><title>Node4</title>
<polygon fill="white" stroke="#bfbfbf" points="76,-0.5 76,-19.5 118,-19.5 118,-0.5 76,-0.5"/>
<text text-anchor="middle" x="97" y="-7.5" font-family="Helvetica,sans-Serif" font-size="10.00">locale</text>
</g>
<!-- Node2&#45;&gt;Node4 -->
<g id="edge3" class="edge"><title>Node2&#45;&gt;Node4</title>
<path fill="none" stroke="midnightblue" d="M168.343,-56.324C155.084,-47.9002 134.732,-34.9709 119.154,-25.0741"/>
<polygon fill="midnightblue" stroke="midnightblue" points="120.94,-22.0626 110.623,-19.6545 117.187,-27.9711 120.94,-22.0626"/>
</g>
<!-- Node5 -->
<g id="node5" class="node"><title>Node5</title>
<polygon fill="white" stroke="#bfbfbf" points="136.5,-0.5 136.5,-19.5 171.5,-19.5 171.5,-0.5 136.5,-0.5"/>
<text text-anchor="middle" x="154" y="-7.5" font-family="Helvetica,sans-Serif" font-size="10.00">map</text>
</g>
<!-- Node2&#45;&gt;Node5 -->
<g id="edge4" class="edge"><title>Node2&#45;&gt;Node5</title>
<path fill="none" stroke="midnightblue" d="M177.376,-56.083C173.544,-48.6913 167.976,-37.9533 163.235,-28.8111"/>
<polygon fill="midnightblue" stroke="midnightblue" points="166.248,-27.0175 158.538,-19.7511 160.034,-30.2398 166.248,-27.0175"/>
</g>
<!-- Node6 -->
<g id="node6" class="node"><title>Node6</title>
<polygon fill="white" stroke="#bfbfbf" points="190,-0.5 190,-19.5 232,-19.5 232,-0.5 190,-0.5"/>
<text text-anchor="middle" x="211" y="-7.5" font-family="Helvetica,sans-Serif" font-size="10.00">vector</text>
</g>
<!-- Node2&#45;&gt;Node6 -->
<g id="edge5" class="edge"><title>Node2&#45;&gt;Node6</title>
<path fill="none" stroke="midnightblue" d="M186.789,-56.083C190.758,-48.6913 196.525,-37.9533 201.435,-28.8111"/>
<polygon fill="midnightblue" stroke="midnightblue" points="204.653,-30.217 206.3,-19.7511 198.486,-26.9051 204.653,-30.217"/>
</g>
<!-- Node7 -->
<g id="node7" class="node"><title>Node7</title>
<polygon fill="white" stroke="#bfbfbf" points="250.5,-0.5 250.5,-19.5 291.5,-19.5 291.5,-0.5 250.5,-0.5"/>
<text text-anchor="middle" x="271" y="-7.5" font-family="Helvetica,sans-Serif" font-size="10.00">string</text>
</g>
<!-- Node2&#45;&gt;Node7 -->
<g id="edge6" class="edge"><title>Node2&#45;&gt;Node7</title>
<path fill="none" stroke="midnightblue" d="M196.299,-56.324C210.183,-47.9002 231.492,-34.9709 247.804,-25.0741"/>
<polygon fill="midnightblue" stroke="midnightblue" points="250.002,-27.8341 256.736,-19.6545 246.371,-21.8495 250.002,-27.8341"/>
</g>
<!-- Node8 -->
<g id="node8" class="node"><title>Node8</title>
<polygon fill="white" stroke="#bfbfbf" points="309.5,-0.5 309.5,-19.5 358.5,-19.5 358.5,-0.5 309.5,-0.5"/>
<text text-anchor="middle" x="334" y="-7.5" font-family="Helvetica,sans-Serif" font-size="10.00">ctype.h</text>
</g>
<!-- Node2&#45;&gt;Node8 -->
<g id="edge7" class="edge"><title>Node2&#45;&gt;Node8</title>
<path fill="none" stroke="midnightblue" d="M206.085,-56.4435C231.545,-47.3986 271.894,-33.064 300.459,-22.9158"/>
<polygon fill="midnightblue" stroke="midnightblue" points="301.777,-26.1622 310.028,-19.5164 299.433,-19.5661 301.777,-26.1622"/>
</g>
</g>
</svg>
