<?xml version="1.0" encoding="UTF-8" standalone="no"?>
<!DOCTYPE svg PUBLIC "-//W3C//DTD SVG 1.1//EN"
 "http://www.w3.org/Graphics/SVG/1.1/DTD/svg11.dtd">
<!-- Generated by graphviz version 2.38.0 (20140413.2041)
 -->
<!-- Title: YAIPTestFixtureLoad Pages: 1 -->
<svg width="130pt" height="680pt"
 viewBox="0.00 0.00 130.00 680.00" xmlns="http://www.w3.org/2000/svg" xmlns:xlink="http://www.w3.org/1999/xlink">
<g id="graph0" class="graph" transform="scale(1 1) rotate(0) translate(4 676)">
<title>YAIPTestFixtureLoad</title>
<polygon fill="white" stroke="none" points="-4,4 -4,-676 126,-676 126,4 -4,4"/>
<!-- Node1 -->
<g id="node1" class="node"><title>Node1</title>
<polygon fill="#bfbfbf" stroke="black" points="6.5,-0.5 6.5,-90.5 115.5,-90.5 115.5,-0.5 6.5,-0.5"/>
<text text-anchor="middle" x="61" y="-78.5" font-family="Helvetica,sans-Serif" font-size="10.00">YAIPTestFixtureLoad</text>
<polyline fill="none" stroke="black" points="6.5,-71.5 115.5,-71.5 "/>
<text text-anchor="start" x="14.5" y="-59.5" font-family="Helvetica,sans-Serif" font-size="10.00">+ DefaultBool</text>
<text text-anchor="start" x="14.5" y="-48.5" font-family="Helvetica,sans-Serif" font-size="10.00">+ DefaultDouble</text>
<text text-anchor="start" x="14.5" y="-37.5" font-family="Helvetica,sans-Serif" font-size="10.00">+ DefaultInt</text>
<text text-anchor="start" x="14.5" y="-26.5" font-family="Helvetica,sans-Serif" font-size="10.00">+ DefaultString</text>
<polyline fill="none" stroke="black" points="6.5,-19.5 115.5,-19.5 "/>
<text text-anchor="middle" x="61" y="-7.5" font-family="Helvetica,sans-Serif" font-size="10.00"> </text>
</g>
<!-- Node2 -->
<g id="node2" class="node"><title>Node2</title>
<g id="a_node2"><a xlink:href="../../d4/dee/a00008.html" target="_top" xlink:title="{YAIPTestFixtureSave\n|+ ValueBool\l+ ValueDouble\l+ ValueInt\l+ ValueString\l|}">
<polygon fill="white" stroke="black" points="6.5,-128.5 6.5,-218.5 115.5,-218.5 115.5,-128.5 6.5,-128.5"/>
<text text-anchor="middle" x="61" y="-206.5" font-family="Helvetica,sans-Serif" font-size="10.00">YAIPTestFixtureSave</text>
<polyline fill="none" stroke="black" points="6.5,-199.5 115.5,-199.5 "/>
<text text-anchor="start" x="14.5" y="-187.5" font-family="Helvetica,sans-Serif" font-size="10.00">+ ValueBool</text>
<text text-anchor="start" x="14.5" y="-176.5" font-family="Helvetica,sans-Serif" font-size="10.00">+ ValueDouble</text>
<text text-anchor="start" x="14.5" y="-165.5" font-family="Helvetica,sans-Serif" font-size="10.00">+ ValueInt</text>
<text text-anchor="start" x="14.5" y="-154.5" font-family="Helvetica,sans-Serif" font-size="10.00">+ ValueString</text>
<polyline fill="none" stroke="black" points="6.5,-147.5 115.5,-147.5 "/>
<text text-anchor="middle" x="61" y="-135.5" font-family="Helvetica,sans-Serif" font-size="10.00"> </text>
</a>
</g>
</g>
<!-- Node2&#45;&gt;Node1 -->
<g id="edge1" class="edge"><title>Node2&#45;&gt;Node1</title>
<path fill="none" stroke="midnightblue" d="M61,-118.226C61,-109.056 61,-99.6331 61,-90.7568"/>
<polygon fill="none" stroke="midnightblue" points="57.5001,-118.431 61,-128.431 64.5001,-118.431 57.5001,-118.431"/>
</g>
<!-- Node3 -->
<g id="node3" class="node"><title>Node3</title>
<g id="a_node3"><a xlink:href="../../de/d21/a00006.html" target="_top" xlink:title="{YAIPTestFixtureBase\n|+ INIFilename\l+ KeyBool\l+ KeyDouble\l+ KeyInteger\l+ KeyString\l+ Section\l|}">
<polygon fill="white" stroke="black" points="6,-256.5 6,-368.5 116,-368.5 116,-256.5 6,-256.5"/>
<text text-anchor="middle" x="61" y="-356.5" font-family="Helvetica,sans-Serif" font-size="10.00">YAIPTestFixtureBase</text>
<polyline fill="none" stroke="black" points="6,-349.5 116,-349.5 "/>
<text text-anchor="start" x="14" y="-337.5" font-family="Helvetica,sans-Serif" font-size="10.00">+ INIFilename</text>
<text text-anchor="start" x="14" y="-326.5" font-family="Helvetica,sans-Serif" font-size="10.00">+ KeyBool</text>
<text text-anchor="start" x="14" y="-315.5" font-family="Helvetica,sans-Serif" font-size="10.00">+ KeyDouble</text>
<text text-anchor="start" x="14" y="-304.5" font-family="Helvetica,sans-Serif" font-size="10.00">+ KeyInteger</text>
<text text-anchor="start" x="14" y="-293.5" font-family="Helvetica,sans-Serif" font-size="10.00">+ KeyString</text>
<text text-anchor="start" x="14" y="-282.5" font-family="Helvetica,sans-Serif" font-size="10.00">+ Section</text>
<polyline fill="none" stroke="black" points="6,-275.5 116,-275.5 "/>
<text text-anchor="middle" x="61" y="-263.5" font-family="Helvetica,sans-Serif" font-size="10.00"> </text>
</a>
</g>
</g>
<!-- Node3&#45;&gt;Node2 -->
<g id="edge2" class="edge"><title>Node3&#45;&gt;Node2</title>
<path fill="none" stroke="midnightblue" d="M61,-246.134C61,-236.826 61,-227.44 61,-218.667"/>
<polygon fill="none" stroke="midnightblue" points="57.5001,-246.172 61,-256.172 64.5001,-246.172 57.5001,-246.172"/>
</g>
<!-- Node4 -->
<g id="node4" class="node"><title>Node4</title>
<g id="a_node4"><a xlink:href="../../dd/dad/a00005.html" target="_top" xlink:title="{YAIP::YAIP\n|# m_IniData\l# RegExKeyValue\l# RegExSection\l|+ YAIP()\l+ ~YAIP()\l+ Clear()\l+ INIFileLoad()\l+ INIFileSave()\l+ SectionKeyKill()\l+ SectionKeyListGet()\l+ SectionKeyValueGet()\l+ SectionKeyValueGet()\l+ SectionKeyValueSet()\l+ SectionKeyValueSet()\l+ SectionKill()\l+ SectionListGet()\l# INIFileSaveSection()\l# ParseFileContent()\l# NewKeyValue()\l# NewSection()\l}">
<polygon fill="white" stroke="black" points="0,-416.5 0,-671.5 122,-671.5 122,-416.5 0,-416.5"/>
<text text-anchor="middle" x="61" y="-659.5" font-family="Helvetica,sans-Serif" font-size="10.00">YAIP::YAIP</text>
<polyline fill="none" stroke="black" points="0,-652.5 122,-652.5 "/>
<text text-anchor="start" x="8" y="-640.5" font-family="Helvetica,sans-Serif" font-size="10.00"># m_IniData</text>
<text text-anchor="start" x="8" y="-629.5" font-family="Helvetica,sans-Serif" font-size="10.00"># RegExKeyValue</text>
<text text-anchor="start" x="8" y="-618.5" font-family="Helvetica,sans-Serif" font-size="10.00"># RegExSection</text>
<polyline fill="none" stroke="black" points="0,-611.5 122,-611.5 "/>
<text text-anchor="start" x="8" y="-599.5" font-family="Helvetica,sans-Serif" font-size="10.00">+ YAIP()</text>
<text text-anchor="start" x="8" y="-588.5" font-family="Helvetica,sans-Serif" font-size="10.00">+ ~YAIP()</text>
<text text-anchor="start" x="8" y="-577.5" font-family="Helvetica,sans-Serif" font-size="10.00">+ Clear()</text>
<text text-anchor="start" x="8" y="-566.5" font-family="Helvetica,sans-Serif" font-size="10.00">+ INIFileLoad()</text>
<text text-anchor="start" x="8" y="-555.5" font-family="Helvetica,sans-Serif" font-size="10.00">+ INIFileSave()</text>
<text text-anchor="start" x="8" y="-544.5" font-family="Helvetica,sans-Serif" font-size="10.00">+ SectionKeyKill()</text>
<text text-anchor="start" x="8" y="-533.5" font-family="Helvetica,sans-Serif" font-size="10.00">+ SectionKeyListGet()</text>
<text text-anchor="start" x="8" y="-522.5" font-family="Helvetica,sans-Serif" font-size="10.00">+ SectionKeyValueGet()</text>
<text text-anchor="start" x="8" y="-511.5" font-family="Helvetica,sans-Serif" font-size="10.00">+ SectionKeyValueGet()</text>
<text text-anchor="start" x="8" y="-500.5" font-family="Helvetica,sans-Serif" font-size="10.00">+ SectionKeyValueSet()</text>
<text text-anchor="start" x="8" y="-489.5" font-family="Helvetica,sans-Serif" font-size="10.00">+ SectionKeyValueSet()</text>
<text text-anchor="start" x="8" y="-478.5" font-family="Helvetica,sans-Serif" font-size="10.00">+ SectionKill()</text>
<text text-anchor="start" x="8" y="-467.5" font-family="Helvetica,sans-Serif" font-size="10.00">+ SectionListGet()</text>
<text text-anchor="start" x="8" y="-456.5" font-family="Helvetica,sans-Serif" font-size="10.00"># INIFileSaveSection()</text>
<text text-anchor="start" x="8" y="-445.5" font-family="Helvetica,sans-Serif" font-size="10.00"># ParseFileContent()</text>
<text text-anchor="start" x="8" y="-434.5" font-family="Helvetica,sans-Serif" font-size="10.00"># NewKeyValue()</text>
<text text-anchor="start" x="8" y="-423.5" font-family="Helvetica,sans-Serif" font-size="10.00"># NewSection()</text>
</a>
</g>
</g>
<!-- Node4&#45;&gt;Node3 -->
<g id="edge3" class="edge"><title>Node4&#45;&gt;Node3</title>
<path fill="none" stroke="#404040" d="M61,-416.167C61,-404.041 61,-392.096 61,-380.884"/>
<polygon fill="none" stroke="#404040" points="61.0001,-380.564 57,-374.564 61,-368.564 65,-374.564 61.0001,-380.564"/>
<text text-anchor="middle" x="85" y="-390" font-family="Helvetica,sans-Serif" font-size="10.00"> +IniParser</text>
</g>
</g>
</svg>
