<?xml version="1.0" encoding="UTF-8" standalone="no"?>
<!DOCTYPE svg PUBLIC "-//W3C//DTD SVG 1.1//EN"
 "http://www.w3.org/Graphics/SVG/1.1/DTD/svg11.dtd">
<!-- Generated by graphviz version 2.38.0 (20140413.2041)
 -->
<!-- Title: YAIP::StringCompareCaseLess::CompareCaseless Pages: 1 -->
<svg width="161pt" height="193pt"
 viewBox="0.00 0.00 161.00 193.00" xmlns="http://www.w3.org/2000/svg" xmlns:xlink="http://www.w3.org/1999/xlink">
<g id="graph0" class="graph" transform="scale(1 1) rotate(0) translate(4 189)">
<title>YAIP::StringCompareCaseLess::CompareCaseless</title>
<polygon fill="white" stroke="none" points="-4,4 -4,-189 157,-189 157,4 -4,4"/>
<!-- Node2 -->
<g id="node1" class="node"><title>Node2</title>
<polygon fill="#bfbfbf" stroke="black" points="0,-0.5 0,-68.5 153,-68.5 153,-0.5 0,-0.5"/>
<text text-anchor="start" x="8" y="-56.5" font-family="Helvetica,sans-Serif" font-size="10.00">YAIP::StringCompareCaseLess</text>
<text text-anchor="middle" x="76.5" y="-45.5" font-family="Helvetica,sans-Serif" font-size="10.00">::CompareCaseless</text>
<polyline fill="none" stroke="black" points="0,-38.5 153,-38.5 "/>
<text text-anchor="middle" x="76.5" y="-26.5" font-family="Helvetica,sans-Serif" font-size="10.00"> </text>
<polyline fill="none" stroke="black" points="0,-19.5 153,-19.5 "/>
<text text-anchor="start" x="8" y="-7.5" font-family="Helvetica,sans-Serif" font-size="10.00">+ operator()()</text>
</g>
<!-- Node3 -->
<g id="node2" class="node"><title>Node3</title>
<polygon fill="white" stroke="#bfbfbf" points="11,-105.5 11,-184.5 142,-184.5 142,-105.5 11,-105.5"/>
<text text-anchor="start" x="19" y="-172.5" font-family="Helvetica,sans-Serif" font-size="10.00">std::binary_function</text>
<text text-anchor="start" x="19" y="-161.5" font-family="Helvetica,sans-Serif" font-size="10.00">&lt; unsigned char, unsigned</text>
<text text-anchor="middle" x="76.5" y="-150.5" font-family="Helvetica,sans-Serif" font-size="10.00"> char, bool &gt;</text>
<polyline fill="none" stroke="#bfbfbf" points="11,-143.5 142,-143.5 "/>
<text text-anchor="middle" x="76.5" y="-131.5" font-family="Helvetica,sans-Serif" font-size="10.00"> </text>
<polyline fill="none" stroke="#bfbfbf" points="11,-124.5 142,-124.5 "/>
<text text-anchor="middle" x="76.5" y="-112.5" font-family="Helvetica,sans-Serif" font-size="10.00"> </text>
</g>
<!-- Node3&#45;&gt;Node2 -->
<g id="edge1" class="edge"><title>Node3&#45;&gt;Node2</title>
<path fill="none" stroke="midnightblue" d="M76.5,-95.3492C76.5,-86.2824 76.5,-77.0048 76.5,-68.5439"/>
<polygon fill="none" stroke="midnightblue" points="73.0001,-95.4414 76.5,-105.441 80.0001,-95.4415 73.0001,-95.4414"/>
</g>
</g>
</svg>
