<?xml version="1.0" encoding="UTF-8" standalone="no"?>
<!DOCTYPE svg PUBLIC "-//W3C//DTD SVG 1.1//EN"
 "http://www.w3.org/Graphics/SVG/1.1/DTD/svg11.dtd">
<!-- Generated by graphviz version 2.38.0 (20140413.2041)
 -->
<!-- Title: D:/Workspaces/GitHub/YAIP/src/YAIP++.h Pages: 1 -->
<svg width="293pt" height="151pt"
 viewBox="0.00 0.00 292.50 151.00" xmlns="http://www.w3.org/2000/svg" xmlns:xlink="http://www.w3.org/1999/xlink">
<g id="graph0" class="graph" transform="scale(1 1) rotate(0) translate(4 147)">
<title>D:/Workspaces/GitHub/YAIP/src/YAIP++.h</title>
<polygon fill="white" stroke="none" points="-4,4 -4,-147 288.5,-147 288.5,4 -4,4"/>
<!-- Node0 -->
<g id="node1" class="node"><title>Node0</title>
<polygon fill="#bfbfbf" stroke="black" points="86,-112.5 86,-142.5 203,-142.5 203,-112.5 86,-112.5"/>
<text text-anchor="start" x="94" y="-130.5" font-family="Helvetica,sans-Serif" font-size="10.00">D:/Workspaces/GitHub</text>
<text text-anchor="middle" x="144.5" y="-119.5" font-family="Helvetica,sans-Serif" font-size="10.00">/YAIP/src/YAIP++.h</text>
</g>
<!-- Node1 -->
<g id="node2" class="node"><title>Node1</title>
<g id="a_node2"><a xlink:href="../../da/d45/a00011.html" target="_top" xlink:title="Basic definitions for YAIP++. ">
<polygon fill="white" stroke="black" points="104.5,-56.5 104.5,-75.5 184.5,-75.5 184.5,-56.5 104.5,-56.5"/>
<text text-anchor="middle" x="144.5" y="-63.5" font-family="Helvetica,sans-Serif" font-size="10.00">YAIP++Data.h</text>
</a>
</g>
</g>
<!-- Node0&#45;&gt;Node1 -->
<g id="edge1" class="edge"><title>Node0&#45;&gt;Node1</title>
<path fill="none" stroke="midnightblue" d="M144.5,-112.399C144.5,-104.466 144.5,-94.458 144.5,-85.8583"/>
<polygon fill="midnightblue" stroke="midnightblue" points="148,-85.6577 144.5,-75.6578 141,-85.6578 148,-85.6577"/>
</g>
<!-- Node2 -->
<g id="node3" class="node"><title>Node2</title>
<polygon fill="white" stroke="#bfbfbf" points="0,-0.5 0,-19.5 35,-19.5 35,-0.5 0,-0.5"/>
<text text-anchor="middle" x="17.5" y="-7.5" font-family="Helvetica,sans-Serif" font-size="10.00">map</text>
</g>
<!-- Node1&#45;&gt;Node2 -->
<g id="edge2" class="edge"><title>Node1&#45;&gt;Node2</title>
<path fill="none" stroke="midnightblue" d="M124.376,-56.4435C102.738,-47.2429 68.2273,-32.5691 44.3009,-22.3957"/>
<polygon fill="midnightblue" stroke="midnightblue" points="45.6476,-19.1651 35.0754,-18.473 42.9085,-25.6069 45.6476,-19.1651"/>
</g>
<!-- Node3 -->
<g id="node4" class="node"><title>Node3</title>
<polygon fill="white" stroke="#bfbfbf" points="53.5,-0.5 53.5,-19.5 105.5,-19.5 105.5,-0.5 53.5,-0.5"/>
<text text-anchor="middle" x="79.5" y="-7.5" font-family="Helvetica,sans-Serif" font-size="10.00">memory</text>
</g>
<!-- Node1&#45;&gt;Node3 -->
<g id="edge3" class="edge"><title>Node1&#45;&gt;Node3</title>
<path fill="none" stroke="midnightblue" d="M134.057,-56.324C124.354,-48.2631 109.685,-36.0765 98.0003,-26.3695"/>
<polygon fill="midnightblue" stroke="midnightblue" points="100.062,-23.532 90.1334,-19.8339 95.5887,-28.9163 100.062,-23.532"/>
</g>
<!-- Node4 -->
<g id="node5" class="node"><title>Node4</title>
<polygon fill="white" stroke="#bfbfbf" points="124,-0.5 124,-19.5 165,-19.5 165,-0.5 124,-0.5"/>
<text text-anchor="middle" x="144.5" y="-7.5" font-family="Helvetica,sans-Serif" font-size="10.00">regex</text>
</g>
<!-- Node1&#45;&gt;Node4 -->
<g id="edge4" class="edge"><title>Node1&#45;&gt;Node4</title>
<path fill="none" stroke="midnightblue" d="M144.5,-56.083C144.5,-49.0059 144.5,-38.8611 144.5,-29.9865"/>
<polygon fill="midnightblue" stroke="midnightblue" points="148,-29.751 144.5,-19.7511 141,-29.7511 148,-29.751"/>
</g>
<!-- Node5 -->
<g id="node6" class="node"><title>Node5</title>
<polygon fill="white" stroke="#bfbfbf" points="183,-0.5 183,-19.5 224,-19.5 224,-0.5 183,-0.5"/>
<text text-anchor="middle" x="203.5" y="-7.5" font-family="Helvetica,sans-Serif" font-size="10.00">string</text>
</g>
<!-- Node1&#45;&gt;Node5 -->
<g id="edge5" class="edge"><title>Node1&#45;&gt;Node5</title>
<path fill="none" stroke="midnightblue" d="M153.979,-56.324C162.701,-48.3414 175.843,-36.3128 186.398,-26.6529"/>
<polygon fill="midnightblue" stroke="midnightblue" points="188.834,-29.1674 193.848,-19.8339 184.108,-24.0036 188.834,-29.1674"/>
</g>
<!-- Node6 -->
<g id="node7" class="node"><title>Node6</title>
<polygon fill="white" stroke="#bfbfbf" points="242.5,-0.5 242.5,-19.5 284.5,-19.5 284.5,-0.5 242.5,-0.5"/>
<text text-anchor="middle" x="263.5" y="-7.5" font-family="Helvetica,sans-Serif" font-size="10.00">vector</text>
</g>
<!-- Node1&#45;&gt;Node6 -->
<g id="edge6" class="edge"><title>Node1&#45;&gt;Node6</title>
<path fill="none" stroke="midnightblue" d="M163.356,-56.4435C182.766,-47.6356 213.23,-33.8116 235.465,-23.722"/>
<polygon fill="midnightblue" stroke="midnightblue" points="237.072,-26.836 244.732,-19.5164 234.18,-20.4615 237.072,-26.836"/>
</g>
</g>
</svg>
