<?xml version="1.0" encoding="UTF-8" standalone="no"?>
<!DOCTYPE svg PUBLIC "-//W3C//DTD SVG 1.1//EN"
 "http://www.w3.org/Graphics/SVG/1.1/DTD/svg11.dtd">
<!-- Generated by graphviz version 2.36.0 (20140111.2315)
 -->
<!-- Title: Graphical Class Hierarchy Pages: 1 -->
<svg width="284pt" height="77pt"
 viewBox="0.00 0.00 284.00 77.00" xmlns="http://www.w3.org/2000/svg" xmlns:xlink="http://www.w3.org/1999/xlink">
<g id="graph0" class="graph" transform="scale(1 1) rotate(0) translate(4 73)">
<title>Graphical Class Hierarchy</title>
<polygon fill="white" stroke="none" points="-4,4 -4,-73 280,-73 280,4 -4,4"/>
<!-- Node1 -->
<g id="node1" class="node"><title>Node1</title>
<polygon fill="white" stroke="#bfbfbf" points="0.5,-27.5 0.5,-46.5 83.5,-46.5 83.5,-27.5 0.5,-27.5"/>
<text text-anchor="middle" x="42" y="-34.5" font-family="Helvetica,sans-Serif" font-size="10.00">binary_function</text>
</g>
<!-- Node2 -->
<g id="node2" class="node"><title>Node2</title>
<g id="a_node2"><a xlink:href="d7/d46/a00002.html" target="_top" xlink:title="YAIP::StringCompareCaseLess">
<polygon fill="white" stroke="black" points="120.5,-49.5 120.5,-68.5 275.5,-68.5 275.5,-49.5 120.5,-49.5"/>
<text text-anchor="middle" x="198" y="-56.5" font-family="Helvetica,sans-Serif" font-size="10.00">YAIP::StringCompareCaseLess</text>
</a>
</g>
</g>
<!-- Node1&#45;&gt;Node2 -->
<g id="edge1" class="edge"><title>Node1&#45;&gt;Node2</title>
<path fill="none" stroke="midnightblue" d="M93.8528,-44.2647C105.521,-45.9315 118.098,-47.7282 130.321,-49.4744"/>
<polygon fill="midnightblue" stroke="midnightblue" points="94.2594,-40.7873 83.8649,-42.8378 93.2694,-47.717 94.2594,-40.7873"/>
</g>
<!-- Node3 -->
<g id="node3" class="node"><title>Node3</title>
<g id="a_node3"><a xlink:href="d1/d7c/a00003.html" target="_top" xlink:title="YAIP::StringCompareCaseLess\l::CompareCaseless">
<polygon fill="white" stroke="black" points="120.5,-0 120.5,-30 275.5,-30 275.5,-0 120.5,-0"/>
<text text-anchor="start" x="128.5" y="-18" font-family="Helvetica,sans-Serif" font-size="10.00">YAIP::StringCompareCaseLess</text>
<text text-anchor="middle" x="198" y="-7" font-family="Helvetica,sans-Serif" font-size="10.00">::CompareCaseless</text>
</a>
</g>
</g>
<!-- Node1&#45;&gt;Node3 -->
<g id="edge2" class="edge"><title>Node1&#45;&gt;Node3</title>
<path fill="none" stroke="midnightblue" d="M93.9832,-29.7167C102.501,-28.4998 111.5,-27.2142 120.491,-25.9299"/>
<polygon fill="midnightblue" stroke="midnightblue" points="93.2694,-26.283 83.8649,-31.1622 94.2594,-33.2127 93.2694,-26.283"/>
</g>
</g>
</svg>
