<?xml version="1.0" encoding="UTF-8" standalone="no"?>
<!DOCTYPE svg PUBLIC "-//W3C//DTD SVG 1.1//EN"
 "http://www.w3.org/Graphics/SVG/1.1/DTD/svg11.dtd">
<!-- Generated by graphviz version 2.38.0 (20140413.2041)
 -->
<!-- Title: Graphical Class Hierarchy Pages: 1 -->
<svg width="453pt" height="180pt"
 viewBox="0.00 0.00 453.00 180.00" xmlns="http://www.w3.org/2000/svg" xmlns:xlink="http://www.w3.org/1999/xlink">
<g id="graph0" class="graph" transform="scale(1 1) rotate(0) translate(4 176)">
<title>Graphical Class Hierarchy</title>
<polygon fill="white" stroke="none" points="-4,4 -4,-176 449,-176 449,4 -4,4"/>
<!-- Node0 -->
<g id="node1" class="node"><title>Node0</title>
<g id="a_node1"><a xlink:href="dd/da2/a00019.html" target="_top" xlink:title="YAIPTestFixtureBase">
<polygon fill="white" stroke="black" points="0,-76.5 0,-95.5 110,-95.5 110,-76.5 0,-76.5"/>
<text text-anchor="middle" x="55" y="-83.5" font-family="Helvetica,sans-Serif" font-size="10.00">YAIPTestFixtureBase</text>
</a>
</g>
</g>
<!-- Node1 -->
<g id="node2" class="node"><title>Node1</title>
<g id="a_node2"><a xlink:href="d3/d52/a00023.html" target="_top" xlink:title="YAIPTestFixtureSave">
<polygon fill="white" stroke="black" points="168.5,-152.5 168.5,-171.5 277.5,-171.5 277.5,-152.5 168.5,-152.5"/>
<text text-anchor="middle" x="223" y="-159.5" font-family="Helvetica,sans-Serif" font-size="10.00">YAIPTestFixtureSave</text>
</a>
</g>
</g>
<!-- Node0&#45;&gt;Node1 -->
<g id="edge1" class="edge"><title>Node0&#45;&gt;Node1</title>
<path fill="none" stroke="midnightblue" d="M76.7411,-101.856C94.3283,-114.613 120.665,-132.146 146,-143 154.751,-146.749 164.399,-149.869 173.798,-152.422"/>
<polygon fill="midnightblue" stroke="midnightblue" points="78.5142,-98.8136 68.3934,-95.68 74.3511,-104.441 78.5142,-98.8136"/>
</g>
<!-- Node3 -->
<g id="node4" class="node"><title>Node3</title>
<g id="a_node4"><a xlink:href="d3/de7/a00039.html" target="_top" xlink:title="YAIPTestFixtureSectionKeyKill">
<polygon fill="white" stroke="black" points="147,-114.5 147,-133.5 299,-133.5 299,-114.5 147,-114.5"/>
<text text-anchor="middle" x="223" y="-121.5" font-family="Helvetica,sans-Serif" font-size="10.00">YAIPTestFixtureSectionKeyKill</text>
</a>
</g>
</g>
<!-- Node0&#45;&gt;Node3 -->
<g id="edge3" class="edge"><title>Node0&#45;&gt;Node3</title>
<path fill="none" stroke="midnightblue" d="M107.653,-97.8243C131.056,-103.182 158.357,-109.431 180.412,-114.48"/>
<polygon fill="midnightblue" stroke="midnightblue" points="108.418,-94.4088 97.8888,-95.589 106.856,-101.232 108.418,-94.4088"/>
</g>
<!-- Node4 -->
<g id="node5" class="node"><title>Node4</title>
<g id="a_node5"><a xlink:href="d4/d8c/a00035.html" target="_top" xlink:title="YAIPTestFixtureSectionKeyList">
<polygon fill="white" stroke="black" points="146,-76.5 146,-95.5 300,-95.5 300,-76.5 146,-76.5"/>
<text text-anchor="middle" x="223" y="-83.5" font-family="Helvetica,sans-Serif" font-size="10.00">YAIPTestFixtureSectionKeyList</text>
</a>
</g>
</g>
<!-- Node0&#45;&gt;Node4 -->
<g id="edge4" class="edge"><title>Node0&#45;&gt;Node4</title>
<path fill="none" stroke="midnightblue" d="M120.374,-86C128.716,-86 137.322,-86 145.832,-86"/>
<polygon fill="midnightblue" stroke="midnightblue" points="120.355,-82.5001 110.355,-86 120.355,-89.5001 120.355,-82.5001"/>
</g>
<!-- Node5 -->
<g id="node6" class="node"><title>Node5</title>
<g id="a_node6"><a xlink:href="d6/d42/a00043.html" target="_top" xlink:title="YAIPTestFixtureSectionKill">
<polygon fill="white" stroke="black" points="156,-38.5 156,-57.5 290,-57.5 290,-38.5 156,-38.5"/>
<text text-anchor="middle" x="223" y="-45.5" font-family="Helvetica,sans-Serif" font-size="10.00">YAIPTestFixtureSectionKill</text>
</a>
</g>
</g>
<!-- Node0&#45;&gt;Node5 -->
<g id="edge5" class="edge"><title>Node0&#45;&gt;Node5</title>
<path fill="none" stroke="midnightblue" d="M107.653,-74.1757C131.056,-68.8184 158.357,-62.5689 180.412,-57.5201"/>
<polygon fill="midnightblue" stroke="midnightblue" points="106.856,-70.7677 97.8888,-76.411 108.418,-77.5912 106.856,-70.7677"/>
</g>
<!-- Node6 -->
<g id="node7" class="node"><title>Node6</title>
<g id="a_node7"><a xlink:href="df/d61/a00031.html" target="_top" xlink:title="YAIPTestFixtureSectionList">
<polygon fill="white" stroke="black" points="154.5,-0.5 154.5,-19.5 291.5,-19.5 291.5,-0.5 154.5,-0.5"/>
<text text-anchor="middle" x="223" y="-7.5" font-family="Helvetica,sans-Serif" font-size="10.00">YAIPTestFixtureSectionList</text>
</a>
</g>
</g>
<!-- Node0&#45;&gt;Node6 -->
<g id="edge6" class="edge"><title>Node0&#45;&gt;Node6</title>
<path fill="none" stroke="midnightblue" d="M76.7411,-70.1445C94.3283,-57.3869 120.665,-39.8542 146,-29 154.751,-25.2508 164.399,-22.1313 173.798,-19.5775"/>
<polygon fill="midnightblue" stroke="midnightblue" points="74.3511,-67.5589 68.3934,-76.32 78.5142,-73.1864 74.3511,-67.5589"/>
</g>
<!-- Node2 -->
<g id="node3" class="node"><title>Node2</title>
<g id="a_node3"><a xlink:href="d0/d33/a00027.html" target="_top" xlink:title="YAIPTestFixtureLoad">
<polygon fill="white" stroke="black" points="336,-152.5 336,-171.5 445,-171.5 445,-152.5 336,-152.5"/>
<text text-anchor="middle" x="390.5" y="-159.5" font-family="Helvetica,sans-Serif" font-size="10.00">YAIPTestFixtureLoad</text>
</a>
</g>
</g>
<!-- Node1&#45;&gt;Node2 -->
<g id="edge2" class="edge"><title>Node1&#45;&gt;Node2</title>
<path fill="none" stroke="midnightblue" d="M287.947,-162C303.741,-162 320.5,-162 335.753,-162"/>
<polygon fill="midnightblue" stroke="midnightblue" points="287.733,-158.5 277.733,-162 287.733,-165.5 287.733,-158.5"/>
</g>
</g>
</svg>
