<?xml version="1.0" encoding="UTF-8" standalone="no"?>
<!DOCTYPE svg PUBLIC "-//W3C//DTD SVG 1.1//EN"
 "http://www.w3.org/Graphics/SVG/1.1/DTD/svg11.dtd">
<!-- Generated by graphviz version 2.38.0 (20140413.2041)
 -->
<!-- Title: Graphical Class Hierarchy Pages: 1 -->
<svg width="279pt" height="78pt"
 viewBox="0.00 0.00 279.00 77.50" xmlns="http://www.w3.org/2000/svg" xmlns:xlink="http://www.w3.org/1999/xlink">
<g id="graph0" class="graph" transform="scale(1 1) rotate(0) translate(4 73.5)">
<title>Graphical Class Hierarchy</title>
<polygon fill="white" stroke="none" points="-4,4 -4,-73.5 275,-73.5 275,4 -4,4"/>
<!-- Node1 -->
<g id="node1" class="node"><title>Node1</title>
<polygon fill="white" stroke="#bfbfbf" points="0,-28 0,-47 82,-47 82,-28 0,-28"/>
<text text-anchor="middle" x="41" y="-35" font-family="Helvetica,sans-Serif" font-size="10.00">binary_function</text>
</g>
<!-- Node2 -->
<g id="node2" class="node"><title>Node2</title>
<g id="a_node2"><a xlink:href="d1/d7c/a00003.html" target="_top" xlink:title="YAIP::StringCompareCaseLess">
<polygon fill="white" stroke="black" points="118,-50 118,-69 271,-69 271,-50 118,-50"/>
<text text-anchor="middle" x="194.5" y="-57" font-family="Helvetica,sans-Serif" font-size="10.00">YAIP::StringCompareCaseLess</text>
</a>
</g>
</g>
<!-- Node1&#45;&gt;Node2 -->
<g id="edge1" class="edge"><title>Node1&#45;&gt;Node2</title>
<path fill="none" stroke="midnightblue" d="M92.3754,-44.8152C103.756,-46.4678 116,-48.2459 127.904,-49.9744"/>
<polygon fill="midnightblue" stroke="midnightblue" points="92.6007,-41.3113 82.2015,-43.3378 91.5947,-48.2387 92.6007,-41.3113"/>
</g>
<!-- Node3 -->
<g id="node3" class="node"><title>Node3</title>
<g id="a_node3"><a xlink:href="d0/d0b/a00004.html" target="_top" xlink:title="YAIP::StringCompareCaseLess\l::CompareCaseless">
<polygon fill="white" stroke="black" points="118,-0.5 118,-30.5 271,-30.5 271,-0.5 118,-0.5"/>
<text text-anchor="start" x="126" y="-18.5" font-family="Helvetica,sans-Serif" font-size="10.00">YAIP::StringCompareCaseLess</text>
<text text-anchor="middle" x="194.5" y="-7.5" font-family="Helvetica,sans-Serif" font-size="10.00">::CompareCaseless</text>
</a>
</g>
</g>
<!-- Node1&#45;&gt;Node3 -->
<g id="edge2" class="edge"><title>Node1&#45;&gt;Node3</title>
<path fill="none" stroke="midnightblue" d="M92.3492,-30.1886C100.579,-28.9935 109.26,-27.7328 117.939,-26.4726"/>
<polygon fill="midnightblue" stroke="midnightblue" points="91.5947,-26.7613 82.2015,-31.6622 92.6007,-33.6887 91.5947,-26.7613"/>
</g>
</g>
</svg>
