<?xml version="1.0" encoding="UTF-8" standalone="no"?>
<!DOCTYPE svg PUBLIC "-//W3C//DTD SVG 1.1//EN"
 "http://www.w3.org/Graphics/SVG/1.1/DTD/svg11.dtd">
<!-- Generated by graphviz version 2.38.0 (20140413.2041)
 -->
<!-- Title: YAIPTestFixtureSectionKill Pages: 1 -->
<svg width="142pt" height="508pt"
 viewBox="0.00 0.00 142.00 508.00" xmlns="http://www.w3.org/2000/svg" xmlns:xlink="http://www.w3.org/1999/xlink">
<g id="graph0" class="graph" transform="scale(1 1) rotate(0) translate(4 504)">
<title>YAIPTestFixtureSectionKill</title>
<polygon fill="white" stroke="none" points="-4,4 -4,-504 138,-504 138,4 -4,4"/>
<!-- Node2 -->
<g id="node1" class="node"><title>Node2</title>
<polygon fill="#bfbfbf" stroke="black" points="0,-0.5 0,-57.5 134,-57.5 134,-0.5 0,-0.5"/>
<text text-anchor="middle" x="67" y="-45.5" font-family="Helvetica,sans-Serif" font-size="10.00">YAIPTestFixtureSectionKill</text>
<polyline fill="none" stroke="black" points="0,-38.5 134,-38.5 "/>
<text text-anchor="middle" x="67" y="-26.5" font-family="Helvetica,sans-Serif" font-size="10.00"> </text>
<polyline fill="none" stroke="black" points="0,-19.5 134,-19.5 "/>
<text text-anchor="middle" x="67" y="-7.5" font-family="Helvetica,sans-Serif" font-size="10.00"> </text>
</g>
<!-- Node3 -->
<g id="node2" class="node"><title>Node3</title>
<g id="a_node2"><a xlink:href="../../dd/da2/a00019.html" target="_top" xlink:title="{YAIPTestFixtureBase\n|+ INIFilename\l+ KeyBool\l+ KeyDouble\l+ KeyInteger\l+ KeyString\l+ Section\l|}">
<polygon fill="white" stroke="black" points="12,-95.5 12,-207.5 122,-207.5 122,-95.5 12,-95.5"/>
<text text-anchor="middle" x="67" y="-195.5" font-family="Helvetica,sans-Serif" font-size="10.00">YAIPTestFixtureBase</text>
<polyline fill="none" stroke="black" points="12,-188.5 122,-188.5 "/>
<text text-anchor="start" x="20" y="-176.5" font-family="Helvetica,sans-Serif" font-size="10.00">+ INIFilename</text>
<text text-anchor="start" x="20" y="-165.5" font-family="Helvetica,sans-Serif" font-size="10.00">+ KeyBool</text>
<text text-anchor="start" x="20" y="-154.5" font-family="Helvetica,sans-Serif" font-size="10.00">+ KeyDouble</text>
<text text-anchor="start" x="20" y="-143.5" font-family="Helvetica,sans-Serif" font-size="10.00">+ KeyInteger</text>
<text text-anchor="start" x="20" y="-132.5" font-family="Helvetica,sans-Serif" font-size="10.00">+ KeyString</text>
<text text-anchor="start" x="20" y="-121.5" font-family="Helvetica,sans-Serif" font-size="10.00">+ Section</text>
<polyline fill="none" stroke="black" points="12,-114.5 122,-114.5 "/>
<text text-anchor="middle" x="67" y="-102.5" font-family="Helvetica,sans-Serif" font-size="10.00"> </text>
</a>
</g>
</g>
<!-- Node3&#45;&gt;Node2 -->
<g id="edge1" class="edge"><title>Node3&#45;&gt;Node2</title>
<path fill="none" stroke="midnightblue" d="M67,-85.1187C67,-75.478 67,-66.0138 67,-57.7231"/>
<polygon fill="none" stroke="midnightblue" points="63.5001,-85.1874 67,-95.1875 70.5001,-85.1875 63.5001,-85.1874"/>
</g>
<!-- Node4 -->
<g id="node3" class="node"><title>Node4</title>
<g id="a_node3"><a xlink:href="../../d2/d79/a00051.html" target="_top" xlink:title="{YAIP::YAIP\n|# m_IniData\l# RegExKeyValue\l# RegExSection\l|+ YAIP()\l+ ~YAIP()\l+ INIFileLoad()\l+ INIFileSave()\l+ SectionKeyKill()\l+ SectionKeyListGet()\l+ SectionKeyValueGet()\l+ SectionKeyValueGet()\l+ SectionKeyValueSet()\l+ SectionKeyValueSet()\l+ SectionKill()\l+ SectionListGet()\l# INIFileSaveSection()\l# ParseFileContent()\l# NewKeyValue()\l# NewSection()\l}">
<polygon fill="white" stroke="black" points="6,-255.5 6,-499.5 128,-499.5 128,-255.5 6,-255.5"/>
<text text-anchor="middle" x="67" y="-487.5" font-family="Helvetica,sans-Serif" font-size="10.00">YAIP::YAIP</text>
<polyline fill="none" stroke="black" points="6,-480.5 128,-480.5 "/>
<text text-anchor="start" x="14" y="-468.5" font-family="Helvetica,sans-Serif" font-size="10.00"># m_IniData</text>
<text text-anchor="start" x="14" y="-457.5" font-family="Helvetica,sans-Serif" font-size="10.00"># RegExKeyValue</text>
<text text-anchor="start" x="14" y="-446.5" font-family="Helvetica,sans-Serif" font-size="10.00"># RegExSection</text>
<polyline fill="none" stroke="black" points="6,-439.5 128,-439.5 "/>
<text text-anchor="start" x="14" y="-427.5" font-family="Helvetica,sans-Serif" font-size="10.00">+ YAIP()</text>
<text text-anchor="start" x="14" y="-416.5" font-family="Helvetica,sans-Serif" font-size="10.00">+ ~YAIP()</text>
<text text-anchor="start" x="14" y="-405.5" font-family="Helvetica,sans-Serif" font-size="10.00">+ INIFileLoad()</text>
<text text-anchor="start" x="14" y="-394.5" font-family="Helvetica,sans-Serif" font-size="10.00">+ INIFileSave()</text>
<text text-anchor="start" x="14" y="-383.5" font-family="Helvetica,sans-Serif" font-size="10.00">+ SectionKeyKill()</text>
<text text-anchor="start" x="14" y="-372.5" font-family="Helvetica,sans-Serif" font-size="10.00">+ SectionKeyListGet()</text>
<text text-anchor="start" x="14" y="-361.5" font-family="Helvetica,sans-Serif" font-size="10.00">+ SectionKeyValueGet()</text>
<text text-anchor="start" x="14" y="-350.5" font-family="Helvetica,sans-Serif" font-size="10.00">+ SectionKeyValueGet()</text>
<text text-anchor="start" x="14" y="-339.5" font-family="Helvetica,sans-Serif" font-size="10.00">+ SectionKeyValueSet()</text>
<text text-anchor="start" x="14" y="-328.5" font-family="Helvetica,sans-Serif" font-size="10.00">+ SectionKeyValueSet()</text>
<text text-anchor="start" x="14" y="-317.5" font-family="Helvetica,sans-Serif" font-size="10.00">+ SectionKill()</text>
<text text-anchor="start" x="14" y="-306.5" font-family="Helvetica,sans-Serif" font-size="10.00">+ SectionListGet()</text>
<text text-anchor="start" x="14" y="-295.5" font-family="Helvetica,sans-Serif" font-size="10.00"># INIFileSaveSection()</text>
<text text-anchor="start" x="14" y="-284.5" font-family="Helvetica,sans-Serif" font-size="10.00"># ParseFileContent()</text>
<text text-anchor="start" x="14" y="-273.5" font-family="Helvetica,sans-Serif" font-size="10.00"># NewKeyValue()</text>
<text text-anchor="start" x="14" y="-262.5" font-family="Helvetica,sans-Serif" font-size="10.00"># NewSection()</text>
</a>
</g>
</g>
<!-- Node4&#45;&gt;Node3 -->
<g id="edge2" class="edge"><title>Node4&#45;&gt;Node3</title>
<path fill="none" stroke="#404040" d="M67,-255.322C67,-243.058 67,-230.942 67,-219.567"/>
<polygon fill="none" stroke="#404040" points="67.0001,-219.543 63,-213.543 67,-207.543 71,-213.543 67.0001,-219.543"/>
<text text-anchor="middle" x="91" y="-229" font-family="Helvetica,sans-Serif" font-size="10.00"> +IniParser</text>
</g>
</g>
</svg>
