<?xml version="1.0" encoding="UTF-8" standalone="no"?>
<!DOCTYPE svg PUBLIC "-//W3C//DTD SVG 1.1//EN"
 "http://www.w3.org/Graphics/SVG/1.1/DTD/svg11.dtd">
<!-- Generated by graphviz version 2.38.0 (20140413.2041)
 -->
<!-- Title: C:/Users/jochen.paul/Downloads/YAIP/src/YAIP++.cpp Pages: 1 -->
<svg width="364pt" height="207pt"
 viewBox="0.00 0.00 364.00 207.00" xmlns="http://www.w3.org/2000/svg" xmlns:xlink="http://www.w3.org/1999/xlink">
<g id="graph0" class="graph" transform="scale(1 1) rotate(0) translate(4 203)">
<title>C:/Users/jochen.paul/Downloads/YAIP/src/YAIP++.cpp</title>
<polygon fill="white" stroke="none" points="-4,4 -4,-203 360,-203 360,4 -4,4"/>
<!-- Node1 -->
<g id="node1" class="node"><title>Node1</title>
<polygon fill="#bfbfbf" stroke="black" points="179,-168.5 179,-198.5 344,-198.5 344,-168.5 179,-168.5"/>
<text text-anchor="start" x="187" y="-186.5" font-family="Helvetica,sans-Serif" font-size="10.00">C:/Users/jochen.paul</text>
<text text-anchor="middle" x="261.5" y="-175.5" font-family="Helvetica,sans-Serif" font-size="10.00">/Downloads/YAIP/src/YAIP++.cpp</text>
</g>
<!-- Node2 -->
<g id="node2" class="node"><title>Node2</title>
<g id="a_node2"><a xlink:href="../../de/d5e/a00007.html" target="_top" xlink:title="Header of Yet Another INI Parser. ">
<polygon fill="white" stroke="black" points="157,-112.5 157,-131.5 216,-131.5 216,-112.5 157,-112.5"/>
<text text-anchor="middle" x="186.5" y="-119.5" font-family="Helvetica,sans-Serif" font-size="10.00">YAIP++.h</text>
</a>
</g>
</g>
<!-- Node1&#45;&gt;Node2 -->
<g id="edge1" class="edge"><title>Node1&#45;&gt;Node2</title>
<path fill="none" stroke="midnightblue" d="M243.726,-168.399C232.154,-159.218 217.077,-147.258 205.304,-137.918"/>
<polygon fill="midnightblue" stroke="midnightblue" points="207.423,-135.131 197.413,-131.658 203.072,-140.615 207.423,-135.131"/>
</g>
<!-- Node10 -->
<g id="node10" class="node"><title>Node10</title>
<polygon fill="white" stroke="#bfbfbf" points="234.5,-112.5 234.5,-131.5 288.5,-131.5 288.5,-112.5 234.5,-112.5"/>
<text text-anchor="middle" x="261.5" y="-119.5" font-family="Helvetica,sans-Serif" font-size="10.00">iostream</text>
</g>
<!-- Node1&#45;&gt;Node10 -->
<g id="edge9" class="edge"><title>Node1&#45;&gt;Node10</title>
<path fill="none" stroke="midnightblue" d="M261.5,-168.399C261.5,-160.466 261.5,-150.458 261.5,-141.858"/>
<polygon fill="midnightblue" stroke="midnightblue" points="265,-141.658 261.5,-131.658 258,-141.658 265,-141.658"/>
</g>
<!-- Node11 -->
<g id="node11" class="node"><title>Node11</title>
<polygon fill="white" stroke="#bfbfbf" points="307,-112.5 307,-131.5 356,-131.5 356,-112.5 307,-112.5"/>
<text text-anchor="middle" x="331.5" y="-119.5" font-family="Helvetica,sans-Serif" font-size="10.00">fstream</text>
</g>
<!-- Node1&#45;&gt;Node11 -->
<g id="edge10" class="edge"><title>Node1&#45;&gt;Node11</title>
<path fill="none" stroke="midnightblue" d="M278.089,-168.399C288.785,-159.308 302.688,-147.49 313.628,-138.191"/>
<polygon fill="midnightblue" stroke="midnightblue" points="315.962,-140.801 321.314,-131.658 311.428,-135.468 315.962,-140.801"/>
</g>
<!-- Node3 -->
<g id="node3" class="node"><title>Node3</title>
<g id="a_node3"><a xlink:href="../../d4/dee/a00008.html" target="_top" xlink:title="Basic definitions for YAIP++. ">
<polygon fill="white" stroke="black" points="104.5,-56.5 104.5,-75.5 184.5,-75.5 184.5,-56.5 104.5,-56.5"/>
<text text-anchor="middle" x="144.5" y="-63.5" font-family="Helvetica,sans-Serif" font-size="10.00">YAIP++Data.h</text>
</a>
</g>
</g>
<!-- Node2&#45;&gt;Node3 -->
<g id="edge2" class="edge"><title>Node2&#45;&gt;Node3</title>
<path fill="none" stroke="midnightblue" d="M179.565,-112.083C173.571,-104.377 164.748,-93.0333 157.452,-83.6531"/>
<polygon fill="midnightblue" stroke="midnightblue" points="160.209,-81.4958 151.306,-75.7511 154.683,-85.7934 160.209,-81.4958"/>
</g>
<!-- Node9 -->
<g id="node9" class="node"><title>Node9</title>
<polygon fill="white" stroke="#bfbfbf" points="202.5,-56.5 202.5,-75.5 254.5,-75.5 254.5,-56.5 202.5,-56.5"/>
<text text-anchor="middle" x="228.5" y="-63.5" font-family="Helvetica,sans-Serif" font-size="10.00">sstream</text>
</g>
<!-- Node2&#45;&gt;Node9 -->
<g id="edge8" class="edge"><title>Node2&#45;&gt;Node9</title>
<path fill="none" stroke="midnightblue" d="M193.435,-112.083C199.429,-104.377 208.252,-93.0333 215.548,-83.6531"/>
<polygon fill="midnightblue" stroke="midnightblue" points="218.317,-85.7934 221.694,-75.7511 212.791,-81.4958 218.317,-85.7934"/>
</g>
<!-- Node4 -->
<g id="node4" class="node"><title>Node4</title>
<polygon fill="white" stroke="#bfbfbf" points="0,-0.5 0,-19.5 35,-19.5 35,-0.5 0,-0.5"/>
<text text-anchor="middle" x="17.5" y="-7.5" font-family="Helvetica,sans-Serif" font-size="10.00">map</text>
</g>
<!-- Node3&#45;&gt;Node4 -->
<g id="edge3" class="edge"><title>Node3&#45;&gt;Node4</title>
<path fill="none" stroke="midnightblue" d="M124.376,-56.4435C102.738,-47.2429 68.2273,-32.5691 44.3009,-22.3957"/>
<polygon fill="midnightblue" stroke="midnightblue" points="45.6476,-19.1651 35.0754,-18.473 42.9085,-25.6069 45.6476,-19.1651"/>
</g>
<!-- Node5 -->
<g id="node5" class="node"><title>Node5</title>
<polygon fill="white" stroke="#bfbfbf" points="53.5,-0.5 53.5,-19.5 105.5,-19.5 105.5,-0.5 53.5,-0.5"/>
<text text-anchor="middle" x="79.5" y="-7.5" font-family="Helvetica,sans-Serif" font-size="10.00">memory</text>
</g>
<!-- Node3&#45;&gt;Node5 -->
<g id="edge4" class="edge"><title>Node3&#45;&gt;Node5</title>
<path fill="none" stroke="midnightblue" d="M134.057,-56.324C124.354,-48.2631 109.685,-36.0765 98.0003,-26.3695"/>
<polygon fill="midnightblue" stroke="midnightblue" points="100.062,-23.532 90.1334,-19.8339 95.5887,-28.9163 100.062,-23.532"/>
</g>
<!-- Node6 -->
<g id="node6" class="node"><title>Node6</title>
<polygon fill="white" stroke="#bfbfbf" points="124,-0.5 124,-19.5 165,-19.5 165,-0.5 124,-0.5"/>
<text text-anchor="middle" x="144.5" y="-7.5" font-family="Helvetica,sans-Serif" font-size="10.00">regex</text>
</g>
<!-- Node3&#45;&gt;Node6 -->
<g id="edge5" class="edge"><title>Node3&#45;&gt;Node6</title>
<path fill="none" stroke="midnightblue" d="M144.5,-56.083C144.5,-49.0059 144.5,-38.8611 144.5,-29.9865"/>
<polygon fill="midnightblue" stroke="midnightblue" points="148,-29.751 144.5,-19.7511 141,-29.7511 148,-29.751"/>
</g>
<!-- Node7 -->
<g id="node7" class="node"><title>Node7</title>
<polygon fill="white" stroke="#bfbfbf" points="183,-0.5 183,-19.5 224,-19.5 224,-0.5 183,-0.5"/>
<text text-anchor="middle" x="203.5" y="-7.5" font-family="Helvetica,sans-Serif" font-size="10.00">string</text>
</g>
<!-- Node3&#45;&gt;Node7 -->
<g id="edge6" class="edge"><title>Node3&#45;&gt;Node7</title>
<path fill="none" stroke="midnightblue" d="M153.979,-56.324C162.701,-48.3414 175.843,-36.3128 186.398,-26.6529"/>
<polygon fill="midnightblue" stroke="midnightblue" points="188.834,-29.1674 193.848,-19.8339 184.108,-24.0036 188.834,-29.1674"/>
</g>
<!-- Node8 -->
<g id="node8" class="node"><title>Node8</title>
<polygon fill="white" stroke="#bfbfbf" points="242.5,-0.5 242.5,-19.5 284.5,-19.5 284.5,-0.5 242.5,-0.5"/>
<text text-anchor="middle" x="263.5" y="-7.5" font-family="Helvetica,sans-Serif" font-size="10.00">vector</text>
</g>
<!-- Node3&#45;&gt;Node8 -->
<g id="edge7" class="edge"><title>Node3&#45;&gt;Node8</title>
<path fill="none" stroke="midnightblue" d="M163.356,-56.4435C182.766,-47.6356 213.23,-33.8116 235.465,-23.722"/>
<polygon fill="midnightblue" stroke="midnightblue" points="237.072,-26.836 244.732,-19.5164 234.18,-20.4615 237.072,-26.836"/>
</g>
</g>
</svg>
