<?xml version="1.0" encoding="UTF-8" standalone="no"?>
<!DOCTYPE svg PUBLIC "-//W3C//DTD SVG 1.1//EN"
 "http://www.w3.org/Graphics/SVG/1.1/DTD/svg11.dtd">
<!-- Generated by graphviz version 2.36.0 (20140111.2315)
 -->
<!-- Title: /home/jochen/Work/YAIP/src/YAIP++Data.h Pages: 1 -->
<svg width="302pt" height="96pt"
 viewBox="0.00 0.00 302.00 96.00" xmlns="http://www.w3.org/2000/svg" xmlns:xlink="http://www.w3.org/1999/xlink">
<g id="graph0" class="graph" transform="scale(1 1) rotate(0) translate(4 92)">
<title>/home/jochen/Work/YAIP/src/YAIP++Data.h</title>
<polygon fill="white" stroke="none" points="-4,4 -4,-92 298,-92 298,4 -4,4"/>
<!-- Node1 -->
<g id="node1" class="node"><title>Node1</title>
<polygon fill="#bfbfbf" stroke="black" points="91,-57 91,-87 219,-87 219,-57 91,-57"/>
<text text-anchor="start" x="99" y="-75" font-family="Helvetica,sans-Serif" font-size="10.00">/home/jochen/Work/YAIP</text>
<text text-anchor="middle" x="155" y="-64" font-family="Helvetica,sans-Serif" font-size="10.00">/src/YAIP++Data.h</text>
</g>
<!-- Node2 -->
<g id="node2" class="node"><title>Node2</title>
<polygon fill="white" stroke="#bfbfbf" points="-0.5,-0.5 -0.5,-19.5 58.5,-19.5 58.5,-0.5 -0.5,-0.5"/>
<text text-anchor="middle" x="29" y="-7.5" font-family="Helvetica,sans-Serif" font-size="10.00">functional</text>
</g>
<!-- Node1&#45;&gt;Node2 -->
<g id="edge1" class="edge"><title>Node1&#45;&gt;Node2</title>
<path fill="none" stroke="midnightblue" d="M125.459,-56.9327C104.486,-46.9455 76.5434,-33.6397 56.133,-23.9205"/>
<polygon fill="midnightblue" stroke="midnightblue" points="57.5935,-20.7394 47.0601,-19.6 54.5839,-27.0594 57.5935,-20.7394"/>
</g>
<!-- Node3 -->
<g id="node3" class="node"><title>Node3</title>
<polygon fill="white" stroke="#bfbfbf" points="77,-0.5 77,-19.5 119,-19.5 119,-0.5 77,-0.5"/>
<text text-anchor="middle" x="98" y="-7.5" font-family="Helvetica,sans-Serif" font-size="10.00">locale</text>
</g>
<!-- Node1&#45;&gt;Node3 -->
<g id="edge2" class="edge"><title>Node1&#45;&gt;Node3</title>
<path fill="none" stroke="midnightblue" d="M141.492,-56.7808C133.038,-47.8824 122.125,-36.3943 113.345,-27.1524"/>
<polygon fill="midnightblue" stroke="midnightblue" points="115.719,-24.5699 106.294,-19.7305 110.644,-29.3912 115.719,-24.5699"/>
</g>
<!-- Node4 -->
<g id="node4" class="node"><title>Node4</title>
<polygon fill="white" stroke="#bfbfbf" points="137.5,-0.5 137.5,-19.5 172.5,-19.5 172.5,-0.5 137.5,-0.5"/>
<text text-anchor="middle" x="155" y="-7.5" font-family="Helvetica,sans-Serif" font-size="10.00">map</text>
</g>
<!-- Node1&#45;&gt;Node4 -->
<g id="edge3" class="edge"><title>Node1&#45;&gt;Node4</title>
<path fill="none" stroke="midnightblue" d="M155,-56.7808C155,-48.7812 155,-38.6887 155,-30.0168"/>
<polygon fill="midnightblue" stroke="midnightblue" points="158.5,-29.7305 155,-19.7305 151.5,-29.7306 158.5,-29.7305"/>
</g>
<!-- Node5 -->
<g id="node5" class="node"><title>Node5</title>
<polygon fill="white" stroke="#bfbfbf" points="191,-0.5 191,-19.5 235,-19.5 235,-0.5 191,-0.5"/>
<text text-anchor="middle" x="213" y="-7.5" font-family="Helvetica,sans-Serif" font-size="10.00">vector</text>
</g>
<!-- Node1&#45;&gt;Node5 -->
<g id="edge4" class="edge"><title>Node1&#45;&gt;Node5</title>
<path fill="none" stroke="midnightblue" d="M168.745,-56.7808C177.347,-47.8824 188.452,-36.3943 197.386,-27.1524"/>
<polygon fill="midnightblue" stroke="midnightblue" points="200.127,-29.353 204.56,-19.7305 195.094,-24.4879 200.127,-29.353"/>
</g>
<!-- Node6 -->
<g id="node6" class="node"><title>Node6</title>
<polygon fill="white" stroke="#bfbfbf" points="253.5,-0.5 253.5,-19.5 294.5,-19.5 294.5,-0.5 253.5,-0.5"/>
<text text-anchor="middle" x="274" y="-7.5" font-family="Helvetica,sans-Serif" font-size="10.00">string</text>
</g>
<!-- Node1&#45;&gt;Node6 -->
<g id="edge5" class="edge"><title>Node1&#45;&gt;Node6</title>
<path fill="none" stroke="midnightblue" d="M182.9,-56.9327C202.529,-47.0359 228.621,-33.8803 247.849,-24.1852"/>
<polygon fill="midnightblue" stroke="midnightblue" points="249.59,-27.2274 256.943,-19.6 246.438,-20.977 249.59,-27.2274"/>
</g>
</g>
</svg>
