<?xml version="1.0" encoding="UTF-8" standalone="no"?>
<!DOCTYPE svg PUBLIC "-//W3C//DTD SVG 1.1//EN"
 "http://www.w3.org/Graphics/SVG/1.1/DTD/svg11.dtd">
<!-- Generated by graphviz version 2.38.0 (20140413.2041)
 -->
<!-- Title: YAIPTestFixtureBase Pages: 1 -->
<!--zoomable 386 -->
<svg id="main" version="1.1" xmlns="http://www.w3.org/2000/svg" xmlns:xlink="http://www.w3.org/1999/xlink" xml:space="preserve" onload="init(evt)">
<style type="text/css"><![CDATA[
.edge:hover path { stroke: red; }
.edge:hover polygon { stroke: red; fill: red; }
]]></style>
<script type="text/javascript"><![CDATA[
var edges = document.getElementsByTagName('g');
if (edges && edges.length) {
  for (var i=0;i<edges.length;i++) {
    if (edges[i].id.substr(0,4)=='edge') {
      edges[i].setAttribute('class','edge');
    }
  }
}
]]></script>
        <defs>
                <circle id="rim" cx="0" cy="0" r="7"/>
                <circle id="rim2" cx="0" cy="0" r="3.5"/>
                <g id="zoomPlus">
                        <use xlink:href="#rim" fill="#404040">
                                <set attributeName="fill" to="#808080" begin="zoomplus.mouseover" end="zoomplus.mouseout"/>
                        </use>
                        <path d="M-4,0h8M0,-4v8" fill="none" stroke="white" stroke-width="1.5" pointer-events="none"/>
                </g>
                <g id="zoomMin">
                        <use xlink:href="#rim" fill="#404040">
                                <set attributeName="fill" to="#808080" begin="zoomminus.mouseover" end="zoomminus.mouseout"/>
                        </use>
                        <path d="M-4,0h8" fill="none" stroke="white" stroke-width="1.5" pointer-events="none"/>
                </g>
                <g id="dirArrow">
                        <path fill="none" stroke="white" stroke-width="1.5" d="M0,-3.0v7 M-2.5,-0.5L0,-3.0L2.5,-0.5"/>
                </g>
               <g id="resetDef">
                       <use xlink:href="#rim2" fill="#404040">
                               <set attributeName="fill" to="#808080" begin="reset.mouseover" end="reset.mouseout"/>
                       </use>
               </g>
        </defs>

<script type="text/javascript">
var viewWidth = 767;
var viewHeight = 386;
var sectionId = 'dynsection-0';
</script>
<script xlink:href="../../svgpan.js"/>
<svg id="graph" class="graph">
<g id="viewport">
<title>YAIPTestFixtureBase</title>
<polygon fill="white" stroke="none" points="-4,4 -4,-382 763,-382 763,4 -4,4"/>
<!-- Node0 -->
<g id="node1" class="node"><title>Node0</title>
<polygon fill="#bfbfbf" stroke="black" points="319.5,-254.5 319.5,-377.5 429.5,-377.5 429.5,-254.5 319.5,-254.5"/>
<text text-anchor="middle" x="374.5" y="-365.5" font-family="Helvetica,sans-Serif" font-size="10.00">YAIPTestFixtureBase</text>
<polyline fill="none" stroke="black" points="319.5,-358.5 429.5,-358.5 "/>
<text text-anchor="start" x="327.5" y="-346.5" font-family="Helvetica,sans-Serif" font-size="10.00">+ IniParser</text>
<text text-anchor="start" x="327.5" y="-335.5" font-family="Helvetica,sans-Serif" font-size="10.00">+ INIFilename</text>
<text text-anchor="start" x="327.5" y="-324.5" font-family="Helvetica,sans-Serif" font-size="10.00">+ KeyBool</text>
<text text-anchor="start" x="327.5" y="-313.5" font-family="Helvetica,sans-Serif" font-size="10.00">+ KeyDouble</text>
<text text-anchor="start" x="327.5" y="-302.5" font-family="Helvetica,sans-Serif" font-size="10.00">+ KeyInteger</text>
<text text-anchor="start" x="327.5" y="-291.5" font-family="Helvetica,sans-Serif" font-size="10.00">+ KeyString</text>
<text text-anchor="start" x="327.5" y="-280.5" font-family="Helvetica,sans-Serif" font-size="10.00">+ Section</text>
<polyline fill="none" stroke="black" points="319.5,-273.5 429.5,-273.5 "/>
<text text-anchor="middle" x="374.5" y="-261.5" font-family="Helvetica,sans-Serif" font-size="10.00"> </text>
</g>
<!-- Node1 -->
<g id="node2" class="node"><title>Node1</title>
<g id="a_node2"><a xlink:href="../../d3/d52/a00023.html" target="_top" xlink:title="{YAIPTestFixtureSave\n|+ ValueBool\l+ ValueDouble\l+ ValueInt\l+ ValueString\l|}">
<polygon fill="white" stroke="black" points="0,-127.5 0,-217.5 109,-217.5 109,-127.5 0,-127.5"/>
<text text-anchor="middle" x="54.5" y="-205.5" font-family="Helvetica,sans-Serif" font-size="10.00">YAIPTestFixtureSave</text>
<polyline fill="none" stroke="black" points="0,-198.5 109,-198.5 "/>
<text text-anchor="start" x="8" y="-186.5" font-family="Helvetica,sans-Serif" font-size="10.00">+ ValueBool</text>
<text text-anchor="start" x="8" y="-175.5" font-family="Helvetica,sans-Serif" font-size="10.00">+ ValueDouble</text>
<text text-anchor="start" x="8" y="-164.5" font-family="Helvetica,sans-Serif" font-size="10.00">+ ValueInt</text>
<text text-anchor="start" x="8" y="-153.5" font-family="Helvetica,sans-Serif" font-size="10.00">+ ValueString</text>
<polyline fill="none" stroke="black" points="0,-146.5 109,-146.5 "/>
<text text-anchor="middle" x="54.5" y="-134.5" font-family="Helvetica,sans-Serif" font-size="10.00"> </text>
</a>
</g>
</g>
<!-- Node0&#45;&gt;Node1 -->
<g id="edge1" class="edge"><title>Node0&#45;&gt;Node1</title>
<path fill="none" stroke="midnightblue" d="M309.775,-295.375C256.85,-278.184 180.847,-250.847 118.5,-218 115.387,-216.36 112.246,-214.594 109.115,-212.745"/>
<polygon fill="none" stroke="midnightblue" points="308.789,-298.734 319.381,-298.466 310.933,-292.071 308.789,-298.734"/>
</g>
<!-- Node3 -->
<g id="node4" class="node"><title>Node3</title>
<g id="a_node4"><a xlink:href="../../d3/de7/a00039.html" target="_top" xlink:title="{YAIPTestFixtureSectionKeyKill\n||}">
<polygon fill="white" stroke="black" points="127.5,-144 127.5,-201 279.5,-201 279.5,-144 127.5,-144"/>
<text text-anchor="middle" x="203.5" y="-189" font-family="Helvetica,sans-Serif" font-size="10.00">YAIPTestFixtureSectionKeyKill</text>
<polyline fill="none" stroke="black" points="127.5,-182 279.5,-182 "/>
<text text-anchor="middle" x="203.5" y="-170" font-family="Helvetica,sans-Serif" font-size="10.00"> </text>
<polyline fill="none" stroke="black" points="127.5,-163 279.5,-163 "/>
<text text-anchor="middle" x="203.5" y="-151" font-family="Helvetica,sans-Serif" font-size="10.00"> </text>
</a>
</g>
</g>
<!-- Node0&#45;&gt;Node3 -->
<g id="edge3" class="edge"><title>Node0&#45;&gt;Node3</title>
<path fill="none" stroke="midnightblue" d="M311.678,-263.016C286.291,-242.008 258.029,-218.622 236.761,-201.023"/>
<polygon fill="none" stroke="midnightblue" points="309.518,-265.771 319.453,-269.45 313.98,-260.378 309.518,-265.771"/>
</g>
<!-- Node4 -->
<g id="node5" class="node"><title>Node4</title>
<g id="a_node5"><a xlink:href="../../d4/d8c/a00035.html" target="_top" xlink:title="{YAIPTestFixtureSectionKeyList\n||}">
<polygon fill="white" stroke="black" points="297.5,-144 297.5,-201 451.5,-201 451.5,-144 297.5,-144"/>
<text text-anchor="middle" x="374.5" y="-189" font-family="Helvetica,sans-Serif" font-size="10.00">YAIPTestFixtureSectionKeyList</text>
<polyline fill="none" stroke="black" points="297.5,-182 451.5,-182 "/>
<text text-anchor="middle" x="374.5" y="-170" font-family="Helvetica,sans-Serif" font-size="10.00"> </text>
<polyline fill="none" stroke="black" points="297.5,-163 451.5,-163 "/>
<text text-anchor="middle" x="374.5" y="-151" font-family="Helvetica,sans-Serif" font-size="10.00"> </text>
</a>
</g>
</g>
<!-- Node0&#45;&gt;Node4 -->
<g id="edge4" class="edge"><title>Node0&#45;&gt;Node4</title>
<path fill="none" stroke="midnightblue" d="M374.5,-243.742C374.5,-228.638 374.5,-213.565 374.5,-201.276"/>
<polygon fill="none" stroke="midnightblue" points="371,-244.17 374.5,-254.17 378,-244.17 371,-244.17"/>
</g>
<!-- Node5 -->
<g id="node6" class="node"><title>Node5</title>
<g id="a_node6"><a xlink:href="../../d6/d42/a00043.html" target="_top" xlink:title="{YAIPTestFixtureSectionKill\n||}">
<polygon fill="white" stroke="black" points="469.5,-144 469.5,-201 603.5,-201 603.5,-144 469.5,-144"/>
<text text-anchor="middle" x="536.5" y="-189" font-family="Helvetica,sans-Serif" font-size="10.00">YAIPTestFixtureSectionKill</text>
<polyline fill="none" stroke="black" points="469.5,-182 603.5,-182 "/>
<text text-anchor="middle" x="536.5" y="-170" font-family="Helvetica,sans-Serif" font-size="10.00"> </text>
<polyline fill="none" stroke="black" points="469.5,-163 603.5,-163 "/>
<text text-anchor="middle" x="536.5" y="-151" font-family="Helvetica,sans-Serif" font-size="10.00"> </text>
</a>
</g>
</g>
<!-- Node0&#45;&gt;Node5 -->
<g id="edge5" class="edge"><title>Node0&#45;&gt;Node5</title>
<path fill="none" stroke="midnightblue" d="M437.495,-259.976C460.455,-239.922 485.448,-218.092 504.579,-201.382"/>
<polygon fill="none" stroke="midnightblue" points="435.027,-257.485 429.798,-266.699 439.632,-262.757 435.027,-257.485"/>
</g>
<!-- Node6 -->
<g id="node7" class="node"><title>Node6</title>
<g id="a_node7"><a xlink:href="../../df/d61/a00031.html" target="_top" xlink:title="{YAIPTestFixtureSectionList\n||}">
<polygon fill="white" stroke="black" points="622,-144 622,-201 759,-201 759,-144 622,-144"/>
<text text-anchor="middle" x="690.5" y="-189" font-family="Helvetica,sans-Serif" font-size="10.00">YAIPTestFixtureSectionList</text>
<polyline fill="none" stroke="black" points="622,-182 759,-182 "/>
<text text-anchor="middle" x="690.5" y="-170" font-family="Helvetica,sans-Serif" font-size="10.00"> </text>
<polyline fill="none" stroke="black" points="622,-163 759,-163 "/>
<text text-anchor="middle" x="690.5" y="-151" font-family="Helvetica,sans-Serif" font-size="10.00"> </text>
</a>
</g>
</g>
<!-- Node0&#45;&gt;Node6 -->
<g id="edge6" class="edge"><title>Node0&#45;&gt;Node6</title>
<path fill="none" stroke="midnightblue" d="M439.171,-291.288C487.613,-272.894 555.135,-245.904 612.5,-218 623.015,-212.885 634.063,-206.948 644.431,-201.109"/>
<polygon fill="none" stroke="midnightblue" points="437.863,-288.041 429.746,-294.85 440.337,-294.589 437.863,-288.041"/>
</g>
<!-- Node2 -->
<g id="node3" class="node"><title>Node2</title>
<g id="a_node3"><a xlink:href="../../d0/d33/a00027.html" target="_top" xlink:title="{YAIPTestFixtureLoad\n|+ DefaultBool\l+ DefaultDouble\l+ DefaultInt\l+ DefaultString\l|}">
<polygon fill="white" stroke="black" points="0,-0.5 0,-90.5 109,-90.5 109,-0.5 0,-0.5"/>
<text text-anchor="middle" x="54.5" y="-78.5" font-family="Helvetica,sans-Serif" font-size="10.00">YAIPTestFixtureLoad</text>
<polyline fill="none" stroke="black" points="0,-71.5 109,-71.5 "/>
<text text-anchor="start" x="8" y="-59.5" font-family="Helvetica,sans-Serif" font-size="10.00">+ DefaultBool</text>
<text text-anchor="start" x="8" y="-48.5" font-family="Helvetica,sans-Serif" font-size="10.00">+ DefaultDouble</text>
<text text-anchor="start" x="8" y="-37.5" font-family="Helvetica,sans-Serif" font-size="10.00">+ DefaultInt</text>
<text text-anchor="start" x="8" y="-26.5" font-family="Helvetica,sans-Serif" font-size="10.00">+ DefaultString</text>
<polyline fill="none" stroke="black" points="0,-19.5 109,-19.5 "/>
<text text-anchor="middle" x="54.5" y="-7.5" font-family="Helvetica,sans-Serif" font-size="10.00"> </text>
</a>
</g>
</g>
<!-- Node1&#45;&gt;Node2 -->
<g id="edge2" class="edge"><title>Node1&#45;&gt;Node2</title>
<path fill="none" stroke="midnightblue" d="M54.5,-117.157C54.5,-108.282 54.5,-99.1831 54.5,-90.5937"/>
<polygon fill="none" stroke="midnightblue" points="51.0001,-117.43 54.5,-127.43 58.0001,-117.43 51.0001,-117.43"/>
</g>
</g>
</svg>
        <g id="navigator" transform="translate(0 0)" fill="#404254">
                <rect fill="#f2f5e9" fill-opacity="0.5" stroke="#606060" stroke-width=".5" x="0" y="0" width="60" height="60"/>
                <use id="zoomplus" xlink:href="#zoomPlus" x="17" y="9" onmousedown="handleZoom(evt,'in')"/>
                <use id="zoomminus" xlink:href="#zoomMin" x="42" y="9" onmousedown="handleZoom(evt,'out')"/>
                <use id="reset" xlink:href="#resetDef" x="30" y="36" onmousedown="handleReset()"/>
                <g id="arrowUp" xlink:href="#dirArrow" transform="translate(30 24)" onmousedown="handlePan(0,-1)">
                  <use xlink:href="#rim" fill="#404040">
                        <set attributeName="fill" to="#808080" begin="arrowUp.mouseover" end="arrowUp.mouseout"/>
                  </use>
                  <path fill="none" stroke="white" stroke-width="1.5" d="M0,-3.0v7 M-2.5,-0.5L0,-3.0L2.5,-0.5"/>
                </g>
                <g id="arrowRight" xlink:href="#dirArrow" transform="rotate(90) translate(36 -43)" onmousedown="handlePan(1,0)">
                  <use xlink:href="#rim" fill="#404040">
                        <set attributeName="fill" to="#808080" begin="arrowRight.mouseover" end="arrowRight.mouseout"/>
                  </use>
                  <path fill="none" stroke="white" stroke-width="1.5" d="M0,-3.0v7 M-2.5,-0.5L0,-3.0L2.5,-0.5"/>
                </g>
                <g id="arrowDown" xlink:href="#dirArrow" transform="rotate(180) translate(-30 -48)" onmousedown="handlePan(0,1)">
                  <use xlink:href="#rim" fill="#404040">
                        <set attributeName="fill" to="#808080" begin="arrowDown.mouseover" end="arrowDown.mouseout"/>
                  </use>
                  <path fill="none" stroke="white" stroke-width="1.5" d="M0,-3.0v7 M-2.5,-0.5L0,-3.0L2.5,-0.5"/>
                </g>
                <g id="arrowLeft" xlink:href="#dirArrow" transform="rotate(270) translate(-36 17)" onmousedown="handlePan(-1,0)">
                  <use xlink:href="#rim" fill="#404040">
                        <set attributeName="fill" to="#808080" begin="arrowLeft.mouseover" end="arrowLeft.mouseout"/>
                  </use>
                  <path fill="none" stroke="white" stroke-width="1.5" d="M0,-3.0v7 M-2.5,-0.5L0,-3.0L2.5,-0.5"/>
                </g>
        </g>
        <svg viewBox="0 0 15 15" width="100%" height="30px" preserveAspectRatio="xMaxYMin meet">
         <g id="arrow_out" transform="scale(0.3 0.3)">
          <a xlink:href="a00018_org.svg" target="_base">
           <rect id="button" ry="5" rx="5" y="6" x="6" height="38" width="38"
                fill="#f2f5e9" fill-opacity="0.5" stroke="#606060" stroke-width="1.0"/>
           <path id="arrow"
             d="M 11.500037,31.436501 C 11.940474,20.09759 22.043105,11.32322 32.158766,21.979434 L 37.068811,17.246167 C 37.068811,17.246167 37.088388,32 37.088388,32 L 22.160133,31.978069 C 22.160133,31.978069 26.997745,27.140456 26.997745,27.140456 C 18.528582,18.264221 13.291696,25.230495 11.500037,31.436501 z"
             style="fill:#404040;"/>
          </a>
         </g>
        </svg>
</svg>
