<?xml version="1.0" encoding="UTF-8" standalone="no"?>
<!DOCTYPE svg PUBLIC "-//W3C//DTD SVG 1.1//EN"
 "http://www.w3.org/Graphics/SVG/1.1/DTD/svg11.dtd">
<!-- Generated by graphviz version 2.38.0 (20140413.2041)
 -->
<!-- Title: C:/Dokumente_JPA/Workspaces/GitHub/YAIP/src/YAIP++.cpp Pages: 1 -->
<svg width="396pt" height="207pt"
 viewBox="0.00 0.00 396.00 207.00" xmlns="http://www.w3.org/2000/svg" xmlns:xlink="http://www.w3.org/1999/xlink">
<g id="graph0" class="graph" transform="scale(1 1) rotate(0) translate(4 203)">
<title>C:/Dokumente_JPA/Workspaces/GitHub/YAIP/src/YAIP++.cpp</title>
<polygon fill="white" stroke="none" points="-4,4 -4,-203 392,-203 392,4 -4,4"/>
<!-- Node1 -->
<g id="node1" class="node"><title>Node1</title>
<polygon fill="#bfbfbf" stroke="black" points="213,-168.5 213,-198.5 373,-198.5 373,-168.5 213,-168.5"/>
<text text-anchor="start" x="221" y="-186.5" font-family="Helvetica,sans-Serif" font-size="10.00">C:/Dokumente_JPA/Workspaces</text>
<text text-anchor="middle" x="293" y="-175.5" font-family="Helvetica,sans-Serif" font-size="10.00">/GitHub/YAIP/src/YAIP++.cpp</text>
</g>
<!-- Node2 -->
<g id="node2" class="node"><title>Node2</title>
<g id="a_node2"><a xlink:href="../../dd/d1b/a00015.html" target="_top" xlink:title="Header of Yet Another INI Parser. ">
<polygon fill="white" stroke="black" points="191.5,-112.5 191.5,-131.5 250.5,-131.5 250.5,-112.5 191.5,-112.5"/>
<text text-anchor="middle" x="221" y="-119.5" font-family="Helvetica,sans-Serif" font-size="10.00">YAIP++.h</text>
</a>
</g>
</g>
<!-- Node1&#45;&gt;Node2 -->
<g id="edge1" class="edge"><title>Node1&#45;&gt;Node2</title>
<path fill="none" stroke="midnightblue" d="M275.937,-168.399C264.935,-159.308 250.635,-147.49 239.382,-138.191"/>
<polygon fill="midnightblue" stroke="midnightblue" points="241.415,-135.33 231.477,-131.658 236.956,-140.726 241.415,-135.33"/>
</g>
<!-- Node11 -->
<g id="node11" class="node"><title>Node11</title>
<polygon fill="white" stroke="#bfbfbf" points="268.5,-112.5 268.5,-131.5 317.5,-131.5 317.5,-112.5 268.5,-112.5"/>
<text text-anchor="middle" x="293" y="-119.5" font-family="Helvetica,sans-Serif" font-size="10.00">fstream</text>
</g>
<!-- Node1&#45;&gt;Node11 -->
<g id="edge10" class="edge"><title>Node1&#45;&gt;Node11</title>
<path fill="none" stroke="midnightblue" d="M293,-168.399C293,-160.466 293,-150.458 293,-141.858"/>
<polygon fill="midnightblue" stroke="midnightblue" points="296.5,-141.658 293,-131.658 289.5,-141.658 296.5,-141.658"/>
</g>
<!-- Node12 -->
<g id="node12" class="node"><title>Node12</title>
<polygon fill="white" stroke="#bfbfbf" points="336,-112.5 336,-131.5 388,-131.5 388,-112.5 336,-112.5"/>
<text text-anchor="middle" x="362" y="-119.5" font-family="Helvetica,sans-Serif" font-size="10.00">sstream</text>
</g>
<!-- Node1&#45;&gt;Node12 -->
<g id="edge11" class="edge"><title>Node1&#45;&gt;Node12</title>
<path fill="none" stroke="midnightblue" d="M309.352,-168.399C319.895,-159.308 333.6,-147.49 344.384,-138.191"/>
<polygon fill="midnightblue" stroke="midnightblue" points="346.672,-140.839 351.96,-131.658 342.101,-135.538 346.672,-140.839"/>
</g>
<!-- Node3 -->
<g id="node3" class="node"><title>Node3</title>
<g id="a_node3"><a xlink:href="../../d7/d7a/a00016.html" target="_top" xlink:title="Basic definitions for YAIP++. ">
<polygon fill="white" stroke="black" points="142,-56.5 142,-75.5 222,-75.5 222,-56.5 142,-56.5"/>
<text text-anchor="middle" x="182" y="-63.5" font-family="Helvetica,sans-Serif" font-size="10.00">YAIP++Data.h</text>
</a>
</g>
</g>
<!-- Node2&#45;&gt;Node3 -->
<g id="edge2" class="edge"><title>Node2&#45;&gt;Node3</title>
<path fill="none" stroke="midnightblue" d="M214.56,-112.083C209.051,-104.455 200.969,-93.2645 194.235,-83.9408"/>
<polygon fill="midnightblue" stroke="midnightblue" points="197.013,-81.8087 188.32,-75.7511 191.338,-85.9071 197.013,-81.8087"/>
</g>
<!-- Node10 -->
<g id="node10" class="node"><title>Node10</title>
<polygon fill="white" stroke="#bfbfbf" points="240.5,-56.5 240.5,-75.5 281.5,-75.5 281.5,-56.5 240.5,-56.5"/>
<text text-anchor="middle" x="261" y="-63.5" font-family="Helvetica,sans-Serif" font-size="10.00">regex</text>
</g>
<!-- Node2&#45;&gt;Node10 -->
<g id="edge9" class="edge"><title>Node2&#45;&gt;Node10</title>
<path fill="none" stroke="midnightblue" d="M227.605,-112.083C233.255,-104.455 241.545,-93.2645 248.451,-83.9408"/>
<polygon fill="midnightblue" stroke="midnightblue" points="251.378,-85.87 254.518,-75.7511 245.753,-81.7034 251.378,-85.87"/>
</g>
<!-- Node4 -->
<g id="node4" class="node"><title>Node4</title>
<polygon fill="white" stroke="#bfbfbf" points="0,-0.5 0,-19.5 58,-19.5 58,-0.5 0,-0.5"/>
<text text-anchor="middle" x="29" y="-7.5" font-family="Helvetica,sans-Serif" font-size="10.00">functional</text>
</g>
<!-- Node3&#45;&gt;Node4 -->
<g id="edge3" class="edge"><title>Node3&#45;&gt;Node4</title>
<path fill="none" stroke="midnightblue" d="M157.757,-56.4435C132.129,-47.3986 91.5148,-33.064 62.7616,-22.9158"/>
<polygon fill="midnightblue" stroke="midnightblue" points="63.7247,-19.5442 53.1299,-19.5164 61.3949,-26.1452 63.7247,-19.5442"/>
</g>
<!-- Node5 -->
<g id="node5" class="node"><title>Node5</title>
<polygon fill="white" stroke="#bfbfbf" points="76,-0.5 76,-19.5 118,-19.5 118,-0.5 76,-0.5"/>
<text text-anchor="middle" x="97" y="-7.5" font-family="Helvetica,sans-Serif" font-size="10.00">locale</text>
</g>
<!-- Node3&#45;&gt;Node5 -->
<g id="edge4" class="edge"><title>Node3&#45;&gt;Node5</title>
<path fill="none" stroke="midnightblue" d="M168.343,-56.324C155.084,-47.9002 134.732,-34.9709 119.154,-25.0741"/>
<polygon fill="midnightblue" stroke="midnightblue" points="120.94,-22.0626 110.623,-19.6545 117.187,-27.9711 120.94,-22.0626"/>
</g>
<!-- Node6 -->
<g id="node6" class="node"><title>Node6</title>
<polygon fill="white" stroke="#bfbfbf" points="136.5,-0.5 136.5,-19.5 171.5,-19.5 171.5,-0.5 136.5,-0.5"/>
<text text-anchor="middle" x="154" y="-7.5" font-family="Helvetica,sans-Serif" font-size="10.00">map</text>
</g>
<!-- Node3&#45;&gt;Node6 -->
<g id="edge5" class="edge"><title>Node3&#45;&gt;Node6</title>
<path fill="none" stroke="midnightblue" d="M177.376,-56.083C173.544,-48.6913 167.976,-37.9533 163.235,-28.8111"/>
<polygon fill="midnightblue" stroke="midnightblue" points="166.248,-27.0175 158.538,-19.7511 160.034,-30.2398 166.248,-27.0175"/>
</g>
<!-- Node7 -->
<g id="node7" class="node"><title>Node7</title>
<polygon fill="white" stroke="#bfbfbf" points="190,-0.5 190,-19.5 232,-19.5 232,-0.5 190,-0.5"/>
<text text-anchor="middle" x="211" y="-7.5" font-family="Helvetica,sans-Serif" font-size="10.00">vector</text>
</g>
<!-- Node3&#45;&gt;Node7 -->
<g id="edge6" class="edge"><title>Node3&#45;&gt;Node7</title>
<path fill="none" stroke="midnightblue" d="M186.789,-56.083C190.758,-48.6913 196.525,-37.9533 201.435,-28.8111"/>
<polygon fill="midnightblue" stroke="midnightblue" points="204.653,-30.217 206.3,-19.7511 198.486,-26.9051 204.653,-30.217"/>
</g>
<!-- Node8 -->
<g id="node8" class="node"><title>Node8</title>
<polygon fill="white" stroke="#bfbfbf" points="250.5,-0.5 250.5,-19.5 291.5,-19.5 291.5,-0.5 250.5,-0.5"/>
<text text-anchor="middle" x="271" y="-7.5" font-family="Helvetica,sans-Serif" font-size="10.00">string</text>
</g>
<!-- Node3&#45;&gt;Node8 -->
<g id="edge7" class="edge"><title>Node3&#45;&gt;Node8</title>
<path fill="none" stroke="midnightblue" d="M196.299,-56.324C210.183,-47.9002 231.492,-34.9709 247.804,-25.0741"/>
<polygon fill="midnightblue" stroke="midnightblue" points="250.002,-27.8341 256.736,-19.6545 246.371,-21.8495 250.002,-27.8341"/>
</g>
<!-- Node9 -->
<g id="node9" class="node"><title>Node9</title>
<polygon fill="white" stroke="#bfbfbf" points="309.5,-0.5 309.5,-19.5 358.5,-19.5 358.5,-0.5 309.5,-0.5"/>
<text text-anchor="middle" x="334" y="-7.5" font-family="Helvetica,sans-Serif" font-size="10.00">ctype.h</text>
</g>
<!-- Node3&#45;&gt;Node9 -->
<g id="edge8" class="edge"><title>Node3&#45;&gt;Node9</title>
<path fill="none" stroke="midnightblue" d="M206.085,-56.4435C231.545,-47.3986 271.894,-33.064 300.459,-22.9158"/>
<polygon fill="midnightblue" stroke="midnightblue" points="301.777,-26.1622 310.028,-19.5164 299.433,-19.5661 301.777,-26.1622"/>
</g>
</g>
</svg>
