<?xml version="1.0" encoding="UTF-8" standalone="no"?>
<!DOCTYPE svg PUBLIC "-//W3C//DTD SVG 1.1//EN"
 "http://www.w3.org/Graphics/SVG/1.1/DTD/svg11.dtd">
<!-- Generated by graphviz version 2.38.0 (20140413.2041)
 -->
<!-- Title: C:/Users/jochen.paul/Documents/GitHub/YAIP/src/YAIP++Data.h Pages: 1 -->
<svg width="282pt" height="206pt"
 viewBox="0.00 0.00 282.00 206.00" xmlns="http://www.w3.org/2000/svg" xmlns:xlink="http://www.w3.org/1999/xlink">
<g id="graph0" class="graph" transform="scale(1 1) rotate(0) translate(4 202)">
<title>C:/Users/jochen.paul/Documents/GitHub/YAIP/src/YAIP++Data.h</title>
<polygon fill="white" stroke="none" points="-4,4 -4,-202 278,-202 278,4 -4,4"/>
<!-- Node1 -->
<g id="node1" class="node"><title>Node1</title>
<polygon fill="#bfbfbf" stroke="black" points="73,-156.5 73,-197.5 201,-197.5 201,-156.5 73,-156.5"/>
<text text-anchor="start" x="81" y="-185.5" font-family="Helvetica,sans-Serif" font-size="10.00">C:/Users/jochen.paul</text>
<text text-anchor="start" x="81" y="-174.5" font-family="Helvetica,sans-Serif" font-size="10.00">/Documents/GitHub/YAIP</text>
<text text-anchor="middle" x="137" y="-163.5" font-family="Helvetica,sans-Serif" font-size="10.00">/src/YAIP++Data.h</text>
</g>
<!-- Node2 -->
<g id="node2" class="node"><title>Node2</title>
<g id="a_node2"><a xlink:href="../../de/d5e/a00007.html" target="_top" xlink:title="Header of Yet Another INI Parser. ">
<polygon fill="white" stroke="black" points="73,-78.5 73,-119.5 201,-119.5 201,-78.5 73,-78.5"/>
<text text-anchor="start" x="81" y="-107.5" font-family="Helvetica,sans-Serif" font-size="10.00">C:/Users/jochen.paul</text>
<text text-anchor="start" x="81" y="-96.5" font-family="Helvetica,sans-Serif" font-size="10.00">/Documents/GitHub/YAIP</text>
<text text-anchor="middle" x="137" y="-85.5" font-family="Helvetica,sans-Serif" font-size="10.00">/src/YAIP++.h</text>
</a>
</g>
</g>
<!-- Node1&#45;&gt;Node2 -->
<g id="edge1" class="edge"><title>Node1&#45;&gt;Node2</title>
<path fill="none" stroke="midnightblue" d="M137,-146.297C137,-137.301 137,-127.653 137,-119.506"/>
<polygon fill="midnightblue" stroke="midnightblue" points="133.5,-146.428 137,-156.428 140.5,-146.428 133.5,-146.428"/>
</g>
<!-- Node3 -->
<g id="node3" class="node"><title>Node3</title>
<g id="a_node3"><a xlink:href="../../dd/dad/a00005_source.html" target="_top" xlink:title="C:/Users/jochen.paul\l/Documents/GitHub/YAIP\l/src/main.cpp">
<polygon fill="white" stroke="black" points="0,-0.5 0,-41.5 128,-41.5 128,-0.5 0,-0.5"/>
<text text-anchor="start" x="8" y="-29.5" font-family="Helvetica,sans-Serif" font-size="10.00">C:/Users/jochen.paul</text>
<text text-anchor="start" x="8" y="-18.5" font-family="Helvetica,sans-Serif" font-size="10.00">/Documents/GitHub/YAIP</text>
<text text-anchor="middle" x="64" y="-7.5" font-family="Helvetica,sans-Serif" font-size="10.00">/src/main.cpp</text>
</a>
</g>
</g>
<!-- Node2&#45;&gt;Node3 -->
<g id="edge2" class="edge"><title>Node2&#45;&gt;Node3</title>
<path fill="none" stroke="midnightblue" d="M111.262,-71.204C101.86,-61.416 91.4122,-50.5388 82.7356,-41.5056"/>
<polygon fill="midnightblue" stroke="midnightblue" points="108.749,-73.6407 118.201,-78.4281 113.798,-68.7915 108.749,-73.6407"/>
</g>
<!-- Node4 -->
<g id="node4" class="node"><title>Node4</title>
<g id="a_node4"><a xlink:href="../../de/d21/a00006.html" target="_top" xlink:title="Implementation of Yet Another INI Parser. ">
<polygon fill="white" stroke="black" points="146,-0.5 146,-41.5 274,-41.5 274,-0.5 146,-0.5"/>
<text text-anchor="start" x="154" y="-29.5" font-family="Helvetica,sans-Serif" font-size="10.00">C:/Users/jochen.paul</text>
<text text-anchor="start" x="154" y="-18.5" font-family="Helvetica,sans-Serif" font-size="10.00">/Documents/GitHub/YAIP</text>
<text text-anchor="middle" x="210" y="-7.5" font-family="Helvetica,sans-Serif" font-size="10.00">/src/YAIP++.cpp</text>
</a>
</g>
</g>
<!-- Node2&#45;&gt;Node4 -->
<g id="edge3" class="edge"><title>Node2&#45;&gt;Node4</title>
<path fill="none" stroke="midnightblue" d="M162.738,-71.204C172.14,-61.416 182.588,-50.5388 191.264,-41.5056"/>
<polygon fill="midnightblue" stroke="midnightblue" points="160.202,-68.7915 155.799,-78.4281 165.251,-73.6407 160.202,-68.7915"/>
</g>
</g>
</svg>
