<?xml version="1.0" encoding="UTF-8" standalone="no"?>
<!DOCTYPE svg PUBLIC "-//W3C//DTD SVG 1.1//EN"
 "http://www.w3.org/Graphics/SVG/1.1/DTD/svg11.dtd">
<!-- Generated by graphviz version 2.38.0 (20140413.2041)
 -->
<!-- Title: YAIPTestFixtureSave Pages: 1 -->
<svg width="118pt" height="386pt"
 viewBox="0.00 0.00 118.00 386.00" xmlns="http://www.w3.org/2000/svg" xmlns:xlink="http://www.w3.org/1999/xlink">
<g id="graph0" class="graph" transform="scale(1 1) rotate(0) translate(4 382)">
<title>YAIPTestFixtureSave</title>
<polygon fill="white" stroke="none" points="-4,4 -4,-382 114,-382 114,4 -4,4"/>
<!-- Node1 -->
<g id="node1" class="node"><title>Node1</title>
<polygon fill="#bfbfbf" stroke="black" points="0.5,-127.5 0.5,-217.5 109.5,-217.5 109.5,-127.5 0.5,-127.5"/>
<text text-anchor="middle" x="55" y="-205.5" font-family="Helvetica,sans-Serif" font-size="10.00">YAIPTestFixtureSave</text>
<polyline fill="none" stroke="black" points="0.5,-198.5 109.5,-198.5 "/>
<text text-anchor="start" x="8.5" y="-186.5" font-family="Helvetica,sans-Serif" font-size="10.00">+ ValueBool</text>
<text text-anchor="start" x="8.5" y="-175.5" font-family="Helvetica,sans-Serif" font-size="10.00">+ ValueDouble</text>
<text text-anchor="start" x="8.5" y="-164.5" font-family="Helvetica,sans-Serif" font-size="10.00">+ ValueInt</text>
<text text-anchor="start" x="8.5" y="-153.5" font-family="Helvetica,sans-Serif" font-size="10.00">+ ValueString</text>
<polyline fill="none" stroke="black" points="0.5,-146.5 109.5,-146.5 "/>
<text text-anchor="middle" x="55" y="-134.5" font-family="Helvetica,sans-Serif" font-size="10.00"> </text>
</g>
<!-- Node3 -->
<g id="node3" class="node"><title>Node3</title>
<g id="a_node3"><a xlink:href="../../de/d5e/a00007.html" target="_top" xlink:title="{YAIPTestFixtureLoad\n|+ DefaultBool\l+ DefaultDouble\l+ DefaultInt\l+ DefaultString\l|}">
<polygon fill="white" stroke="black" points="0.5,-0.5 0.5,-90.5 109.5,-90.5 109.5,-0.5 0.5,-0.5"/>
<text text-anchor="middle" x="55" y="-78.5" font-family="Helvetica,sans-Serif" font-size="10.00">YAIPTestFixtureLoad</text>
<polyline fill="none" stroke="black" points="0.5,-71.5 109.5,-71.5 "/>
<text text-anchor="start" x="8.5" y="-59.5" font-family="Helvetica,sans-Serif" font-size="10.00">+ DefaultBool</text>
<text text-anchor="start" x="8.5" y="-48.5" font-family="Helvetica,sans-Serif" font-size="10.00">+ DefaultDouble</text>
<text text-anchor="start" x="8.5" y="-37.5" font-family="Helvetica,sans-Serif" font-size="10.00">+ DefaultInt</text>
<text text-anchor="start" x="8.5" y="-26.5" font-family="Helvetica,sans-Serif" font-size="10.00">+ DefaultString</text>
<polyline fill="none" stroke="black" points="0.5,-19.5 109.5,-19.5 "/>
<text text-anchor="middle" x="55" y="-7.5" font-family="Helvetica,sans-Serif" font-size="10.00"> </text>
</a>
</g>
</g>
<!-- Node1&#45;&gt;Node3 -->
<g id="edge2" class="edge"><title>Node1&#45;&gt;Node3</title>
<path fill="none" stroke="midnightblue" d="M55,-117.157C55,-108.282 55,-99.1831 55,-90.5937"/>
<polygon fill="none" stroke="midnightblue" points="51.5001,-117.43 55,-127.43 58.5001,-117.43 51.5001,-117.43"/>
</g>
<!-- Node2 -->
<g id="node2" class="node"><title>Node2</title>
<g id="a_node2"><a xlink:href="../../de/d21/a00006.html" target="_top" xlink:title="{YAIPTestFixtureBase\n|+ IniParser\l+ INIFilename\l+ KeyBool\l+ KeyDouble\l+ KeyInteger\l+ KeyString\l+ Section\l|}">
<polygon fill="white" stroke="black" points="0,-254.5 0,-377.5 110,-377.5 110,-254.5 0,-254.5"/>
<text text-anchor="middle" x="55" y="-365.5" font-family="Helvetica,sans-Serif" font-size="10.00">YAIPTestFixtureBase</text>
<polyline fill="none" stroke="black" points="0,-358.5 110,-358.5 "/>
<text text-anchor="start" x="8" y="-346.5" font-family="Helvetica,sans-Serif" font-size="10.00">+ IniParser</text>
<text text-anchor="start" x="8" y="-335.5" font-family="Helvetica,sans-Serif" font-size="10.00">+ INIFilename</text>
<text text-anchor="start" x="8" y="-324.5" font-family="Helvetica,sans-Serif" font-size="10.00">+ KeyBool</text>
<text text-anchor="start" x="8" y="-313.5" font-family="Helvetica,sans-Serif" font-size="10.00">+ KeyDouble</text>
<text text-anchor="start" x="8" y="-302.5" font-family="Helvetica,sans-Serif" font-size="10.00">+ KeyInteger</text>
<text text-anchor="start" x="8" y="-291.5" font-family="Helvetica,sans-Serif" font-size="10.00">+ KeyString</text>
<text text-anchor="start" x="8" y="-280.5" font-family="Helvetica,sans-Serif" font-size="10.00">+ Section</text>
<polyline fill="none" stroke="black" points="0,-273.5 110,-273.5 "/>
<text text-anchor="middle" x="55" y="-261.5" font-family="Helvetica,sans-Serif" font-size="10.00"> </text>
</a>
</g>
</g>
<!-- Node2&#45;&gt;Node1 -->
<g id="edge1" class="edge"><title>Node2&#45;&gt;Node1</title>
<path fill="none" stroke="midnightblue" d="M55,-244.033C55,-235.028 55,-226.028 55,-217.617"/>
<polygon fill="none" stroke="midnightblue" points="51.5001,-244.17 55,-254.17 58.5001,-244.17 51.5001,-244.17"/>
</g>
</g>
</svg>
